<svg width="32" height="32" viewBox="0 0 32 32" fill="none" xmlns="http://www.w3.org/2000/svg">
<path d="M31.2403 0H0.663999C0.298239 0 0 0.296319 0 0.663999V31.2403C0 31.608 0.298239 31.9043 0.663999 31.9043H31.2403C31.608 31.9043 31.9062 31.608 31.9062 31.2403V0.663999C31.9062 0.296319 31.608 0 31.2403 0ZM30.5782 30.5763H1.32832V1.32832H30.5782V30.5763Z" fill="#5E1211"/>
<path d="M10.6474 8.19916V23.7096C10.6474 24.0753 10.3511 24.3736 9.98343 24.3736H9.54055C9.17287 24.3736 8.87463 24.0753 8.87463 23.7096V8.19916C8.87463 7.83148 9.17287 7.53516 9.54055 7.53516H9.98343C10.3511 7.53516 10.6474 7.83148 10.6474 8.19916Z" fill="#5E1211"/>
<path d="M2.68652 29.248H29.2763V2.66016H2.68652V29.248ZM19.5272 25.0403C19.5272 25.4061 19.2289 25.7043 18.8612 25.7043H6.89644C6.53036 25.7043 6.23213 25.408 6.23213 25.0403C6.23213 24.6726 6.52844 24.3744 6.89644 24.3744C7.2622 24.3744 7.56045 24.0778 7.56045 23.7101V8.19968C7.56045 7.832 7.26412 7.53567 6.89644 7.53567C6.53036 7.53567 6.23213 7.23936 6.23213 6.87168C6.23213 6.50368 6.52844 6.20576 6.89644 6.20576H12.6574C13.0232 6.20576 13.3214 6.50208 13.3214 6.86976C13.3214 7.23744 13.0251 7.53567 12.6574 7.53567C12.2897 7.53567 11.9931 7.832 11.9931 8.19968V23.7101C11.9931 24.0758 12.2897 24.3744 12.6574 24.3744H17.5329C17.8987 24.3744 18.1969 24.0778 18.1969 23.7101C18.1969 23.3424 18.4936 23.0442 18.8612 23.0442C19.2289 23.0442 19.5272 23.3424 19.5272 23.7101V25.0403ZM25.0648 25.7043H22.4065C22.0388 25.7043 21.7425 25.4061 21.7425 25.0403C21.7425 24.6726 22.0388 24.3744 22.4065 24.3744C22.7745 24.3744 23.0728 24.0758 23.0728 23.7101V17.0618C23.0728 16.6941 22.7745 16.3978 22.4065 16.3978H14.8728C14.507 16.3978 14.2088 16.1014 14.2088 15.7334V15.7318C14.2088 15.3661 14.507 15.0675 14.8728 15.0675H22.4065C22.7745 15.0675 23.0728 14.7712 23.0728 14.4035V8.19968C23.0728 7.83392 22.7761 7.53567 22.4084 7.53567H22.4065C22.0388 7.53567 21.7425 7.23744 21.7425 6.86976C21.7425 6.50208 22.0408 6.20576 22.4065 6.20576H25.0648C25.4308 6.20576 25.7291 6.50208 25.7291 6.86976C25.7291 7.23744 25.4324 7.53567 25.0648 7.53567C24.699 7.53567 24.4008 7.832 24.4008 8.19968V23.7101C24.4008 24.0758 24.6971 24.3744 25.0648 24.3744C25.4344 24.3744 25.731 24.6726 25.731 25.0403C25.731 25.4061 25.4344 25.7043 25.0648 25.7043Z" fill="#5E1211"/>
</svg>
