<svg width="290" height="117" viewBox="0 0 290 117" fill="none" xmlns="http://www.w3.org/2000/svg">
<line x1="0.5" y1="117" x2="0.499995" y2="2.18557e-08" stroke="#3A4B6D"/>
<mask id="mask0" mask-type="alpha" maskUnits="userSpaceOnUse" x="0" y="0" width="156" height="117">
<rect width="156" height="117" fill="#C4C4C4"/>
</mask>
<g mask="url(#mask0)">
<path d="M14.5333 41.049L2.50248 16.6506C2.13111 15.8971 1.01113 16.1652 1.01113 17.0079V41.0237C1.01113 41.3497 1.20744 41.6431 1.50598 41.7645L10.3691 45.3593C10.6613 45.4783 10.9955 45.4086 11.2181 45.1827L14.3858 41.9705C14.6255 41.7278 14.6848 41.3565 14.5333 41.049ZM14.5333 99.4657L2.50248 75.0673C2.13111 74.3138 1.01113 74.5818 1.01113 75.4241V99.4399C1.01113 99.7663 1.20744 100.06 1.50598 100.181L10.3691 103.776C10.6613 103.895 10.9955 103.825 11.2181 103.599L14.3858 100.387C14.6255 100.144 14.6848 99.7731 14.5333 99.4657ZM14.5333 157.882L2.50248 133.483C2.13111 132.73 1.01113 132.998 1.01113 133.841V157.856C1.01113 158.183 1.20744 158.476 1.50598 158.598L10.3691 162.193C10.6613 162.311 10.9955 162.241 11.2181 162.016L14.3858 158.804C14.6255 158.561 14.6848 158.189 14.5333 157.882ZM14.5333 216.299L2.50248 191.9C2.13111 191.147 1.01113 191.415 1.01113 192.257V216.273C1.01113 216.6 1.20744 216.893 1.50598 217.014L10.3691 220.609C10.6613 220.727 10.9955 220.658 11.2181 220.432L14.3858 217.22C14.6255 216.977 14.6848 216.606 14.5333 216.299ZM13.1138 -12.5575L1.08305 11.8409C0.931517 12.1484 0.991225 12.5192 1.23051 12.7624L4.39822 15.9746C4.62077 16.2001 4.95459 16.2698 5.24726 16.1512L14.1099 12.5564C14.4093 12.435 14.6047 12.1416 14.6047 11.8151V-12.2007C14.6047 -13.0429 13.4852 -13.311 13.1138 -12.5575ZM30.095 11.8409L18.0642 -12.5575C17.6928 -13.311 16.5728 -13.0429 16.5728 -12.2007V11.8151C16.5728 12.1416 16.7687 12.435 17.0682 12.5564L25.9308 16.1512C26.2234 16.2698 26.5573 16.2001 26.7798 15.9746L29.9475 12.7624C30.1868 12.5192 30.2465 12.1484 30.095 11.8409ZM28.6756 16.6506L16.6448 41.0495C16.4932 41.3565 16.5525 41.7278 16.7922 41.9705L19.9599 45.1827C20.1825 45.4086 20.5168 45.4784 20.809 45.3597L29.6721 41.7645C29.9706 41.6436 30.1669 41.3497 30.1669 41.0237V17.0079C30.1669 16.1657 29.0469 15.8971 28.6756 16.6506ZM45.6567 41.0495L33.6259 16.6506C33.2546 15.8971 32.1346 16.1657 32.1346 17.0079V41.0237C32.1346 41.3497 32.3309 41.6436 32.6294 41.7645L41.4925 45.3597C41.7847 45.4784 42.119 45.4086 42.3415 45.1827L45.5092 41.9705C45.749 41.7278 45.8082 41.3565 45.6567 41.0495ZM13.1138 45.8592L1.08305 70.2576C0.931517 70.565 0.991225 70.9359 1.23051 71.179L4.39822 74.3912C4.62077 74.6167 4.95459 74.6865 5.24726 74.5678L14.1099 70.973C14.4093 70.8517 14.6047 70.5582 14.6047 70.2318V46.216C14.6047 45.3738 13.4852 45.1057 13.1138 45.8592ZM30.095 70.2576L18.0642 45.8592C17.6928 45.1057 16.5728 45.3738 16.5728 46.216V70.2318C16.5728 70.5582 16.7687 70.8517 17.0682 70.973L25.9308 74.5678C26.2234 74.6865 26.5573 74.6167 26.7798 74.3912L29.9475 71.179C30.1868 70.9359 30.2465 70.565 30.095 70.2576ZM28.6756 75.0673L16.6448 99.4657C16.4932 99.7731 16.5525 100.144 16.7922 100.387L19.9599 103.599C20.1825 103.825 20.5168 103.895 20.809 103.776L29.6721 100.181C29.9706 100.06 30.1669 99.7663 30.1669 99.4399V75.4241C30.1669 74.5818 29.0469 74.3138 28.6756 75.0673ZM45.6567 99.4657L33.6259 75.0673C33.2546 74.3138 32.1346 74.5818 32.1346 75.4241V99.4399C32.1346 99.7663 32.3309 100.06 32.6294 100.181L41.4925 103.776C41.7847 103.895 42.119 103.825 42.3415 103.599L45.5092 100.387C45.749 100.144 45.8082 99.7731 45.6567 99.4657ZM13.1138 104.275L1.08305 128.674C0.931517 128.982 0.991225 129.353 1.23051 129.596L4.39822 132.807C4.62077 133.033 4.95459 133.103 5.24726 132.984L14.1099 129.389C14.4093 129.268 14.6047 128.974 14.6047 128.648V104.633C14.6047 103.79 13.4852 103.522 13.1138 104.275ZM30.095 128.674L18.0642 104.275C17.6928 103.522 16.5728 103.79 16.5728 104.633V128.648C16.5728 128.974 16.7687 129.268 17.0682 129.389L25.9308 132.984C26.2234 133.103 26.5573 133.033 26.7798 132.807L29.9475 129.596C30.1868 129.353 30.2465 128.982 30.095 128.674ZM28.6756 133.484L16.6448 157.882C16.4932 158.19 16.5525 158.561 16.7922 158.804L19.9599 162.016C20.1825 162.242 20.5168 162.311 20.809 162.193L29.6721 158.598C29.9706 158.476 30.1669 158.183 30.1669 157.856V133.841C30.1669 132.998 29.0469 132.73 28.6756 133.484ZM45.6567 157.882L33.6259 133.484C33.2546 132.73 32.1346 132.998 32.1346 133.841V157.856C32.1346 158.183 32.3309 158.476 32.6294 158.598L41.4925 162.193C41.7847 162.311 42.119 162.242 42.3415 162.016L45.5092 158.804C45.749 158.561 45.8082 158.19 45.6567 157.882ZM13.1138 162.692L1.08305 187.091C0.931517 187.398 0.991225 187.769 1.23051 188.012L4.39822 191.224C4.62077 191.45 4.95459 191.519 5.24726 191.401L14.1099 187.806C14.4093 187.685 14.6047 187.391 14.6047 187.065V163.049C14.6047 162.207 13.4852 161.939 13.1138 162.692ZM30.095 187.091L18.0642 162.692C17.6928 161.939 16.5728 162.207 16.5728 163.049V187.065C16.5728 187.391 16.7687 187.685 17.0682 187.806L25.9308 191.401C26.2234 191.519 26.5573 191.45 26.7798 191.224L29.9475 188.012C30.1868 187.769 30.2465 187.398 30.095 187.091ZM44.2368 -12.5575L32.2065 11.8409C32.055 12.1484 32.1142 12.5197 32.3535 12.7628L35.5217 15.9746C35.7442 16.2005 36.078 16.2698 36.3702 16.1512L45.2333 12.5564C45.5323 12.435 45.7282 12.1416 45.7282 11.8151V-12.2002C45.7282 -13.0429 44.6086 -13.311 44.2368 -12.5575ZM61.2184 11.8409L49.1876 -12.5575C48.8163 -13.311 47.6963 -13.0429 47.6963 -12.2002V11.8151C47.6963 12.1416 47.8922 12.435 48.1911 12.5564L57.0542 16.1512C57.3464 16.2698 57.6803 16.2005 57.9033 15.9746L61.071 12.7628C61.3103 12.5197 61.37 12.1484 61.2184 11.8409ZM59.7985 16.6506L47.7682 41.0495C47.6162 41.3565 47.6759 41.7278 47.9157 41.9709L51.0829 45.1831C51.3059 45.4086 51.6398 45.4784 51.932 45.3597L60.795 41.7649C61.094 41.6436 61.2899 41.3501 61.2899 41.0237V17.0079C61.2899 16.1657 60.1704 15.8976 59.7985 16.6506ZM76.7801 41.0495L64.7494 16.6506C64.3775 15.8976 63.258 16.1657 63.258 17.0079V41.0237C63.258 41.3501 63.4539 41.6436 63.7529 41.7649L72.6159 45.3597C72.9082 45.4784 73.242 45.4086 73.4645 45.1831L76.6327 41.9709C76.872 41.7278 76.9317 41.3565 76.7801 41.0495ZM44.2368 45.8592L32.2065 70.2576C32.055 70.565 32.1142 70.9363 32.3535 71.179L35.5217 74.3912C35.7442 74.6172 36.078 74.6865 36.3702 74.5678L45.2333 70.973C45.5323 70.8517 45.7282 70.5582 45.7282 70.2318V46.216C45.7282 45.3738 44.6086 45.1057 44.2368 45.8592ZM61.2184 70.2576L49.1876 45.8592C48.8163 45.1057 47.6963 45.3738 47.6963 46.216V70.2318C47.6963 70.5582 47.8922 70.8517 48.1911 70.973L57.0542 74.5678C57.3464 74.6865 57.6803 74.6172 57.9033 74.3912L61.071 71.179C61.3103 70.9363 61.37 70.565 61.2184 70.2576ZM59.7985 75.0673L47.7682 99.4661C47.6162 99.7731 47.6759 100.144 47.9157 100.388L51.0829 103.599C51.3059 103.825 51.6398 103.895 51.932 103.776L60.795 100.182C61.094 100.06 61.2899 99.7668 61.2899 99.4403V75.4245C61.2899 74.5819 60.1704 74.3142 59.7985 75.0673ZM76.7801 99.4661L64.7494 75.0673C64.3775 74.3142 63.258 74.5819 63.258 75.4245V99.4403C63.258 99.7668 63.4539 100.06 63.7529 100.182L72.6159 103.776C72.9082 103.895 73.242 103.825 73.4645 103.599L76.6327 100.388C76.872 100.144 76.9317 99.7731 76.7801 99.4661ZM44.2368 104.276L32.2065 128.674C32.055 128.982 32.1142 129.353 32.3535 129.596L35.5217 132.808C35.7442 133.033 36.078 133.103 36.3702 132.984L45.2333 129.389C45.5323 129.268 45.7282 128.975 45.7282 128.648V104.633C45.7282 103.79 44.6086 103.522 44.2368 104.276ZM61.2184 128.674L49.1876 104.276C48.8163 103.522 47.6963 103.79 47.6963 104.633V128.648C47.6963 128.975 47.8922 129.268 48.1911 129.389L57.0542 132.984C57.3464 133.103 57.6803 133.033 57.9033 132.808L61.071 129.596C61.3103 129.353 61.37 128.982 61.2184 128.674ZM59.7985 133.484L47.7682 157.883C47.6162 158.19 47.6759 158.561 47.9157 158.804L51.0829 162.016C51.3059 162.242 51.6398 162.311 51.932 162.193L60.795 158.598C61.094 158.476 61.2899 158.183 61.2899 157.857V133.841C61.2899 132.998 60.1704 132.73 59.7985 133.484ZM76.7801 157.883L64.7494 133.484C64.3775 132.73 63.258 132.998 63.258 133.841V157.857C63.258 158.183 63.4539 158.476 63.7529 158.598L72.6159 162.193C72.9082 162.311 73.242 162.242 73.4645 162.016L76.6327 158.804C76.872 158.561 76.9317 158.19 76.7801 157.883ZM44.2368 162.692L32.2065 187.091C32.055 187.398 32.1142 187.769 32.3535 188.012L35.5217 191.225C35.7442 191.45 36.078 191.519 36.3702 191.401L45.2333 187.806C45.5323 187.685 45.7282 187.392 45.7282 187.065V163.049C45.7282 162.207 44.6086 161.939 44.2368 162.692ZM61.2184 187.091L49.1876 162.692C48.8163 161.939 47.6963 162.207 47.6963 163.049V187.065C47.6963 187.392 47.8922 187.685 48.1911 187.806L57.0542 191.401C57.3464 191.519 57.6803 191.45 57.9033 191.225L61.071 188.012C61.3103 187.769 61.37 187.398 61.2184 187.091ZM75.3603 -12.557L63.3295 11.8414C63.1784 12.1488 63.2377 12.5197 63.4769 12.7628L66.6447 15.9746C66.8677 16.2005 67.2015 16.2703 67.4937 16.1516L76.3568 12.5564C76.6558 12.4355 76.8516 12.1416 76.8516 11.8156V-12.2002C76.8516 -13.0424 75.7316 -13.3109 75.3603 -12.557ZM92.3414 11.8414L80.3106 -12.557C79.9393 -13.3109 78.8197 -13.0424 78.8197 -12.2002V11.8156C78.8197 12.1416 79.0156 12.4355 79.3146 12.5564L88.1777 16.1516C88.4699 16.2703 88.8037 16.2005 89.0267 15.9746L92.194 12.7628C92.4337 12.5197 92.493 12.1488 92.3414 11.8414ZM90.922 16.6511L78.8912 41.0495C78.7397 41.3569 78.7994 41.7282 79.0387 41.9709L82.2064 45.1831C82.4289 45.4091 82.7632 45.4784 83.0554 45.3597L91.9185 41.7649C92.2175 41.6436 92.4133 41.3501 92.4133 41.0237V17.0083C92.4133 16.1657 91.2938 15.8976 90.922 16.6511ZM107.903 41.0495L95.8724 16.6511C95.501 15.8976 94.3815 16.1657 94.3815 17.0083V41.0237C94.3815 41.3501 94.5773 41.6436 94.8759 41.7649L103.739 45.3597C104.032 45.4784 104.365 45.4091 104.588 45.1831L107.756 41.9709C107.995 41.7282 108.055 41.3569 107.903 41.0495ZM75.3603 45.8592L63.3295 70.258C63.1784 70.565 63.2377 70.9363 63.4769 71.179L66.6447 74.3912C66.8677 74.6172 67.2015 74.6865 67.4937 74.5678L76.3568 70.973C76.6558 70.8521 76.8516 70.5582 76.8516 70.2318V46.216C76.8516 45.3738 75.7316 45.1057 75.3603 45.8592ZM92.3414 70.258L80.3106 45.8592C79.9393 45.1057 78.8197 45.3738 78.8197 46.216V70.2318C78.8197 70.5582 79.0156 70.8521 79.3146 70.973L88.1777 74.5678C88.4699 74.6865 88.8037 74.6172 89.0267 74.3912L92.194 71.179C92.4337 70.9363 92.493 70.565 92.3414 70.258ZM90.922 75.0677L78.8912 99.4661C78.7397 99.7736 78.7994 100.145 79.0387 100.388L82.2064 103.6C82.4289 103.825 82.7632 103.895 83.0554 103.776L91.9185 100.182C92.2175 100.06 92.4133 99.7668 92.4133 99.4403V75.4245C92.4133 74.5823 91.2938 74.3142 90.922 75.0677ZM107.903 99.4661L95.8724 75.0677C95.501 74.3142 94.3815 74.5823 94.3815 75.4245V99.4403C94.3815 99.7668 94.5773 100.06 94.8759 100.182L103.739 103.776C104.032 103.895 104.365 103.825 104.588 103.6L107.756 100.388C107.995 100.145 108.055 99.7736 107.903 99.4661ZM75.3603 104.276L63.3295 128.674C63.1784 128.982 63.2377 129.353 63.4769 129.596L66.6447 132.808C66.8677 133.033 67.2015 133.103 67.4937 132.984L76.3568 129.39C76.6558 129.268 76.8516 128.975 76.8516 128.648V104.633C76.8516 103.79 75.7316 103.522 75.3603 104.276ZM92.3414 128.674L80.3106 104.276C79.9393 103.522 78.8197 103.79 78.8197 104.633V128.648C78.8197 128.975 79.0156 129.268 79.3146 129.39L88.1777 132.984C88.4699 133.103 88.8037 133.033 89.0267 132.808L92.194 129.596C92.4337 129.353 92.493 128.982 92.3414 128.674ZM90.922 133.484L78.8912 157.883C78.7397 158.19 78.7994 158.561 79.0387 158.804L82.2064 162.016C82.4289 162.242 82.7632 162.311 83.0554 162.193L91.9185 158.598C92.2175 158.477 92.4133 158.183 92.4133 157.857V133.841C92.4133 132.999 91.2938 132.73 90.922 133.484ZM107.903 157.883L95.8724 133.484C95.501 132.73 94.3815 132.999 94.3815 133.841V157.857C94.3815 158.183 94.5773 158.477 94.8759 158.598L103.739 162.193C104.032 162.311 104.365 162.242 104.588 162.016L107.756 158.804C107.995 158.561 108.055 158.19 107.903 157.883ZM75.3603 162.692L63.3295 187.091C63.1784 187.398 63.2377 187.769 63.4769 188.012L66.6447 191.225C66.8677 191.45 67.2015 191.52 67.4937 191.401L76.3568 187.806C76.6558 187.685 76.8516 187.392 76.8516 187.065V163.049C76.8516 162.207 75.7316 161.939 75.3603 162.692ZM92.3414 187.091L80.3106 162.692C79.9393 161.939 78.8197 162.207 78.8197 163.049V187.065C78.8197 187.392 79.0156 187.685 79.3146 187.806L88.1777 191.401C88.4699 191.52 88.8037 191.45 89.0267 191.225L92.194 188.012C92.4337 187.769 92.493 187.398 92.3414 187.091ZM106.484 -12.557L94.4529 11.8414C94.3014 12.1488 94.3611 12.5197 94.6004 12.7628L97.7681 15.975C97.9906 16.2005 98.3249 16.2703 98.6171 16.1516L107.48 12.5564C107.779 12.4355 107.975 12.1421 107.975 11.8156V-12.2002C107.975 -13.0424 106.855 -13.3105 106.484 -12.557ZM123.465 11.8414L111.434 -12.557C111.063 -13.3105 109.943 -13.0424 109.943 -12.2002V11.8156C109.943 12.1421 110.139 12.4355 110.438 12.5564L119.301 16.1516C119.593 16.2703 119.927 16.2005 120.15 15.975L123.317 12.7628C123.557 12.5197 123.616 12.1488 123.465 11.8414ZM122.045 16.6511L110.015 41.0499C109.863 41.3569 109.922 41.7282 110.162 41.9709L113.33 45.1831C113.552 45.4091 113.887 45.4784 114.179 45.3597L123.042 41.7649C123.34 41.6436 123.537 41.3501 123.537 41.0241V17.0083C123.537 16.1657 122.417 15.8976 122.045 16.6511ZM139.027 41.0499L126.996 16.6511C126.624 15.8976 125.504 16.1657 125.504 17.0083V41.0241C125.504 41.3501 125.7 41.6436 125.999 41.7649L134.862 45.3597C135.155 45.4784 135.489 45.4091 135.711 45.1831L138.879 41.9709C139.119 41.7282 139.178 41.3569 139.027 41.0499ZM106.484 45.8592L94.4529 70.258C94.3014 70.565 94.3611 70.9363 94.6004 71.1795L97.7681 74.3917C97.9906 74.6172 98.3249 74.6864 98.6171 74.5683L107.48 70.9735C107.779 70.8521 107.975 70.5587 107.975 70.2318V46.2164C107.975 45.3742 106.855 45.1061 106.484 45.8592ZM123.465 70.258L111.434 45.8592C111.063 45.1061 109.943 45.3742 109.943 46.2164V70.2318C109.943 70.5587 110.139 70.8521 110.438 70.9735L119.301 74.5683C119.593 74.6864 119.927 74.6172 120.15 74.3917L123.317 71.1795C123.557 70.9363 123.616 70.565 123.465 70.258ZM122.045 75.0677L110.015 99.4661C109.863 99.7736 109.922 100.145 110.162 100.388L113.33 103.6C113.552 103.825 113.887 103.895 114.179 103.776L123.042 100.182C123.34 100.06 123.537 99.7668 123.537 99.4403V75.4245C123.537 74.5823 122.417 74.3142 122.045 75.0677ZM139.027 99.4661L126.996 75.0677C126.624 74.3142 125.504 74.5823 125.504 75.4245V99.4403C125.504 99.7668 125.7 100.06 125.999 100.182L134.862 103.776C135.155 103.895 135.489 103.825 135.711 103.6L138.879 100.388C139.119 100.145 139.178 99.7736 139.027 99.4661ZM106.484 104.276L94.4529 128.674C94.3014 128.982 94.3611 129.353 94.6004 129.596L97.7681 132.808C97.9906 133.034 98.3249 133.103 98.6171 132.984L107.48 129.39C107.779 129.268 107.975 128.975 107.975 128.649V104.633C107.975 103.79 106.855 103.522 106.484 104.276ZM123.465 128.674L111.434 104.276C111.063 103.522 109.943 103.79 109.943 104.633V128.649C109.943 128.975 110.139 129.268 110.438 129.39L119.301 132.984C119.593 133.103 119.927 133.034 120.15 132.808L123.317 129.596C123.557 129.353 123.616 128.982 123.465 128.674ZM122.045 133.484L110.015 157.883C109.863 158.19 109.922 158.561 110.162 158.804L113.33 162.016C113.552 162.242 113.887 162.312 114.179 162.193L123.042 158.598C123.34 158.477 123.537 158.183 123.537 157.857V133.841C123.537 132.999 122.417 132.731 122.045 133.484ZM139.027 157.883L126.996 133.484C126.624 132.731 125.504 132.999 125.504 133.841V157.857C125.504 158.183 125.7 158.477 125.999 158.598L134.862 162.193C135.155 162.312 135.489 162.242 135.711 162.016L138.879 158.804C139.119 158.561 139.178 158.19 139.027 157.883ZM106.484 162.692L94.4529 187.091C94.3014 187.398 94.3611 187.77 94.6004 188.012L97.7681 191.225C97.9906 191.45 98.3249 191.52 98.6171 191.401L107.48 187.806C107.779 187.685 107.975 187.392 107.975 187.065V163.049C107.975 162.207 106.855 161.939 106.484 162.692ZM123.465 187.091L111.434 162.692C111.063 161.939 109.943 162.207 109.943 163.049V187.065C109.943 187.392 110.139 187.685 110.438 187.806L119.301 191.401C119.593 191.52 119.927 191.45 120.15 191.225L123.317 188.012C123.557 187.77 123.616 187.398 123.465 187.091ZM137.607 -12.557L125.576 11.8414C125.425 12.1488 125.484 12.5201 125.724 12.7628L128.892 15.975C129.114 16.201 129.448 16.2703 129.741 16.1516L138.604 12.5568C138.902 12.4355 139.098 12.1421 139.098 11.8156V-12.2002C139.098 -13.0424 137.979 -13.3105 137.607 -12.557ZM154.588 11.8414L142.558 -12.557C142.186 -13.3105 141.066 -13.0424 141.066 -12.2002V11.8156C141.066 12.1421 141.262 12.4355 141.561 12.5568L150.424 16.1516C150.716 16.2703 151.051 16.201 151.273 15.975L154.441 12.7628C154.681 12.5201 154.74 12.1488 154.588 11.8414ZM153.169 16.6511L141.138 41.0499C140.987 41.3569 141.046 41.7282 141.286 41.9714L144.453 45.1831C144.676 45.4091 145.01 45.4784 145.302 45.3602L154.165 41.7649C154.464 41.644 154.66 41.3506 154.66 41.0241V17.0083C154.66 16.1661 153.54 15.8976 153.169 16.6511ZM137.607 45.8596L125.576 70.258C125.425 70.5655 125.484 70.9363 125.724 71.1795L128.892 74.3917C129.114 74.6172 129.448 74.6869 129.741 74.5683L138.604 70.9735C138.902 70.8521 139.098 70.5587 139.098 70.2322V46.2164C139.098 45.3742 137.979 45.1062 137.607 45.8596ZM154.588 70.258L142.558 45.8596C142.186 45.1062 141.066 45.3742 141.066 46.2164V70.2322C141.066 70.5587 141.262 70.8521 141.561 70.9735L150.424 74.5683C150.716 74.6869 151.051 74.6172 151.273 74.3917L154.441 71.1795C154.681 70.9363 154.74 70.5655 154.588 70.258ZM153.169 75.0677L141.138 99.4661C140.987 99.7736 141.046 100.145 141.286 100.388L144.453 103.6C144.676 103.826 145.01 103.895 145.302 103.777L154.165 100.182C154.464 100.06 154.66 99.7668 154.66 99.4403V75.4245C154.66 74.5823 153.54 74.3147 153.169 75.0677ZM137.607 104.276L125.576 128.675C125.425 128.982 125.484 129.353 125.724 129.596L128.892 132.808C129.114 133.034 129.448 133.104 129.741 132.985L138.604 129.39C138.902 129.269 139.098 128.975 139.098 128.649V104.633C139.098 103.791 137.979 103.522 137.607 104.276ZM154.588 128.675L142.558 104.276C142.186 103.522 141.066 103.791 141.066 104.633V128.649C141.066 128.975 141.262 129.269 141.561 129.39L150.424 132.985C150.716 133.104 151.051 133.034 151.273 132.808L154.441 129.596C154.681 129.353 154.74 128.982 154.588 128.675ZM153.169 133.484L141.138 157.883C140.987 158.19 141.046 158.562 141.286 158.804L144.453 162.016C144.676 162.242 145.01 162.312 145.302 162.193L154.165 158.598C154.464 158.477 154.66 158.183 154.66 157.857V133.841C154.66 132.999 153.54 132.731 153.169 133.484ZM137.607 162.692L125.576 187.091C125.425 187.398 125.484 187.77 125.724 188.012L128.892 191.225C129.114 191.45 129.448 191.52 129.741 191.402L138.604 187.806C138.902 187.685 139.098 187.392 139.098 187.065V163.049C139.098 162.207 137.979 161.939 137.607 162.692ZM154.588 187.091L142.558 162.692C142.186 161.939 141.066 162.207 141.066 163.049V187.065C141.066 187.392 141.262 187.685 141.561 187.806L150.424 191.402C150.716 191.52 151.051 191.45 151.273 191.225L154.441 188.012C154.681 187.77 154.74 187.398 154.588 187.091ZM14.5333 274.715L2.50248 250.317C2.13111 249.563 1.01113 249.831 1.01113 250.674V274.69C1.01113 275.016 1.20744 275.309 1.50598 275.431L10.3691 279.025C10.6613 279.144 10.9955 279.075 11.2181 278.849L14.3858 275.637C14.6255 275.394 14.6848 275.023 14.5333 274.715ZM28.6756 191.901L16.6448 216.299C16.4932 216.606 16.5525 216.978 16.7922 217.22L19.9599 220.432C20.1825 220.658 20.5168 220.728 20.809 220.609L29.6721 217.014C29.9706 216.893 30.1669 216.6 30.1669 216.273V192.257C30.1669 191.415 29.0469 191.147 28.6756 191.901ZM45.6567 216.299L33.6259 191.901C33.2546 191.147 32.1346 191.415 32.1346 192.257V216.273C32.1346 216.6 32.3309 216.893 32.6294 217.014L41.4925 220.609C41.7847 220.728 42.119 220.658 42.3415 220.432L45.5092 217.22C45.749 216.978 45.8082 216.606 45.6567 216.299ZM13.1138 221.109L1.08305 245.507C0.931517 245.814 0.991225 246.185 1.23051 246.429L4.39822 249.641C4.62077 249.866 4.95459 249.936 5.24726 249.817L14.1099 246.222C14.4093 246.101 14.6047 245.808 14.6047 245.481V221.465C14.6047 220.623 13.4852 220.355 13.1138 221.109ZM30.095 245.507L18.0642 221.109C17.6928 220.355 16.5728 220.623 16.5728 221.465V245.481C16.5728 245.808 16.7687 246.101 17.0682 246.222L25.9308 249.817C26.2234 249.936 26.5573 249.866 26.7798 249.641L29.9475 246.429C30.1868 246.185 30.2465 245.814 30.095 245.507ZM28.6756 250.317L16.6448 274.716C16.4932 275.023 16.5525 275.394 16.7922 275.637L19.9599 278.849C20.1825 279.075 20.5168 279.144 20.809 279.026L29.6721 275.431C29.9706 275.31 30.1669 275.016 30.1669 274.69V250.674C30.1669 249.832 29.0469 249.563 28.6756 250.317ZM45.6567 274.716L33.6259 250.317C33.2546 249.563 32.1346 249.832 32.1346 250.674V274.69C32.1346 275.016 32.3309 275.31 32.6294 275.431L41.4925 279.026C41.7847 279.144 42.119 279.075 42.3415 278.849L45.5092 275.637C45.749 275.394 45.8082 275.023 45.6567 274.716ZM59.7985 191.901L47.7682 216.299C47.6162 216.606 47.6759 216.978 47.9157 217.22L51.0829 220.433C51.3059 220.658 51.6398 220.728 51.932 220.609L60.795 217.014C61.094 216.893 61.2899 216.6 61.2899 216.273V192.257C61.2899 191.415 60.1704 191.147 59.7985 191.901ZM76.7801 216.299L64.7494 191.901C64.3775 191.147 63.258 191.415 63.258 192.257V216.273C63.258 216.6 63.4539 216.893 63.7529 217.014L72.6159 220.609C72.9082 220.728 73.242 220.658 73.4645 220.433L76.6327 217.22C76.872 216.978 76.9317 216.606 76.7801 216.299ZM44.2368 221.109L32.2065 245.507C32.055 245.814 32.1142 246.186 32.3535 246.429L35.5217 249.641C35.7442 249.867 36.078 249.936 36.3702 249.817L45.2333 246.222C45.5323 246.101 45.7282 245.808 45.7282 245.481V221.466C45.7282 220.623 44.6086 220.355 44.2368 221.109ZM61.2184 245.507L49.1876 221.109C48.8163 220.355 47.6963 220.623 47.6963 221.466V245.481C47.6963 245.808 47.8922 246.101 48.1911 246.222L57.0542 249.817C57.3464 249.936 57.6803 249.867 57.9033 249.641L61.071 246.429C61.3103 246.186 61.37 245.814 61.2184 245.507ZM59.7985 250.317L47.7682 274.716C47.6162 275.023 47.6759 275.394 47.9157 275.637L51.0829 278.849C51.3059 279.075 51.6398 279.144 51.932 279.026L60.795 275.431C61.094 275.31 61.2899 275.016 61.2899 274.69V250.674C61.2899 249.832 60.1704 249.564 59.7985 250.317ZM76.7801 274.716L64.7494 250.317C64.3775 249.564 63.258 249.832 63.258 250.674V274.69C63.258 275.016 63.4539 275.31 63.7529 275.431L72.6159 279.026C72.9082 279.144 73.242 279.075 73.4645 278.849L76.6327 275.637C76.872 275.394 76.9317 275.023 76.7801 274.716ZM90.922 191.901L78.8912 216.299C78.7397 216.606 78.7994 216.978 79.0387 217.22L82.2064 220.433C82.4289 220.659 82.7632 220.728 83.0554 220.609L91.9185 217.014C92.2175 216.893 92.4133 216.6 92.4133 216.273V192.257C92.4133 191.415 91.2938 191.147 90.922 191.901ZM107.903 216.299L95.8724 191.901C95.501 191.147 94.3815 191.415 94.3815 192.257V216.273C94.3815 216.6 94.5773 216.893 94.8759 217.014L103.739 220.609C104.032 220.728 104.365 220.659 104.588 220.433L107.756 217.22C107.995 216.978 108.055 216.606 107.903 216.299ZM122.045 191.901L110.015 216.299C109.863 216.606 109.922 216.978 110.162 217.221L113.33 220.433C113.552 220.659 113.887 220.728 114.179 220.609L123.042 217.015C123.34 216.893 123.537 216.6 123.537 216.274V192.258C123.537 191.415 122.417 191.148 122.045 191.901ZM139.027 216.299L126.996 191.901C126.624 191.148 125.504 191.415 125.504 192.258V216.274C125.504 216.6 125.7 216.893 125.999 217.015L134.862 220.609C135.155 220.728 135.489 220.659 135.711 220.433L138.879 217.221C139.119 216.978 139.178 216.606 139.027 216.299ZM75.3603 221.109L63.3295 245.508C63.1784 245.815 63.2377 246.186 63.4769 246.429L66.6447 249.641C66.8677 249.867 67.2015 249.936 67.4937 249.817L76.3568 246.222C76.6558 246.102 76.8516 245.808 76.8516 245.482V221.466C76.8516 220.623 75.7316 220.355 75.3603 221.109ZM92.3414 245.508L80.3106 221.109C79.9393 220.355 78.8197 220.623 78.8197 221.466V245.482C78.8197 245.808 79.0156 246.102 79.3146 246.222L88.1777 249.817C88.4699 249.936 88.8037 249.867 89.0267 249.641L92.194 246.429C92.4337 246.186 92.493 245.815 92.3414 245.508ZM90.922 250.317L78.8912 274.716C78.7397 275.023 78.7994 275.394 79.0387 275.637L82.2064 278.849C82.4289 279.075 82.7632 279.144 83.0554 279.026L91.9185 275.431C92.2175 275.31 92.4133 275.016 92.4133 274.69V250.674C92.4133 249.832 91.2938 249.564 90.922 250.317ZM107.903 274.716L95.8724 250.317C95.501 249.564 94.3815 249.832 94.3815 250.674V274.69C94.3815 275.016 94.5773 275.31 94.8759 275.431L103.739 279.026C104.032 279.144 104.365 279.075 104.588 278.849L107.756 275.637C107.995 275.394 108.055 275.023 107.903 274.716ZM106.484 221.109L94.4529 245.508C94.3014 245.815 94.3611 246.186 94.6004 246.429L97.7681 249.641C97.9906 249.867 98.3249 249.936 98.6171 249.818L107.48 246.223C107.779 246.102 107.975 245.808 107.975 245.482V221.466C107.975 220.624 106.855 220.356 106.484 221.109ZM123.465 245.508L111.434 221.109C111.063 220.356 109.943 220.624 109.943 221.466V245.482C109.943 245.808 110.139 246.102 110.438 246.223L119.301 249.818C119.593 249.936 119.927 249.867 120.15 249.641L123.317 246.429C123.557 246.186 123.616 245.815 123.465 245.508ZM122.045 250.317L110.015 274.716C109.863 275.023 109.922 275.394 110.162 275.637L113.33 278.849C113.552 279.075 113.887 279.144 114.179 279.026L123.042 275.431C123.34 275.31 123.537 275.016 123.537 274.69V250.674C123.537 249.832 122.417 249.564 122.045 250.317ZM139.027 274.716L126.996 250.317C126.624 249.564 125.504 249.832 125.504 250.674V274.69C125.504 275.016 125.7 275.31 125.999 275.431L134.862 279.026C135.155 279.144 135.489 279.075 135.711 278.849L138.879 275.637C139.119 275.394 139.178 275.023 139.027 274.716ZM153.169 191.901L141.138 216.299C140.987 216.607 141.046 216.978 141.286 217.221L144.453 220.433C144.676 220.659 145.01 220.728 145.302 220.61L154.165 217.015C154.464 216.893 154.66 216.6 154.66 216.274V192.258C154.66 191.416 153.54 191.148 153.169 191.901ZM137.607 221.109L125.576 245.508C125.425 245.815 125.484 246.186 125.724 246.429L128.892 249.641C129.114 249.867 129.448 249.936 129.741 249.818L138.604 246.223C138.902 246.102 139.098 245.808 139.098 245.482V221.466C139.098 220.624 137.979 220.356 137.607 221.109ZM154.588 245.508L142.558 221.109C142.186 220.356 141.066 220.624 141.066 221.466V245.482C141.066 245.808 141.262 246.102 141.561 246.223L150.424 249.818C150.716 249.936 151.051 249.867 151.273 249.641L154.441 246.429C154.681 246.186 154.74 245.815 154.588 245.508ZM153.169 250.317L141.138 274.716C140.987 275.023 141.046 275.394 141.286 275.637L144.453 278.85C144.676 279.075 145.01 279.144 145.302 279.026L154.165 275.431C154.464 275.31 154.66 275.016 154.66 274.69V250.674C154.66 249.832 153.54 249.564 153.169 250.317Z" stroke="#3A4B6D" stroke-miterlimit="10"/>
</g>
<mask id="mask1" mask-type="alpha" maskUnits="userSpaceOnUse" x="156" y="0" width="134" height="117">
<rect x="156" width="134" height="117" fill="#C4C4C4"/>
</mask>
<g mask="url(#mask1)">
<path d="M170.533 41.049L158.502 16.6506C158.131 15.8971 157.011 16.1652 157.011 17.0079V41.0237C157.011 41.3497 157.207 41.6431 157.506 41.7645L166.369 45.3593C166.661 45.4783 166.996 45.4086 167.218 45.1827L170.386 41.9705C170.626 41.7278 170.685 41.3565 170.533 41.049ZM170.533 99.4657L158.502 75.0673C158.131 74.3138 157.011 74.5818 157.011 75.4241V99.4399C157.011 99.7663 157.207 100.06 157.506 100.181L166.369 103.776C166.661 103.895 166.996 103.825 167.218 103.599L170.386 100.387C170.626 100.144 170.685 99.7731 170.533 99.4657ZM170.533 157.882L158.502 133.483C158.131 132.73 157.011 132.998 157.011 133.841V157.856C157.011 158.183 157.207 158.476 157.506 158.598L166.369 162.193C166.661 162.311 166.996 162.241 167.218 162.016L170.386 158.804C170.626 158.561 170.685 158.189 170.533 157.882ZM170.533 216.299L158.502 191.9C158.131 191.147 157.011 191.415 157.011 192.257V216.273C157.011 216.6 157.207 216.893 157.506 217.014L166.369 220.609C166.661 220.727 166.996 220.658 167.218 220.432L170.386 217.22C170.626 216.977 170.685 216.606 170.533 216.299ZM169.114 -12.5575L157.083 11.8409C156.932 12.1484 156.991 12.5192 157.231 12.7624L160.398 15.9746C160.621 16.2001 160.955 16.2698 161.247 16.1512L170.11 12.5564C170.409 12.435 170.605 12.1416 170.605 11.8151V-12.2007C170.605 -13.0429 169.485 -13.311 169.114 -12.5575ZM186.095 11.8409L174.064 -12.5575C173.693 -13.311 172.573 -13.0429 172.573 -12.2007V11.8151C172.573 12.1416 172.769 12.435 173.068 12.5564L181.931 16.1512C182.223 16.2698 182.557 16.2001 182.78 15.9746L185.948 12.7624C186.187 12.5192 186.247 12.1484 186.095 11.8409ZM184.676 16.6506L172.645 41.0495C172.493 41.3565 172.552 41.7278 172.792 41.9705L175.96 45.1827C176.182 45.4086 176.517 45.4784 176.809 45.3597L185.672 41.7645C185.971 41.6436 186.167 41.3497 186.167 41.0237V17.0079C186.167 16.1657 185.047 15.8971 184.676 16.6506ZM201.657 41.0495L189.626 16.6506C189.255 15.8971 188.135 16.1657 188.135 17.0079V41.0237C188.135 41.3497 188.331 41.6436 188.629 41.7645L197.493 45.3597C197.785 45.4784 198.119 45.4086 198.342 45.1827L201.509 41.9705C201.749 41.7278 201.808 41.3565 201.657 41.0495ZM169.114 45.8592L157.083 70.2576C156.932 70.565 156.991 70.9359 157.231 71.179L160.398 74.3912C160.621 74.6167 160.955 74.6865 161.247 74.5678L170.11 70.973C170.409 70.8517 170.605 70.5582 170.605 70.2318V46.216C170.605 45.3738 169.485 45.1057 169.114 45.8592ZM186.095 70.2576L174.064 45.8592C173.693 45.1057 172.573 45.3738 172.573 46.216V70.2318C172.573 70.5582 172.769 70.8517 173.068 70.973L181.931 74.5678C182.223 74.6865 182.557 74.6167 182.78 74.3912L185.948 71.179C186.187 70.9359 186.247 70.565 186.095 70.2576ZM184.676 75.0673L172.645 99.4657C172.493 99.7731 172.552 100.144 172.792 100.387L175.96 103.599C176.182 103.825 176.517 103.895 176.809 103.776L185.672 100.181C185.971 100.06 186.167 99.7663 186.167 99.4399V75.4241C186.167 74.5818 185.047 74.3138 184.676 75.0673ZM201.657 99.4657L189.626 75.0673C189.255 74.3138 188.135 74.5818 188.135 75.4241V99.4399C188.135 99.7663 188.331 100.06 188.629 100.181L197.493 103.776C197.785 103.895 198.119 103.825 198.342 103.599L201.509 100.387C201.749 100.144 201.808 99.7731 201.657 99.4657ZM169.114 104.275L157.083 128.674C156.932 128.982 156.991 129.353 157.231 129.596L160.398 132.807C160.621 133.033 160.955 133.103 161.247 132.984L170.11 129.389C170.409 129.268 170.605 128.974 170.605 128.648V104.633C170.605 103.79 169.485 103.522 169.114 104.275ZM186.095 128.674L174.064 104.275C173.693 103.522 172.573 103.79 172.573 104.633V128.648C172.573 128.974 172.769 129.268 173.068 129.389L181.931 132.984C182.223 133.103 182.557 133.033 182.78 132.807L185.948 129.596C186.187 129.353 186.247 128.982 186.095 128.674ZM184.676 133.484L172.645 157.882C172.493 158.19 172.552 158.561 172.792 158.804L175.96 162.016C176.182 162.242 176.517 162.311 176.809 162.193L185.672 158.598C185.971 158.476 186.167 158.183 186.167 157.856V133.841C186.167 132.998 185.047 132.73 184.676 133.484ZM201.657 157.882L189.626 133.484C189.255 132.73 188.135 132.998 188.135 133.841V157.856C188.135 158.183 188.331 158.476 188.629 158.598L197.493 162.193C197.785 162.311 198.119 162.242 198.342 162.016L201.509 158.804C201.749 158.561 201.808 158.19 201.657 157.882ZM169.114 162.692L157.083 187.091C156.932 187.398 156.991 187.769 157.231 188.012L160.398 191.224C160.621 191.45 160.955 191.519 161.247 191.401L170.11 187.806C170.409 187.685 170.605 187.391 170.605 187.065V163.049C170.605 162.207 169.485 161.939 169.114 162.692ZM186.095 187.091L174.064 162.692C173.693 161.939 172.573 162.207 172.573 163.049V187.065C172.573 187.391 172.769 187.685 173.068 187.806L181.931 191.401C182.223 191.519 182.557 191.45 182.78 191.224L185.948 188.012C186.187 187.769 186.247 187.398 186.095 187.091ZM200.237 -12.5575L188.206 11.8409C188.055 12.1484 188.114 12.5197 188.353 12.7628L191.522 15.9746C191.744 16.2005 192.078 16.2698 192.37 16.1512L201.233 12.5564C201.532 12.435 201.728 12.1416 201.728 11.8151V-12.2002C201.728 -13.0429 200.609 -13.311 200.237 -12.5575ZM217.218 11.8409L205.188 -12.5575C204.816 -13.311 203.696 -13.0429 203.696 -12.2002V11.8151C203.696 12.1416 203.892 12.435 204.191 12.5564L213.054 16.1512C213.346 16.2698 213.68 16.2005 213.903 15.9746L217.071 12.7628C217.31 12.5197 217.37 12.1484 217.218 11.8409ZM215.799 16.6506L203.768 41.0495C203.616 41.3565 203.676 41.7278 203.916 41.9709L207.083 45.1831C207.306 45.4086 207.64 45.4784 207.932 45.3597L216.795 41.7649C217.094 41.6436 217.29 41.3501 217.29 41.0237V17.0079C217.29 16.1657 216.17 15.8976 215.799 16.6506ZM232.78 41.0495L220.749 16.6506C220.378 15.8976 219.258 16.1657 219.258 17.0079V41.0237C219.258 41.3501 219.454 41.6436 219.753 41.7649L228.616 45.3597C228.908 45.4784 229.242 45.4086 229.465 45.1831L232.633 41.9709C232.872 41.7278 232.932 41.3565 232.78 41.0495ZM200.237 45.8592L188.206 70.2576C188.055 70.565 188.114 70.9363 188.353 71.179L191.522 74.3912C191.744 74.6172 192.078 74.6865 192.37 74.5678L201.233 70.973C201.532 70.8517 201.728 70.5582 201.728 70.2318V46.216C201.728 45.3738 200.609 45.1057 200.237 45.8592ZM217.218 70.2576L205.188 45.8592C204.816 45.1057 203.696 45.3738 203.696 46.216V70.2318C203.696 70.5582 203.892 70.8517 204.191 70.973L213.054 74.5678C213.346 74.6865 213.68 74.6172 213.903 74.3912L217.071 71.179C217.31 70.9363 217.37 70.565 217.218 70.2576ZM215.799 75.0673L203.768 99.4661C203.616 99.7731 203.676 100.144 203.916 100.388L207.083 103.599C207.306 103.825 207.64 103.895 207.932 103.776L216.795 100.182C217.094 100.06 217.29 99.7668 217.29 99.4403V75.4245C217.29 74.5819 216.17 74.3142 215.799 75.0673ZM232.78 99.4661L220.749 75.0673C220.378 74.3142 219.258 74.5819 219.258 75.4245V99.4403C219.258 99.7668 219.454 100.06 219.753 100.182L228.616 103.776C228.908 103.895 229.242 103.825 229.465 103.599L232.633 100.388C232.872 100.144 232.932 99.7731 232.78 99.4661ZM200.237 104.276L188.206 128.674C188.055 128.982 188.114 129.353 188.353 129.596L191.522 132.808C191.744 133.033 192.078 133.103 192.37 132.984L201.233 129.389C201.532 129.268 201.728 128.975 201.728 128.648V104.633C201.728 103.79 200.609 103.522 200.237 104.276ZM217.218 128.674L205.188 104.276C204.816 103.522 203.696 103.79 203.696 104.633V128.648C203.696 128.975 203.892 129.268 204.191 129.389L213.054 132.984C213.346 133.103 213.68 133.033 213.903 132.808L217.071 129.596C217.31 129.353 217.37 128.982 217.218 128.674ZM215.799 133.484L203.768 157.883C203.616 158.19 203.676 158.561 203.916 158.804L207.083 162.016C207.306 162.242 207.64 162.311 207.932 162.193L216.795 158.598C217.094 158.476 217.29 158.183 217.29 157.857V133.841C217.29 132.998 216.17 132.73 215.799 133.484ZM232.78 157.883L220.749 133.484C220.378 132.73 219.258 132.998 219.258 133.841V157.857C219.258 158.183 219.454 158.476 219.753 158.598L228.616 162.193C228.908 162.311 229.242 162.242 229.465 162.016L232.633 158.804C232.872 158.561 232.932 158.19 232.78 157.883ZM200.237 162.692L188.206 187.091C188.055 187.398 188.114 187.769 188.353 188.012L191.522 191.225C191.744 191.45 192.078 191.519 192.37 191.401L201.233 187.806C201.532 187.685 201.728 187.392 201.728 187.065V163.049C201.728 162.207 200.609 161.939 200.237 162.692ZM217.218 187.091L205.188 162.692C204.816 161.939 203.696 162.207 203.696 163.049V187.065C203.696 187.392 203.892 187.685 204.191 187.806L213.054 191.401C213.346 191.519 213.68 191.45 213.903 191.225L217.071 188.012C217.31 187.769 217.37 187.398 217.218 187.091ZM231.36 -12.557L219.329 11.8414C219.178 12.1488 219.238 12.5197 219.477 12.7628L222.645 15.9746C222.868 16.2005 223.201 16.2703 223.494 16.1516L232.357 12.5564C232.656 12.4355 232.852 12.1416 232.852 11.8156V-12.2002C232.852 -13.0424 231.732 -13.3109 231.36 -12.557ZM248.341 11.8414L236.311 -12.557C235.939 -13.3109 234.82 -13.0424 234.82 -12.2002V11.8156C234.82 12.1416 235.016 12.4355 235.315 12.5564L244.178 16.1516C244.47 16.2703 244.804 16.2005 245.027 15.9746L248.194 12.7628C248.434 12.5197 248.493 12.1488 248.341 11.8414ZM246.922 16.6511L234.891 41.0495C234.74 41.3569 234.799 41.7282 235.039 41.9709L238.206 45.1831C238.429 45.4091 238.763 45.4784 239.055 45.3597L247.918 41.7649C248.217 41.6436 248.413 41.3501 248.413 41.0237V17.0083C248.413 16.1657 247.294 15.8976 246.922 16.6511ZM263.903 41.0495L251.872 16.6511C251.501 15.8976 250.381 16.1657 250.381 17.0083V41.0237C250.381 41.3501 250.577 41.6436 250.876 41.7649L259.739 45.3597C260.032 45.4784 260.365 45.4091 260.588 45.1831L263.756 41.9709C263.995 41.7282 264.055 41.3569 263.903 41.0495ZM231.36 45.8592L219.329 70.258C219.178 70.565 219.238 70.9363 219.477 71.179L222.645 74.3912C222.868 74.6172 223.201 74.6865 223.494 74.5678L232.357 70.973C232.656 70.8521 232.852 70.5582 232.852 70.2318V46.216C232.852 45.3738 231.732 45.1057 231.36 45.8592ZM248.341 70.258L236.311 45.8592C235.939 45.1057 234.82 45.3738 234.82 46.216V70.2318C234.82 70.5582 235.016 70.8521 235.315 70.973L244.178 74.5678C244.47 74.6865 244.804 74.6172 245.027 74.3912L248.194 71.179C248.434 70.9363 248.493 70.565 248.341 70.258ZM246.922 75.0677L234.891 99.4661C234.74 99.7736 234.799 100.145 235.039 100.388L238.206 103.6C238.429 103.825 238.763 103.895 239.055 103.776L247.918 100.182C248.217 100.06 248.413 99.7668 248.413 99.4403V75.4245C248.413 74.5823 247.294 74.3142 246.922 75.0677ZM263.903 99.4661L251.872 75.0677C251.501 74.3142 250.381 74.5823 250.381 75.4245V99.4403C250.381 99.7668 250.577 100.06 250.876 100.182L259.739 103.776C260.032 103.895 260.365 103.825 260.588 103.6L263.756 100.388C263.995 100.145 264.055 99.7736 263.903 99.4661ZM231.36 104.276L219.329 128.674C219.178 128.982 219.238 129.353 219.477 129.596L222.645 132.808C222.868 133.033 223.201 133.103 223.494 132.984L232.357 129.39C232.656 129.268 232.852 128.975 232.852 128.648V104.633C232.852 103.79 231.732 103.522 231.36 104.276ZM248.341 128.674L236.311 104.276C235.939 103.522 234.82 103.79 234.82 104.633V128.648C234.82 128.975 235.016 129.268 235.315 129.39L244.178 132.984C244.47 133.103 244.804 133.033 245.027 132.808L248.194 129.596C248.434 129.353 248.493 128.982 248.341 128.674ZM246.922 133.484L234.891 157.883C234.74 158.19 234.799 158.561 235.039 158.804L238.206 162.016C238.429 162.242 238.763 162.311 239.055 162.193L247.918 158.598C248.217 158.477 248.413 158.183 248.413 157.857V133.841C248.413 132.999 247.294 132.73 246.922 133.484ZM263.903 157.883L251.872 133.484C251.501 132.73 250.381 132.999 250.381 133.841V157.857C250.381 158.183 250.577 158.477 250.876 158.598L259.739 162.193C260.032 162.311 260.365 162.242 260.588 162.016L263.756 158.804C263.995 158.561 264.055 158.19 263.903 157.883ZM231.36 162.692L219.329 187.091C219.178 187.398 219.238 187.769 219.477 188.012L222.645 191.225C222.868 191.45 223.201 191.52 223.494 191.401L232.357 187.806C232.656 187.685 232.852 187.392 232.852 187.065V163.049C232.852 162.207 231.732 161.939 231.36 162.692ZM248.341 187.091L236.311 162.692C235.939 161.939 234.82 162.207 234.82 163.049V187.065C234.82 187.392 235.016 187.685 235.315 187.806L244.178 191.401C244.47 191.52 244.804 191.45 245.027 191.225L248.194 188.012C248.434 187.769 248.493 187.398 248.341 187.091ZM262.484 -12.557L250.453 11.8414C250.301 12.1488 250.361 12.5197 250.6 12.7628L253.768 15.975C253.991 16.2005 254.325 16.2703 254.617 16.1516L263.48 12.5564C263.779 12.4355 263.975 12.1421 263.975 11.8156V-12.2002C263.975 -13.0424 262.855 -13.3105 262.484 -12.557ZM279.465 11.8414L267.434 -12.557C267.063 -13.3105 265.943 -13.0424 265.943 -12.2002V11.8156C265.943 12.1421 266.139 12.4355 266.438 12.5564L275.301 16.1516C275.593 16.2703 275.927 16.2005 276.15 15.975L279.317 12.7628C279.557 12.5197 279.616 12.1488 279.465 11.8414ZM278.045 16.6511L266.015 41.0499C265.863 41.3569 265.922 41.7282 266.162 41.9709L269.33 45.1831C269.552 45.4091 269.887 45.4784 270.179 45.3597L279.042 41.7649C279.34 41.6436 279.537 41.3501 279.537 41.0241V17.0083C279.537 16.1657 278.417 15.8976 278.045 16.6511ZM295.027 41.0499L282.996 16.6511C282.624 15.8976 281.504 16.1657 281.504 17.0083V41.0241C281.504 41.3501 281.7 41.6436 281.999 41.7649L290.862 45.3597C291.155 45.4784 291.489 45.4091 291.711 45.1831L294.879 41.9709C295.119 41.7282 295.178 41.3569 295.027 41.0499ZM262.484 45.8592L250.453 70.258C250.301 70.565 250.361 70.9363 250.6 71.1795L253.768 74.3917C253.991 74.6172 254.325 74.6864 254.617 74.5683L263.48 70.9735C263.779 70.8521 263.975 70.5587 263.975 70.2318V46.2164C263.975 45.3742 262.855 45.1061 262.484 45.8592ZM279.465 70.258L267.434 45.8592C267.063 45.1061 265.943 45.3742 265.943 46.2164V70.2318C265.943 70.5587 266.139 70.8521 266.438 70.9735L275.301 74.5683C275.593 74.6864 275.927 74.6172 276.15 74.3917L279.317 71.1795C279.557 70.9363 279.616 70.565 279.465 70.258ZM278.045 75.0677L266.015 99.4661C265.863 99.7736 265.922 100.145 266.162 100.388L269.33 103.6C269.552 103.825 269.887 103.895 270.179 103.776L279.042 100.182C279.34 100.06 279.537 99.7668 279.537 99.4403V75.4245C279.537 74.5823 278.417 74.3142 278.045 75.0677ZM295.027 99.4661L282.996 75.0677C282.624 74.3142 281.504 74.5823 281.504 75.4245V99.4403C281.504 99.7668 281.7 100.06 281.999 100.182L290.862 103.776C291.155 103.895 291.489 103.825 291.711 103.6L294.879 100.388C295.119 100.145 295.178 99.7736 295.027 99.4661ZM262.484 104.276L250.453 128.674C250.301 128.982 250.361 129.353 250.6 129.596L253.768 132.808C253.991 133.034 254.325 133.103 254.617 132.984L263.48 129.39C263.779 129.268 263.975 128.975 263.975 128.649V104.633C263.975 103.79 262.855 103.522 262.484 104.276ZM279.465 128.674L267.434 104.276C267.063 103.522 265.943 103.79 265.943 104.633V128.649C265.943 128.975 266.139 129.268 266.438 129.39L275.301 132.984C275.593 133.103 275.927 133.034 276.15 132.808L279.317 129.596C279.557 129.353 279.616 128.982 279.465 128.674ZM278.045 133.484L266.015 157.883C265.863 158.19 265.922 158.561 266.162 158.804L269.33 162.016C269.552 162.242 269.887 162.312 270.179 162.193L279.042 158.598C279.34 158.477 279.537 158.183 279.537 157.857V133.841C279.537 132.999 278.417 132.731 278.045 133.484ZM295.027 157.883L282.996 133.484C282.624 132.731 281.504 132.999 281.504 133.841V157.857C281.504 158.183 281.7 158.477 281.999 158.598L290.862 162.193C291.155 162.312 291.489 162.242 291.711 162.016L294.879 158.804C295.119 158.561 295.178 158.19 295.027 157.883ZM262.484 162.692L250.453 187.091C250.301 187.398 250.361 187.77 250.6 188.012L253.768 191.225C253.991 191.45 254.325 191.52 254.617 191.401L263.48 187.806C263.779 187.685 263.975 187.392 263.975 187.065V163.049C263.975 162.207 262.855 161.939 262.484 162.692ZM279.465 187.091L267.434 162.692C267.063 161.939 265.943 162.207 265.943 163.049V187.065C265.943 187.392 266.139 187.685 266.438 187.806L275.301 191.401C275.593 191.52 275.927 191.45 276.15 191.225L279.317 188.012C279.557 187.77 279.616 187.398 279.465 187.091ZM293.607 -12.557L281.576 11.8414C281.425 12.1488 281.484 12.5201 281.724 12.7628L284.892 15.975C285.114 16.201 285.448 16.2703 285.741 16.1516L294.604 12.5568C294.902 12.4355 295.098 12.1421 295.098 11.8156V-12.2002C295.098 -13.0424 293.979 -13.3105 293.607 -12.557ZM310.588 11.8414L298.558 -12.557C298.186 -13.3105 297.066 -13.0424 297.066 -12.2002V11.8156C297.066 12.1421 297.262 12.4355 297.561 12.5568L306.424 16.1516C306.716 16.2703 307.051 16.201 307.273 15.975L310.441 12.7628C310.681 12.5201 310.74 12.1488 310.588 11.8414ZM309.169 16.6511L297.138 41.0499C296.987 41.3569 297.046 41.7282 297.286 41.9714L300.453 45.1831C300.676 45.4091 301.01 45.4784 301.302 45.3602L310.165 41.7649C310.464 41.644 310.66 41.3506 310.66 41.0241V17.0083C310.66 16.1661 309.54 15.8976 309.169 16.6511ZM293.607 45.8596L281.576 70.258C281.425 70.5655 281.484 70.9363 281.724 71.1795L284.892 74.3917C285.114 74.6172 285.448 74.6869 285.741 74.5683L294.604 70.9735C294.902 70.8521 295.098 70.5587 295.098 70.2322V46.2164C295.098 45.3742 293.979 45.1062 293.607 45.8596ZM310.588 70.258L298.558 45.8596C298.186 45.1062 297.066 45.3742 297.066 46.2164V70.2322C297.066 70.5587 297.262 70.8521 297.561 70.9735L306.424 74.5683C306.716 74.6869 307.051 74.6172 307.273 74.3917L310.441 71.1795C310.681 70.9363 310.74 70.5655 310.588 70.258ZM309.169 75.0677L297.138 99.4661C296.987 99.7736 297.046 100.145 297.286 100.388L300.453 103.6C300.676 103.826 301.01 103.895 301.302 103.777L310.165 100.182C310.464 100.06 310.66 99.7668 310.66 99.4403V75.4245C310.66 74.5823 309.54 74.3147 309.169 75.0677ZM293.607 104.276L281.576 128.675C281.425 128.982 281.484 129.353 281.724 129.596L284.892 132.808C285.114 133.034 285.448 133.104 285.741 132.985L294.604 129.39C294.902 129.269 295.098 128.975 295.098 128.649V104.633C295.098 103.791 293.979 103.522 293.607 104.276ZM310.588 128.675L298.558 104.276C298.186 103.522 297.066 103.791 297.066 104.633V128.649C297.066 128.975 297.262 129.269 297.561 129.39L306.424 132.985C306.716 133.104 307.051 133.034 307.273 132.808L310.441 129.596C310.681 129.353 310.74 128.982 310.588 128.675ZM309.169 133.484L297.138 157.883C296.987 158.19 297.046 158.562 297.286 158.804L300.453 162.016C300.676 162.242 301.01 162.312 301.302 162.193L310.165 158.598C310.464 158.477 310.66 158.183 310.66 157.857V133.841C310.66 132.999 309.54 132.731 309.169 133.484ZM293.607 162.692L281.576 187.091C281.425 187.398 281.484 187.77 281.724 188.012L284.892 191.225C285.114 191.45 285.448 191.52 285.741 191.402L294.604 187.806C294.902 187.685 295.098 187.392 295.098 187.065V163.049C295.098 162.207 293.979 161.939 293.607 162.692ZM310.588 187.091L298.558 162.692C298.186 161.939 297.066 162.207 297.066 163.049V187.065C297.066 187.392 297.262 187.685 297.561 187.806L306.424 191.402C306.716 191.52 307.051 191.45 307.273 191.225L310.441 188.012C310.681 187.77 310.74 187.398 310.588 187.091ZM170.533 274.715L158.502 250.317C158.131 249.563 157.011 249.831 157.011 250.674V274.69C157.011 275.016 157.207 275.309 157.506 275.431L166.369 279.025C166.661 279.144 166.996 279.075 167.218 278.849L170.386 275.637C170.626 275.394 170.685 275.023 170.533 274.715ZM184.676 191.901L172.645 216.299C172.493 216.606 172.552 216.978 172.792 217.22L175.96 220.432C176.182 220.658 176.517 220.728 176.809 220.609L185.672 217.014C185.971 216.893 186.167 216.6 186.167 216.273V192.257C186.167 191.415 185.047 191.147 184.676 191.901ZM201.657 216.299L189.626 191.901C189.255 191.147 188.135 191.415 188.135 192.257V216.273C188.135 216.6 188.331 216.893 188.629 217.014L197.493 220.609C197.785 220.728 198.119 220.658 198.342 220.432L201.509 217.22C201.749 216.978 201.808 216.606 201.657 216.299ZM169.114 221.109L157.083 245.507C156.932 245.814 156.991 246.185 157.231 246.429L160.398 249.641C160.621 249.866 160.955 249.936 161.247 249.817L170.11 246.222C170.409 246.101 170.605 245.808 170.605 245.481V221.465C170.605 220.623 169.485 220.355 169.114 221.109ZM186.095 245.507L174.064 221.109C173.693 220.355 172.573 220.623 172.573 221.465V245.481C172.573 245.808 172.769 246.101 173.068 246.222L181.931 249.817C182.223 249.936 182.557 249.866 182.78 249.641L185.948 246.429C186.187 246.185 186.247 245.814 186.095 245.507ZM184.676 250.317L172.645 274.716C172.493 275.023 172.552 275.394 172.792 275.637L175.96 278.849C176.182 279.075 176.517 279.144 176.809 279.026L185.672 275.431C185.971 275.31 186.167 275.016 186.167 274.69V250.674C186.167 249.832 185.047 249.563 184.676 250.317ZM201.657 274.716L189.626 250.317C189.255 249.563 188.135 249.832 188.135 250.674V274.69C188.135 275.016 188.331 275.31 188.629 275.431L197.493 279.026C197.785 279.144 198.119 279.075 198.342 278.849L201.509 275.637C201.749 275.394 201.808 275.023 201.657 274.716ZM215.799 191.901L203.768 216.299C203.616 216.606 203.676 216.978 203.916 217.22L207.083 220.433C207.306 220.658 207.64 220.728 207.932 220.609L216.795 217.014C217.094 216.893 217.29 216.6 217.29 216.273V192.257C217.29 191.415 216.17 191.147 215.799 191.901ZM232.78 216.299L220.749 191.901C220.378 191.147 219.258 191.415 219.258 192.257V216.273C219.258 216.6 219.454 216.893 219.753 217.014L228.616 220.609C228.908 220.728 229.242 220.658 229.465 220.433L232.633 217.22C232.872 216.978 232.932 216.606 232.78 216.299ZM200.237 221.109L188.206 245.507C188.055 245.814 188.114 246.186 188.353 246.429L191.522 249.641C191.744 249.867 192.078 249.936 192.37 249.817L201.233 246.222C201.532 246.101 201.728 245.808 201.728 245.481V221.466C201.728 220.623 200.609 220.355 200.237 221.109ZM217.218 245.507L205.188 221.109C204.816 220.355 203.696 220.623 203.696 221.466V245.481C203.696 245.808 203.892 246.101 204.191 246.222L213.054 249.817C213.346 249.936 213.68 249.867 213.903 249.641L217.071 246.429C217.31 246.186 217.37 245.814 217.218 245.507ZM215.799 250.317L203.768 274.716C203.616 275.023 203.676 275.394 203.916 275.637L207.083 278.849C207.306 279.075 207.64 279.144 207.932 279.026L216.795 275.431C217.094 275.31 217.29 275.016 217.29 274.69V250.674C217.29 249.832 216.17 249.564 215.799 250.317ZM232.78 274.716L220.749 250.317C220.378 249.564 219.258 249.832 219.258 250.674V274.69C219.258 275.016 219.454 275.31 219.753 275.431L228.616 279.026C228.908 279.144 229.242 279.075 229.465 278.849L232.633 275.637C232.872 275.394 232.932 275.023 232.78 274.716ZM246.922 191.901L234.891 216.299C234.74 216.606 234.799 216.978 235.039 217.22L238.206 220.433C238.429 220.659 238.763 220.728 239.055 220.609L247.918 217.014C248.217 216.893 248.413 216.6 248.413 216.273V192.257C248.413 191.415 247.294 191.147 246.922 191.901ZM263.903 216.299L251.872 191.901C251.501 191.147 250.381 191.415 250.381 192.257V216.273C250.381 216.6 250.577 216.893 250.876 217.014L259.739 220.609C260.032 220.728 260.365 220.659 260.588 220.433L263.756 217.22C263.995 216.978 264.055 216.606 263.903 216.299ZM278.045 191.901L266.015 216.299C265.863 216.606 265.922 216.978 266.162 217.221L269.33 220.433C269.552 220.659 269.887 220.728 270.179 220.609L279.042 217.015C279.34 216.893 279.537 216.6 279.537 216.274V192.258C279.537 191.415 278.417 191.148 278.045 191.901ZM295.027 216.299L282.996 191.901C282.624 191.148 281.504 191.415 281.504 192.258V216.274C281.504 216.6 281.7 216.893 281.999 217.015L290.862 220.609C291.155 220.728 291.489 220.659 291.711 220.433L294.879 217.221C295.119 216.978 295.178 216.606 295.027 216.299ZM231.36 221.109L219.329 245.508C219.178 245.815 219.238 246.186 219.477 246.429L222.645 249.641C222.868 249.867 223.201 249.936 223.494 249.817L232.357 246.222C232.656 246.102 232.852 245.808 232.852 245.482V221.466C232.852 220.623 231.732 220.355 231.36 221.109ZM248.341 245.508L236.311 221.109C235.939 220.355 234.82 220.623 234.82 221.466V245.482C234.82 245.808 235.016 246.102 235.315 246.222L244.178 249.817C244.47 249.936 244.804 249.867 245.027 249.641L248.194 246.429C248.434 246.186 248.493 245.815 248.341 245.508ZM246.922 250.317L234.891 274.716C234.74 275.023 234.799 275.394 235.039 275.637L238.206 278.849C238.429 279.075 238.763 279.144 239.055 279.026L247.918 275.431C248.217 275.31 248.413 275.016 248.413 274.69V250.674C248.413 249.832 247.294 249.564 246.922 250.317ZM263.903 274.716L251.872 250.317C251.501 249.564 250.381 249.832 250.381 250.674V274.69C250.381 275.016 250.577 275.31 250.876 275.431L259.739 279.026C260.032 279.144 260.365 279.075 260.588 278.849L263.756 275.637C263.995 275.394 264.055 275.023 263.903 274.716ZM262.484 221.109L250.453 245.508C250.301 245.815 250.361 246.186 250.6 246.429L253.768 249.641C253.991 249.867 254.325 249.936 254.617 249.818L263.48 246.223C263.779 246.102 263.975 245.808 263.975 245.482V221.466C263.975 220.624 262.855 220.356 262.484 221.109ZM279.465 245.508L267.434 221.109C267.063 220.356 265.943 220.624 265.943 221.466V245.482C265.943 245.808 266.139 246.102 266.438 246.223L275.301 249.818C275.593 249.936 275.927 249.867 276.15 249.641L279.317 246.429C279.557 246.186 279.616 245.815 279.465 245.508ZM278.045 250.317L266.015 274.716C265.863 275.023 265.922 275.394 266.162 275.637L269.33 278.849C269.552 279.075 269.887 279.144 270.179 279.026L279.042 275.431C279.34 275.31 279.537 275.016 279.537 274.69V250.674C279.537 249.832 278.417 249.564 278.045 250.317ZM295.027 274.716L282.996 250.317C282.624 249.564 281.504 249.832 281.504 250.674V274.69C281.504 275.016 281.7 275.31 281.999 275.431L290.862 279.026C291.155 279.144 291.489 279.075 291.711 278.849L294.879 275.637C295.119 275.394 295.178 275.023 295.027 274.716ZM309.169 191.901L297.138 216.299C296.987 216.607 297.046 216.978 297.286 217.221L300.453 220.433C300.676 220.659 301.01 220.728 301.302 220.61L310.165 217.015C310.464 216.893 310.66 216.6 310.66 216.274V192.258C310.66 191.416 309.54 191.148 309.169 191.901ZM293.607 221.109L281.576 245.508C281.425 245.815 281.484 246.186 281.724 246.429L284.892 249.641C285.114 249.867 285.448 249.936 285.741 249.818L294.604 246.223C294.902 246.102 295.098 245.808 295.098 245.482V221.466C295.098 220.624 293.979 220.356 293.607 221.109ZM310.588 245.508L298.558 221.109C298.186 220.356 297.066 220.624 297.066 221.466V245.482C297.066 245.808 297.262 246.102 297.561 246.223L306.424 249.818C306.716 249.936 307.051 249.867 307.273 249.641L310.441 246.429C310.681 246.186 310.74 245.815 310.588 245.508ZM309.169 250.317L297.138 274.716C296.987 275.023 297.046 275.394 297.286 275.637L300.453 278.85C300.676 279.075 301.01 279.144 301.302 279.026L310.165 275.431C310.464 275.31 310.66 275.016 310.66 274.69V250.674C310.66 249.832 309.54 249.564 309.169 250.317Z" stroke="#3A4B6D" stroke-miterlimit="10"/>
</g>
</svg>
