<svg width="290" height="87" viewBox="0 0 290 87" fill="none" xmlns="http://www.w3.org/2000/svg">
<mask id="mask0" mask-type="alpha" maskUnits="userSpaceOnUse" x="167" y="0" width="123" height="87">
<rect x="167" width="123" height="87" fill="#C4C4C4"/>
</mask>
<g mask="url(#mask0)">
<path d="M167.702 0.0206451H154.22C153.998 0.0206451 153.791 -0.0959918 153.676 -0.284405L147.165 -10.9847C146.923 -11.3851 147.18 -11.9021 147.647 -11.9481L160.061 -13.1806C160.315 -13.2053 160.561 -13.0763 160.682 -12.852L167.702 0.0206451Z" stroke="#07643C" stroke-miterlimit="10"/>
<path d="M155.494 -12.714V-19.922C155.494 -20.3908 155.984 -20.6969 156.406 -20.4951L167.841 -15.0243V0.0195312" stroke="#07643C" stroke-miterlimit="10"/>
<path d="M179.825 -12.714V-19.922C179.825 -20.3908 179.335 -20.6969 178.913 -20.4951L167.478 -15.0243V0.0195312" stroke="#07643C" stroke-miterlimit="10"/>
<path d="M167.841 0.0206451H181.323C181.545 0.0206451 181.752 -0.0959918 181.868 -0.284405L188.378 -10.9847C188.621 -11.3851 188.363 -11.9021 187.896 -11.9481L175.482 -13.1806C175.228 -13.2053 174.983 -13.0763 174.861 -12.852L167.841 0.0206451Z" stroke="#07643C" stroke-miterlimit="10"/>
<path d="M167.841 0.0195312H181.323C181.545 0.0195312 181.752 0.136168 181.868 0.324581L188.378 11.0249C188.621 11.4253 188.363 11.9411 187.896 11.9882L175.482 13.2197C175.228 13.2455 174.983 13.1154 174.861 12.8911L167.841 0.0195312Z" stroke="#07643C" stroke-miterlimit="10"/>
<path d="M180.189 12.7531V19.9621C180.189 20.4298 179.699 20.7371 179.276 20.5352L167.841 15.0645V0.0195312" stroke="#07643C" stroke-miterlimit="10"/>
<path d="M155.062 12.7542V19.9621C155.062 20.4309 155.551 20.7382 155.974 20.5352L167.409 15.0656V0.0195312" stroke="#07643C" stroke-miterlimit="10"/>
<path d="M167.702 0.0195312H154.22C153.998 0.0195312 153.791 0.136168 153.676 0.324581L147.165 11.0249C146.923 11.4253 147.18 11.9411 147.647 11.9882L160.061 13.2197C160.315 13.2455 160.561 13.1154 160.682 12.8911L167.702 0.0195312Z" stroke="#07643C" stroke-miterlimit="10"/>
<path d="M167.624 15.0508L173.798 18.0048L167.955 26.0561C167.696 26.4127 167.161 26.4049 166.912 26.0404L161.451 18.0048L167.624 15.0508Z" stroke="#07643C" stroke-miterlimit="10"/>
<path d="M209.241 0.0206451H195.759C195.537 0.0206451 195.33 -0.0959918 195.215 -0.284405L188.704 -10.9847C188.462 -11.3851 188.719 -11.9021 189.186 -11.9481L201.6 -13.1806C201.854 -13.2053 202.1 -13.0763 202.221 -12.852L209.241 0.0206451Z" stroke="#07643C" stroke-miterlimit="10"/>
<path d="M197.034 -12.714V-19.922C197.034 -20.3908 197.524 -20.6969 197.946 -20.4951L209.381 -15.0243V0.0195312" stroke="#07643C" stroke-miterlimit="10"/>
<path d="M221.364 -12.714V-19.922C221.364 -20.3908 220.875 -20.6969 220.452 -20.4951L209.018 -15.0243V0.0195312" stroke="#07643C" stroke-miterlimit="10"/>
<path d="M209.381 0.0206451H222.863C223.085 0.0206451 223.292 -0.0959918 223.408 -0.284405L229.918 -10.9847C230.161 -11.3851 229.903 -11.9021 229.436 -11.9481L217.022 -13.1806C216.768 -13.2053 216.523 -13.0763 216.401 -12.852L209.381 0.0206451Z" stroke="#07643C" stroke-miterlimit="10"/>
<path d="M209.381 0.0195312H222.863C223.085 0.0195312 223.292 0.136168 223.408 0.324581L229.918 11.0249C230.161 11.4253 229.903 11.9411 229.436 11.9882L217.022 13.2197C216.768 13.2455 216.523 13.1154 216.401 12.8911L209.381 0.0195312Z" stroke="#07643C" stroke-miterlimit="10"/>
<path d="M221.729 12.7531V19.9621C221.729 20.4298 221.239 20.7371 220.816 20.5352L209.381 15.0645V0.0195312" stroke="#07643C" stroke-miterlimit="10"/>
<path d="M196.601 12.7542V19.9621C196.601 20.4309 197.09 20.7382 197.513 20.5352L208.948 15.0656V0.0195312" stroke="#07643C" stroke-miterlimit="10"/>
<path d="M209.241 0.0195312H195.759C195.537 0.0195312 195.33 0.136168 195.215 0.324581L188.704 11.0249C188.462 11.4253 188.719 11.9411 189.186 11.9882L201.6 13.2197C201.854 13.2455 202.1 13.1154 202.221 12.8911L209.241 0.0195312Z" stroke="#07643C" stroke-miterlimit="10"/>
<path d="M209.164 15.0508L215.337 18.0048L209.494 26.0561C209.236 26.4127 208.7 26.4049 208.452 26.0404L202.991 18.0048L209.164 15.0508Z" stroke="#07643C" stroke-miterlimit="10"/>
<path d="M250.781 0.0206451H237.299C237.076 0.0206451 236.87 -0.0959918 236.755 -0.284405L230.244 -10.9847C230.001 -11.3851 230.258 -11.9021 230.726 -11.9481L243.14 -13.1806C243.394 -13.2053 243.64 -13.0763 243.761 -12.852L250.781 0.0206451Z" stroke="#07643C" stroke-miterlimit="10"/>
<path d="M238.573 -12.714V-19.922C238.573 -20.3908 239.063 -20.6969 239.485 -20.4951L250.92 -15.0243V0.0195312" stroke="#07643C" stroke-miterlimit="10"/>
<path d="M263.7 -12.714V-19.922C263.7 -20.3908 263.21 -20.6969 262.788 -20.4951L251.354 -15.0243V0.0195312" stroke="#07643C" stroke-miterlimit="10"/>
<path d="M250.92 0.0206451H264.402C264.624 0.0206451 264.831 -0.0959918 264.947 -0.284405L271.457 -10.9847C271.7 -11.3851 271.442 -11.9021 270.975 -11.9481L258.562 -13.1806C258.307 -13.2053 258.063 -13.0763 257.94 -12.852L250.92 0.0206451Z" stroke="#07643C" stroke-miterlimit="10"/>
<path d="M250.92 0.0195312H264.402C264.624 0.0195312 264.831 0.136168 264.947 0.324581L271.457 11.0249C271.7 11.4253 271.442 11.9411 270.975 11.9882L258.562 13.2197C258.307 13.2455 258.063 13.1154 257.94 12.8911L250.92 0.0195312Z" stroke="#07643C" stroke-miterlimit="10"/>
<path d="M263.268 12.7531V19.9621C263.268 20.4298 262.778 20.7371 262.356 20.5352L250.92 15.0645V0.0195312" stroke="#07643C" stroke-miterlimit="10"/>
<path d="M238.937 12.7542V19.9621C238.937 20.4309 239.426 20.7382 239.849 20.5352L251.284 15.0656V0.0195312" stroke="#07643C" stroke-miterlimit="10"/>
<path d="M250.781 0.0195312H237.299C237.076 0.0195312 236.87 0.136168 236.755 0.324581L230.244 11.0249C230.001 11.4253 230.258 11.9411 230.726 11.9882L243.14 13.2197C243.394 13.2455 243.64 13.1154 243.761 12.8911L250.781 0.0195312Z" stroke="#07643C" stroke-miterlimit="10"/>
<path d="M250.704 15.0508L256.877 18.0048L251.034 26.0561C250.775 26.4127 250.24 26.4049 249.991 26.0404L244.53 18.0048L250.704 15.0508Z" stroke="#07643C" stroke-miterlimit="10"/>
<path d="M292.321 0.0206451H278.838C278.616 0.0206451 278.409 -0.0959918 278.294 -0.284405L271.783 -10.9847C271.541 -11.3851 271.798 -11.9021 272.265 -11.9481L284.678 -13.1806C284.933 -13.2053 285.178 -13.0763 285.3 -12.852L292.321 0.0206451Z" stroke="#07643C" stroke-miterlimit="10"/>
<path d="M280.113 -12.714V-19.922C280.113 -20.3908 280.603 -20.6969 281.025 -20.4951L292.459 -15.0243V0.0195312" stroke="#07643C" stroke-miterlimit="10"/>
<path d="M280.476 12.7542V19.9621C280.476 20.4309 280.966 20.7382 281.388 20.5352L292.824 15.0656V0.0195312" stroke="#07643C" stroke-miterlimit="10"/>
<path d="M292.321 0.0195312H278.838C278.616 0.0195312 278.409 0.136168 278.294 0.324581L271.783 11.0249C271.541 11.4253 271.798 11.9411 272.265 11.9882L284.678 13.2197C284.933 13.2455 285.178 13.1154 285.3 12.8911L292.321 0.0195312Z" stroke="#07643C" stroke-miterlimit="10"/>
<path d="M293.039 15.0508L299.213 18.0048L293.37 26.0561C293.11 26.4127 292.576 26.4049 292.327 26.0404L286.866 18.0048L293.039 15.0508Z" stroke="#07643C" stroke-miterlimit="10"/>
<path d="M146.274 43.6027H159.757C159.979 43.6027 160.186 43.486 160.301 43.2976L166.812 32.5973C167.054 32.197 166.797 31.68 166.33 31.634L153.916 30.4014C153.662 30.3768 153.416 30.5057 153.295 30.73L146.274 43.6027Z" stroke="#07643C" stroke-miterlimit="10"/>
<path d="M146.274 43.6094H159.757C159.979 43.6094 160.186 43.726 160.301 43.9144L166.812 54.6147C167.054 55.0151 166.797 55.5321 166.33 55.5781L153.916 56.8106C153.662 56.8353 153.416 56.7063 153.295 56.482L146.274 43.6094Z" stroke="#07643C" stroke-miterlimit="10"/>
<path d="M188.471 43.6027H174.989C174.766 43.6027 174.56 43.486 174.444 43.2976L167.934 32.5973C167.691 32.197 167.948 31.68 168.416 31.634L180.83 30.4014C181.083 30.3768 181.328 30.5057 181.451 30.73L188.471 43.6027Z" stroke="#07643C" stroke-miterlimit="10"/>
<path d="M176.264 30.8758V23.6668C176.264 23.1991 176.754 22.8918 177.176 23.0948L188.61 28.5644V43.6094" stroke="#07643C" stroke-miterlimit="10"/>
<path d="M200.594 30.8747V23.6656C200.594 23.198 200.104 22.8907 199.682 23.0937L188.247 28.5633V43.6094" stroke="#07643C" stroke-miterlimit="10"/>
<path d="M188.61 43.6027H202.093C202.315 43.6027 202.522 43.486 202.637 43.2976L209.148 32.5973C209.39 32.197 209.133 31.68 208.666 31.634L196.252 30.4014C195.998 30.3768 195.752 30.5057 195.631 30.73L188.61 43.6027Z" stroke="#07643C" stroke-miterlimit="10"/>
<path d="M188.394 28.5637L182.22 25.6097L188.063 17.5595C188.322 17.2029 188.857 17.2107 189.106 17.5752L194.567 25.6097L188.394 28.5637Z" stroke="#07643C" stroke-miterlimit="10"/>
<path d="M188.61 43.6094H202.093C202.315 43.6094 202.522 43.726 202.637 43.9144L209.148 54.6147C209.39 55.0151 209.133 55.5321 208.666 55.5781L196.252 56.8106C195.998 56.8353 195.752 56.7063 195.631 56.482L188.61 43.6094Z" stroke="#07643C" stroke-miterlimit="10"/>
<path d="M200.958 56.343V63.552C200.958 64.0197 200.468 64.327 200.046 64.1262L188.61 58.6544V43.6094" stroke="#07643C" stroke-miterlimit="10"/>
<path d="M175.83 56.3441V63.552C175.83 64.0207 176.32 64.328 176.742 64.1262L188.178 58.6555V43.6094" stroke="#07643C" stroke-miterlimit="10"/>
<path d="M188.471 43.6094H174.989C174.766 43.6094 174.56 43.726 174.444 43.9144L167.934 54.6147C167.691 55.0151 167.948 55.5321 168.416 55.5781L180.83 56.8106C181.083 56.8353 181.328 56.7063 181.451 56.482L188.471 43.6094Z" stroke="#07643C" stroke-miterlimit="10"/>
<path d="M188.394 58.6328L194.567 61.5869L188.724 69.6381C188.464 69.9948 187.93 69.9858 187.681 69.6213L182.22 61.5869L188.394 58.6328Z" stroke="#07643C" stroke-miterlimit="10"/>
<path d="M230.011 43.6027H216.529C216.306 43.6027 216.1 43.486 215.984 43.2976L209.474 32.5973C209.231 32.197 209.489 31.68 209.956 31.634L222.369 30.4014C222.623 30.3768 222.868 30.5057 222.992 30.73L230.011 43.6027Z" stroke="#07643C" stroke-miterlimit="10"/>
<path d="M217.803 30.8758V23.6668C217.803 23.1991 218.293 22.8918 218.715 23.0948L230.149 28.5644V43.6094" stroke="#07643C" stroke-miterlimit="10"/>
<path d="M242.133 30.8747V23.6656C242.133 23.198 241.644 22.8907 241.221 23.0937L229.787 28.5633V43.6094" stroke="#07643C" stroke-miterlimit="10"/>
<path d="M230.149 43.6027H243.632C243.854 43.6027 244.061 43.486 244.176 43.2976L250.687 32.5973C250.929 32.197 250.672 31.68 250.205 31.634L237.791 30.4014C237.537 30.3768 237.291 30.5057 237.17 30.73L230.149 43.6027Z" stroke="#07643C" stroke-miterlimit="10"/>
<path d="M229.933 28.5637L223.76 25.6097L229.603 17.5595C229.861 17.2029 230.397 17.2107 230.645 17.5752L236.106 25.6097L229.933 28.5637Z" stroke="#07643C" stroke-miterlimit="10"/>
<path d="M230.149 43.6094H243.632C243.854 43.6094 244.061 43.726 244.176 43.9144L250.687 54.6147C250.929 55.0151 250.672 55.5321 250.205 55.5781L237.791 56.8106C237.537 56.8353 237.291 56.7063 237.17 56.482L230.149 43.6094Z" stroke="#07643C" stroke-miterlimit="10"/>
<path d="M242.497 56.343V63.552C242.497 64.0197 242.007 64.327 241.585 64.1262L230.149 58.6544V43.6094" stroke="#07643C" stroke-miterlimit="10"/>
<path d="M217.37 56.3441V63.552C217.37 64.0207 217.86 64.328 218.282 64.1262L229.718 58.6555V43.6094" stroke="#07643C" stroke-miterlimit="10"/>
<path d="M230.011 43.6094H216.529C216.306 43.6094 216.1 43.726 215.984 43.9144L209.474 54.6147C209.231 55.0151 209.489 55.5321 209.956 55.5781L222.369 56.8106C222.623 56.8353 222.868 56.7063 222.992 56.482L230.011 43.6094Z" stroke="#07643C" stroke-miterlimit="10"/>
<path d="M229.933 58.6328L236.106 61.5869L230.263 69.6381C230.005 69.9948 229.469 69.9858 229.221 69.6213L223.76 61.5869L229.933 58.6328Z" stroke="#07643C" stroke-miterlimit="10"/>
<path d="M271.55 43.6027H258.068C257.846 43.6027 257.639 43.486 257.523 43.2976L251.013 32.5973C250.77 32.1969 251.028 31.6799 251.495 31.634L263.909 30.4014C264.163 30.3767 264.409 30.5068 264.53 30.73L271.55 43.6027Z" stroke="#07643C" stroke-miterlimit="10"/>
<path d="M259.343 30.8758V23.6668C259.343 23.1991 259.833 22.8918 260.255 23.0948L271.689 28.5644V43.6094" stroke="#07643C" stroke-miterlimit="10"/>
<path d="M283.673 30.8747V23.6656C283.673 23.198 283.183 22.8907 282.761 23.0937L271.326 28.5633V43.6094" stroke="#07643C" stroke-miterlimit="10"/>
<path d="M271.689 43.6027H285.172C285.394 43.6027 285.601 43.486 285.716 43.2976L292.227 32.5973C292.469 32.1969 292.212 31.6799 291.745 31.634L279.331 30.4014C279.077 30.3767 278.832 30.5068 278.71 30.73L271.689 43.6027Z" stroke="#07643C" stroke-miterlimit="10"/>
<path d="M271.473 28.5637L265.299 25.6097L271.142 17.5595C271.401 17.2029 271.937 17.2107 272.185 17.5752L277.646 25.6097L271.473 28.5637Z" stroke="#07643C" stroke-miterlimit="10"/>
<path d="M271.689 43.6094H285.172C285.394 43.6094 285.601 43.726 285.716 43.9144L292.227 54.6147C292.469 55.0151 292.212 55.5321 291.745 55.5781L279.331 56.8106C279.077 56.8353 278.832 56.7063 278.71 56.482L271.689 43.6094Z" stroke="#07643C" stroke-miterlimit="10"/>
<path d="M284.037 56.343V63.552C284.037 64.0197 283.547 64.327 283.125 64.1262L271.689 58.6544V43.6094" stroke="#07643C" stroke-miterlimit="10"/>
<path d="M258.909 56.3441V63.552C258.909 64.0207 259.399 64.328 259.821 64.1262L271.257 58.6555V43.6094" stroke="#07643C" stroke-miterlimit="10"/>
<path d="M271.55 43.6094H258.068C257.846 43.6094 257.639 43.726 257.523 43.9144L251.013 54.6147C250.77 55.0151 251.028 55.5321 251.495 55.5781L263.909 56.8106C264.163 56.8353 264.409 56.7063 264.53 56.482L271.55 43.6094Z" stroke="#07643C" stroke-miterlimit="10"/>
<path d="M271.473 58.6328L277.646 61.5869L271.803 69.6381C271.544 69.9948 271.009 69.9858 270.76 69.6213L265.299 61.5869L271.473 58.6328Z" stroke="#07643C" stroke-miterlimit="10"/>
<path d="M166.905 87.1914H153.422C153.2 87.1914 152.993 87.0759 152.878 86.8863L146.367 76.1861C146.125 75.7857 146.382 75.2698 146.849 75.2238L159.263 73.9913C159.517 73.9666 159.763 74.0956 159.884 74.3199L166.905 87.1914Z" stroke="#07643C" stroke-miterlimit="10"/>
<path d="M154.697 74.4344V67.2254C154.697 66.7577 155.187 66.4504 155.609 66.6534L167.043 72.123V87.168" stroke="#07643C" stroke-miterlimit="10"/>
<path d="M179.823 74.4567V67.2476C179.823 66.78 179.334 66.4727 178.911 66.6757L167.477 72.1453V87.1914" stroke="#07643C" stroke-miterlimit="10"/>
<path d="M167.043 87.1914H180.526C180.748 87.1914 180.955 87.0759 181.07 86.8863L187.581 76.1861C187.823 75.7857 187.566 75.2698 187.099 75.2238L174.685 73.9913C174.431 73.9666 174.186 74.0956 174.064 74.3199L167.043 87.1914Z" stroke="#07643C" stroke-miterlimit="10"/>
<path d="M166.827 72.1508L160.653 69.1967L166.496 61.1455C166.756 60.7888 167.291 60.7967 167.539 61.1612L173 69.1967L166.827 72.1508Z" stroke="#07643C" stroke-miterlimit="10"/>
<path d="M167.043 87.168H180.526C180.748 87.168 180.955 87.2846 181.07 87.4741L187.581 98.1733C187.823 98.5737 187.566 99.0907 187.099 99.1367L174.685 100.369C174.431 100.394 174.186 100.265 174.064 100.041L167.043 87.168Z" stroke="#07643C" stroke-miterlimit="10"/>
<path d="M166.905 87.168H153.422C153.2 87.168 152.993 87.2846 152.878 87.4741L146.367 98.1733C146.125 98.5737 146.382 99.0907 146.849 99.1367L159.263 100.369C159.517 100.394 159.763 100.265 159.884 100.041L166.905 87.168Z" stroke="#07643C" stroke-miterlimit="10"/>
<path d="M209.241 87.1914H195.758C195.536 87.1914 195.329 87.0759 195.214 86.8863L188.703 76.1861C188.461 75.7857 188.718 75.2698 189.185 75.2238L201.599 73.9913C201.853 73.9666 202.099 74.0956 202.22 74.3199L209.241 87.1914Z" stroke="#07643C" stroke-miterlimit="10"/>
<path d="M196.236 74.4344V67.2254C196.236 66.7577 196.726 66.4504 197.148 66.6534L208.583 72.123V87.168" stroke="#07643C" stroke-miterlimit="10"/>
<path d="M221.363 74.4567V67.2476C221.363 66.78 220.873 66.4727 220.451 66.6757L209.016 72.1453V87.1914" stroke="#07643C" stroke-miterlimit="10"/>
<path d="M208.583 87.1914H222.065C222.288 87.1914 222.494 87.0759 222.61 86.8863L229.12 76.1861C229.363 75.7857 229.106 75.2698 228.638 75.2238L216.225 73.9913C215.971 73.9666 215.726 74.0956 215.603 74.3199L208.583 87.1914Z" stroke="#07643C" stroke-miterlimit="10"/>
<path d="M209.163 72.1508L202.989 69.1967L208.832 61.1455C209.092 60.7888 209.626 60.7967 209.875 61.1612L215.336 69.1967L209.163 72.1508Z" stroke="#07643C" stroke-miterlimit="10"/>
<path d="M208.583 87.168H222.065C222.288 87.168 222.494 87.2846 222.61 87.4741L229.12 98.1733C229.363 98.5737 229.106 99.0907 228.638 99.1367L216.225 100.369C215.971 100.394 215.726 100.265 215.603 100.041L208.583 87.168Z" stroke="#07643C" stroke-miterlimit="10"/>
<path d="M209.241 87.168H195.758C195.536 87.168 195.329 87.2846 195.214 87.4741L188.703 98.1733C188.461 98.5737 188.718 99.0907 189.185 99.1367L201.599 100.369C201.853 100.394 202.099 100.265 202.22 100.041L209.241 87.168Z" stroke="#07643C" stroke-miterlimit="10"/>
<path d="M250.78 87.1914H237.297C237.075 87.1914 236.868 87.0759 236.753 86.8863L230.242 76.1861C230 75.7857 230.257 75.2698 230.724 75.2238L243.137 73.9913C243.392 73.9666 243.637 74.0956 243.759 74.3199L250.78 87.1914Z" stroke="#07643C" stroke-miterlimit="10"/>
<path d="M238.572 74.4344V67.2254C238.572 66.7577 239.062 66.4504 239.484 66.6534L250.919 72.123V87.168" stroke="#07643C" stroke-miterlimit="10"/>
<path d="M262.902 74.4567V67.2476C262.902 66.78 262.413 66.4727 261.99 66.6757L250.556 72.1453V87.1914" stroke="#07643C" stroke-miterlimit="10"/>
<path d="M250.919 87.1914H264.401C264.624 87.1914 264.83 87.0759 264.945 86.8863L271.456 76.1861C271.699 75.7857 271.442 75.2698 270.974 75.2238L258.56 73.9913C258.306 73.9666 258.06 74.0956 257.939 74.3199L250.919 87.1914Z" stroke="#07643C" stroke-miterlimit="10"/>
<path d="M250.702 72.1508L244.529 69.1967L250.372 61.1455C250.63 60.7888 251.166 60.7967 251.414 61.1612L256.875 69.1967L250.702 72.1508Z" stroke="#07643C" stroke-miterlimit="10"/>
<path d="M250.919 87.168H264.401C264.624 87.168 264.83 87.2846 264.945 87.4741L271.456 98.1733C271.699 98.5737 271.442 99.0907 270.974 99.1367L258.56 100.369C258.306 100.394 258.06 100.265 257.939 100.041L250.919 87.168Z" stroke="#07643C" stroke-miterlimit="10"/>
<path d="M250.78 87.168H237.297C237.075 87.168 236.868 87.2846 236.753 87.4741L230.242 98.1733C230 98.5737 230.257 99.0907 230.724 99.1367L243.137 100.369C243.392 100.394 243.637 100.265 243.759 100.041L250.78 87.168Z" stroke="#07643C" stroke-miterlimit="10"/>
<path d="M292.32 87.1914H278.837C278.615 87.1914 278.408 87.0759 278.293 86.8863L271.782 76.1861C271.54 75.7857 271.797 75.2698 272.264 75.2238L284.678 73.9913C284.932 73.9666 285.177 74.0956 285.299 74.3199L292.32 87.1914Z" stroke="#07643C" stroke-miterlimit="10"/>
<path d="M280.111 74.4344V67.2254C280.111 66.7577 280.601 66.4504 281.024 66.6534L292.458 72.123V87.168" stroke="#07643C" stroke-miterlimit="10"/>
<path d="M292.242 72.1508L286.068 69.1967L291.911 61.1455C292.17 60.7888 292.706 60.7967 292.954 61.1612L298.415 69.1967L292.242 72.1508Z" stroke="#07643C" stroke-miterlimit="10"/>
<path d="M292.32 87.168H278.837C278.615 87.168 278.408 87.2846 278.293 87.4741L271.782 98.1733C271.54 98.5737 271.797 99.0907 272.264 99.1367L284.678 100.369C284.932 100.394 285.177 100.265 285.299 100.041L292.32 87.168Z" stroke="#07643C" stroke-miterlimit="10"/>
</g>
<mask id="mask1" mask-type="alpha" maskUnits="userSpaceOnUse" x="0" y="0" width="167" height="87">
<rect width="167" height="87" fill="#C4C4C4"/>
</mask>
<g mask="url(#mask1)">
<path d="M0.702431 0.0206451H-12.7797C-13.0021 0.0206451 -13.2088 -0.0959918 -13.3245 -0.284405L-19.8348 -10.9847C-20.0774 -11.3851 -19.8202 -11.9021 -19.3529 -11.9481L-6.93892 -13.1806C-6.68507 -13.2053 -6.43908 -13.0763 -6.31777 -12.852L0.702431 0.0206451Z" stroke="#07643C" stroke-miterlimit="10"/>
<path d="M-11.5058 -12.714V-19.922C-11.5058 -20.3908 -11.016 -20.6969 -10.5937 -20.4951L0.84082 -15.0243V0.0195312" stroke="#07643C" stroke-miterlimit="10"/>
<path d="M12.8247 -12.714V-19.922C12.8247 -20.3908 12.335 -20.6969 11.9126 -20.4951L0.478135 -15.0243V0.0195312" stroke="#07643C" stroke-miterlimit="10"/>
<path d="M0.84082 0.0206451H14.323C14.5454 0.0206451 14.7521 -0.0959918 14.8678 -0.284405L21.378 -10.9847C21.6206 -11.3851 21.3634 -11.9021 20.8961 -11.9481L8.48217 -13.1806C8.22832 -13.2053 7.98346 -13.0763 7.86102 -12.852L0.84082 0.0206451Z" stroke="#07643C" stroke-miterlimit="10"/>
<path d="M0.84082 0.0195312H14.323C14.5454 0.0195312 14.7521 0.136168 14.8678 0.324581L21.378 11.0249C21.6206 11.4253 21.3634 11.9411 20.8961 11.9882L8.48217 13.2197C8.22832 13.2455 7.98346 13.1154 7.86102 12.8911L0.84082 0.0195312Z" stroke="#07643C" stroke-miterlimit="10"/>
<path d="M13.1885 12.7531V19.9621C13.1885 20.4298 12.6988 20.7371 12.2764 20.5352L0.84082 15.0645V0.0195312" stroke="#07643C" stroke-miterlimit="10"/>
<path d="M-11.9385 12.7542V19.9621C-11.9385 20.4309 -11.4487 20.7382 -11.0264 20.5352L0.40921 15.0656V0.0195312" stroke="#07643C" stroke-miterlimit="10"/>
<path d="M0.702431 0.0195312H-12.7797C-13.0021 0.0195312 -13.2088 0.136168 -13.3245 0.324581L-19.8348 11.0249C-20.0774 11.4253 -19.8202 11.9411 -19.3529 11.9882L-6.93892 13.2197C-6.68507 13.2455 -6.43908 13.1154 -6.31777 12.8911L0.702431 0.0195312Z" stroke="#07643C" stroke-miterlimit="10"/>
<path d="M0.624462 15.0508L6.79775 18.0048L0.954693 26.0561C0.696349 26.4127 0.160567 26.4049 -0.0876677 26.0404L-5.54883 18.0048L0.624462 15.0508Z" stroke="#07643C" stroke-miterlimit="10"/>
<path d="M42.2415 0.0206451H28.7593C28.5369 0.0206451 28.3303 -0.0959918 28.2146 -0.284405L21.7043 -10.9847C21.4617 -11.3851 21.7189 -11.9021 22.1862 -11.9481L34.6001 -13.1806C34.854 -13.2053 35.1 -13.0763 35.2213 -12.852L42.2415 0.0206451Z" stroke="#07643C" stroke-miterlimit="10"/>
<path d="M30.0343 -12.714V-19.922C30.0343 -20.3908 30.524 -20.6969 30.9464 -20.4951L42.3809 -15.0243V0.0195312" stroke="#07643C" stroke-miterlimit="10"/>
<path d="M54.3643 -12.714V-19.922C54.3643 -20.3908 53.8745 -20.6969 53.4522 -20.4951L42.0177 -15.0243V0.0195312" stroke="#07643C" stroke-miterlimit="10"/>
<path d="M42.3809 0.0206451H55.863C56.0854 0.0206451 56.2921 -0.0959918 56.4078 -0.284405L62.918 -10.9847C63.1606 -11.3851 62.9034 -11.9021 62.4361 -11.9481L50.0222 -13.1806C49.7683 -13.2053 49.5235 -13.0763 49.4011 -12.852L42.3809 0.0206451Z" stroke="#07643C" stroke-miterlimit="10"/>
<path d="M42.3809 0.0195312H55.863C56.0854 0.0195312 56.2921 0.136168 56.4078 0.324581L62.918 11.0249C63.1606 11.4253 62.9034 11.9411 62.4361 11.9882L50.0222 13.2197C49.7683 13.2455 49.5235 13.1154 49.4011 12.8911L42.3809 0.0195312Z" stroke="#07643C" stroke-miterlimit="10"/>
<path d="M54.7285 12.7531V19.9621C54.7285 20.4298 54.2388 20.7371 53.8165 20.5352L42.3809 15.0645V0.0195312" stroke="#07643C" stroke-miterlimit="10"/>
<path d="M29.6006 12.7542V19.9621C29.6006 20.4309 30.0903 20.7382 30.5127 20.5352L41.9483 15.0656V0.0195312" stroke="#07643C" stroke-miterlimit="10"/>
<path d="M42.2415 0.0195312H28.7593C28.5369 0.0195312 28.3303 0.136168 28.2146 0.324581L21.7043 11.0249C21.4617 11.4253 21.7189 11.9411 22.1862 11.9882L34.6001 13.2197C34.854 13.2455 35.1 13.1154 35.2213 12.8911L42.2415 0.0195312Z" stroke="#07643C" stroke-miterlimit="10"/>
<path d="M42.164 15.0508L48.3373 18.0048L42.4942 26.0561C42.2359 26.4127 41.7001 26.4049 41.4519 26.0404L35.9907 18.0048L42.164 15.0508Z" stroke="#07643C" stroke-miterlimit="10"/>
<path d="M83.781 0.0206451H70.2989C70.0765 0.0206451 69.8698 -0.0959918 69.7552 -0.284405L63.2439 -10.9847C63.0012 -11.3851 63.2585 -11.9021 63.7257 -11.9481L76.1397 -13.1806C76.3935 -13.2053 76.6395 -13.0763 76.7608 -12.852L83.781 0.0206451Z" stroke="#07643C" stroke-miterlimit="10"/>
<path d="M71.5733 -12.714V-19.922C71.5733 -20.3908 72.0631 -20.6969 72.4854 -20.4951L83.9199 -15.0243V0.0195312" stroke="#07643C" stroke-miterlimit="10"/>
<path d="M96.7002 -12.714V-19.922C96.7002 -20.3908 96.2105 -20.6969 95.7881 -20.4951L84.3536 -15.0243V0.0195312" stroke="#07643C" stroke-miterlimit="10"/>
<path d="M83.9199 0.0206451H97.4021C97.6245 0.0206451 97.8311 -0.0959918 97.9468 -0.284405L104.457 -10.9847C104.7 -11.3851 104.442 -11.9021 103.975 -11.9481L91.5624 -13.1806C91.3074 -13.2053 91.0625 -13.0763 90.9401 -12.852L83.9199 0.0206451Z" stroke="#07643C" stroke-miterlimit="10"/>
<path d="M83.9199 0.0195312H97.4021C97.6245 0.0195312 97.8311 0.136168 97.9468 0.324581L104.457 11.0249C104.7 11.4253 104.442 11.9411 103.975 11.9882L91.5624 13.2197C91.3074 13.2455 91.0625 13.1154 90.9401 12.8911L83.9199 0.0195312Z" stroke="#07643C" stroke-miterlimit="10"/>
<path d="M96.2676 12.7531V19.9621C96.2676 20.4298 95.7779 20.7371 95.3556 20.5352L83.9199 15.0645V0.0195312" stroke="#07643C" stroke-miterlimit="10"/>
<path d="M71.9365 12.7542V19.9621C71.9365 20.4309 72.4263 20.7382 72.8486 20.5352L84.2842 15.0656V0.0195312" stroke="#07643C" stroke-miterlimit="10"/>
<path d="M83.781 0.0195312H70.2989C70.0765 0.0195312 69.8698 0.136168 69.7552 0.324581L63.2439 11.0249C63.0012 11.4253 63.2585 11.9411 63.7257 11.9882L76.1397 13.2197C76.3935 13.2455 76.6395 13.1154 76.7608 12.8911L83.781 0.0195312Z" stroke="#07643C" stroke-miterlimit="10"/>
<path d="M83.7036 15.0508L89.8768 18.0048L84.0338 26.0561C83.7754 26.4127 83.2397 26.4049 82.9914 26.0404L77.5303 18.0048L83.7036 15.0508Z" stroke="#07643C" stroke-miterlimit="10"/>
<path d="M125.321 0.0206451H111.838C111.616 0.0206451 111.409 -0.0959918 111.294 -0.284405L104.783 -10.9847C104.541 -11.3851 104.798 -11.9021 105.265 -11.9481L117.678 -13.1806C117.933 -13.2053 118.178 -13.0763 118.3 -12.852L125.321 0.0206451Z" stroke="#07643C" stroke-miterlimit="10"/>
<path d="M113.113 -12.714V-19.922C113.113 -20.3908 113.603 -20.6969 114.025 -20.4951L125.459 -15.0243V0.0195312" stroke="#07643C" stroke-miterlimit="10"/>
<path d="M138.239 -12.714V-19.922C138.239 -20.3908 137.75 -20.6969 137.327 -20.4951L125.893 -15.0243V0.0195312" stroke="#07643C" stroke-miterlimit="10"/>
<path d="M125.459 0.0206451H138.942C139.164 0.0206451 139.371 -0.0959918 139.485 -0.284405L145.997 -10.9847C146.239 -11.3851 145.982 -11.9021 145.515 -11.9481L133.101 -13.1806C132.847 -13.2053 132.601 -13.0763 132.48 -12.852L125.459 0.0206451Z" stroke="#07643C" stroke-miterlimit="10"/>
<path d="M125.459 0.0195312H138.942C139.164 0.0195312 139.371 0.136168 139.485 0.324581L145.997 11.0249C146.239 11.4253 145.982 11.9411 145.515 11.9882L133.101 13.2197C132.847 13.2455 132.601 13.1154 132.48 12.8911L125.459 0.0195312Z" stroke="#07643C" stroke-miterlimit="10"/>
<path d="M137.807 12.7531V19.9621C137.807 20.4298 137.317 20.7371 136.895 20.5352L125.459 15.0645V0.0195312" stroke="#07643C" stroke-miterlimit="10"/>
<path d="M113.476 12.7542V19.9621C113.476 20.4309 113.966 20.7382 114.388 20.5352L125.824 15.0656V0.0195312" stroke="#07643C" stroke-miterlimit="10"/>
<path d="M125.321 0.0195312H111.838C111.616 0.0195312 111.409 0.136168 111.294 0.324581L104.783 11.0249C104.541 11.4253 104.798 11.9411 105.265 11.9882L117.678 13.2197C117.933 13.2455 118.178 13.1154 118.3 12.8911L125.321 0.0195312Z" stroke="#07643C" stroke-miterlimit="10"/>
<path d="M126.039 15.0508L132.213 18.0048L126.37 26.0561C126.11 26.4127 125.576 26.4049 125.327 26.0404L119.866 18.0048L126.039 15.0508Z" stroke="#07643C" stroke-miterlimit="10"/>
<path d="M167.657 0.0206451H154.174C153.952 0.0206451 153.745 -0.0959918 153.63 -0.284405L147.119 -10.9847C146.877 -11.3851 147.134 -11.9021 147.601 -11.9481L160.015 -13.1806C160.269 -13.2053 160.514 -13.0763 160.636 -12.852L167.657 0.0206451Z" stroke="#07643C" stroke-miterlimit="10"/>
<path d="M154.652 -12.714V-19.922C154.652 -20.3908 155.142 -20.6969 155.565 -20.4951L166.999 -15.0243V0.0195312" stroke="#07643C" stroke-miterlimit="10"/>
<path d="M179.779 -12.714V-19.922C179.779 -20.3908 179.289 -20.6969 178.867 -20.4951L167.432 -15.0243V0.0195312" stroke="#07643C" stroke-miterlimit="10"/>
<path d="M166.999 0.0206451H180.481C180.704 0.0206451 180.91 -0.0959918 181.026 -0.284405L187.536 -10.9847C187.779 -11.3851 187.522 -11.9021 187.054 -11.9481L174.64 -13.1806C174.387 -13.2053 174.141 -13.0763 174.019 -12.852L166.999 0.0206451Z" stroke="#07643C" stroke-miterlimit="10"/>
<path d="M166.999 0.0195312H180.481C180.704 0.0195312 180.91 0.136168 181.026 0.324581L187.536 11.0249C187.779 11.4253 187.522 11.9411 187.054 11.9882L174.64 13.2197C174.387 13.2455 174.141 13.1154 174.019 12.8911L166.999 0.0195312Z" stroke="#07643C" stroke-miterlimit="10"/>
<path d="M179.347 12.7531V19.9621C179.347 20.4298 178.857 20.7371 178.435 20.5352L166.999 15.0645V0.0195312" stroke="#07643C" stroke-miterlimit="10"/>
<path d="M155.016 12.7542V19.9621C155.016 20.4309 155.505 20.7382 155.928 20.5352L167.363 15.0656V0.0195312" stroke="#07643C" stroke-miterlimit="10"/>
<path d="M167.657 0.0195312H154.174C153.952 0.0195312 153.745 0.136168 153.63 0.324581L147.119 11.0249C146.877 11.4253 147.134 11.9411 147.601 11.9882L160.015 13.2197C160.269 13.2455 160.514 13.1154 160.636 12.8911L167.657 0.0195312Z" stroke="#07643C" stroke-miterlimit="10"/>
<path d="M167.579 15.0508L173.752 18.0048L167.909 26.0561C167.649 26.4127 167.115 26.4049 166.866 26.0404L161.405 18.0048L167.579 15.0508Z" stroke="#07643C" stroke-miterlimit="10"/>
<path d="M-20.7256 43.6027H-7.24343C-7.02103 43.6027 -6.81435 43.486 -6.69866 43.2976L-0.188407 32.5973C0.0542111 32.197 -0.20301 31.68 -0.670275 31.634L-13.0842 30.4014C-13.3381 30.3768 -13.5841 30.5057 -13.7054 30.73L-20.7256 43.6027Z" stroke="#07643C" stroke-miterlimit="10"/>
<path d="M-20.7256 43.6094H-7.24343C-7.02103 43.6094 -6.81435 43.726 -6.69866 43.9144L-0.188407 54.6147C0.0542111 55.0151 -0.20301 55.5321 -0.670275 55.5781L-13.0842 56.8106C-13.3381 56.8353 -13.5841 56.7063 -13.7054 56.482L-20.7256 43.6094Z" stroke="#07643C" stroke-miterlimit="10"/>
<path d="M21.471 43.6027H7.98882C7.76642 43.6027 7.55974 43.486 7.44405 43.2976L0.933798 32.5973C0.69118 32.197 0.948401 31.68 1.41567 31.634L13.8296 30.4014C14.0835 30.3768 14.3283 30.5057 14.4508 30.73L21.471 43.6027Z" stroke="#07643C" stroke-miterlimit="10"/>
<path d="M9.26378 30.8758V23.6668C9.26378 23.1991 9.75351 22.8918 10.1758 23.0948L21.6104 28.5644V43.6094" stroke="#07643C" stroke-miterlimit="10"/>
<path d="M33.5938 30.8747V23.6656C33.5938 23.198 33.104 22.8907 32.6817 23.0937L21.2472 28.5633V43.6094" stroke="#07643C" stroke-miterlimit="10"/>
<path d="M21.6104 43.6027H35.0925C35.3149 43.6027 35.5216 43.486 35.6373 43.2976L42.1475 32.5973C42.3901 32.197 42.1329 31.68 41.6657 31.634L29.2517 30.4014C28.9979 30.3768 28.7519 30.5057 28.6306 30.73L21.6104 43.6027Z" stroke="#07643C" stroke-miterlimit="10"/>
<path d="M21.3935 28.5637L15.2202 25.6097L21.0633 17.5595C21.3216 17.2029 21.8574 17.2107 22.1056 17.5752L27.5668 25.6097L21.3935 28.5637Z" stroke="#07643C" stroke-miterlimit="10"/>
<path d="M21.6104 43.6094H35.0925C35.3149 43.6094 35.5216 43.726 35.6373 43.9144L42.1475 54.6147C42.3901 55.0151 42.1329 55.5321 41.6657 55.5781L29.2517 56.8106C28.9979 56.8353 28.7519 56.7063 28.6306 56.482L21.6104 43.6094Z" stroke="#07643C" stroke-miterlimit="10"/>
<path d="M33.958 56.343V63.552C33.958 64.0197 33.4683 64.327 33.046 64.1262L21.6104 58.6544V43.6094" stroke="#07643C" stroke-miterlimit="10"/>
<path d="M8.83008 56.3441V63.552C8.83008 64.0207 9.31981 64.328 9.74214 64.1262L21.1778 58.6555V43.6094" stroke="#07643C" stroke-miterlimit="10"/>
<path d="M21.471 43.6094H7.98882C7.76642 43.6094 7.55974 43.726 7.44405 43.9144L0.933798 54.6147C0.69118 55.0151 0.948401 55.5321 1.41567 55.5781L13.8296 56.8106C14.0835 56.8353 14.3283 56.7063 14.4508 56.482L21.471 43.6094Z" stroke="#07643C" stroke-miterlimit="10"/>
<path d="M21.3935 58.6328L27.5668 61.5869L21.7237 69.6381C21.4643 69.9948 20.9296 69.9858 20.6814 69.6213L15.2202 61.5869L21.3935 58.6328Z" stroke="#07643C" stroke-miterlimit="10"/>
<path d="M63.0108 43.6027H49.5287C49.3063 43.6027 49.0996 43.486 48.9839 43.2976L42.4737 32.5973C42.231 32.197 42.4894 31.68 42.9555 31.634L55.3695 30.4014C55.6233 30.3768 55.8682 30.5057 55.9918 30.73L63.0108 43.6027Z" stroke="#07643C" stroke-miterlimit="10"/>
<path d="M50.8029 30.8758V23.6668C50.8029 23.1991 51.2926 22.8918 51.7149 23.0948L63.1494 28.5644V43.6094" stroke="#07643C" stroke-miterlimit="10"/>
<path d="M75.1333 30.8747V23.6656C75.1333 23.198 74.6436 22.8907 74.2212 23.0937L62.7867 28.5633V43.6094" stroke="#07643C" stroke-miterlimit="10"/>
<path d="M63.1494 43.6027H76.6316C76.854 43.6027 77.0606 43.486 77.1763 43.2976L83.6866 32.5973C83.9292 32.197 83.672 31.68 83.2047 31.634L70.7908 30.4014C70.5369 30.3768 70.2909 30.5057 70.1696 30.73L63.1494 43.6027Z" stroke="#07643C" stroke-miterlimit="10"/>
<path d="M62.9331 28.5637L56.7598 25.6097L62.6028 17.5595C62.8612 17.2029 63.3969 17.2107 63.6452 17.5752L69.1063 25.6097L62.9331 28.5637Z" stroke="#07643C" stroke-miterlimit="10"/>
<path d="M63.1494 43.6094H76.6316C76.854 43.6094 77.0606 43.726 77.1763 43.9144L83.6866 54.6147C83.9292 55.0151 83.672 55.5321 83.2047 55.5781L70.7908 56.8106C70.5369 56.8353 70.2909 56.7063 70.1696 56.482L63.1494 43.6094Z" stroke="#07643C" stroke-miterlimit="10"/>
<path d="M75.4971 56.343V63.552C75.4971 64.0197 75.0074 64.327 74.585 64.1262L63.1494 58.6544V43.6094" stroke="#07643C" stroke-miterlimit="10"/>
<path d="M50.3701 56.3441V63.552C50.3701 64.0207 50.8598 64.328 51.2822 64.1262L62.7178 58.6555V43.6094" stroke="#07643C" stroke-miterlimit="10"/>
<path d="M63.0108 43.6094H49.5287C49.3063 43.6094 49.0996 43.726 48.9839 43.9144L42.4737 54.6147C42.231 55.0151 42.4894 55.5321 42.9555 55.5781L55.3695 56.8106C55.6233 56.8353 55.8682 56.7063 55.9918 56.482L63.0108 43.6094Z" stroke="#07643C" stroke-miterlimit="10"/>
<path d="M62.9331 58.6328L69.1063 61.5869L63.2633 69.6381C63.0049 69.9948 62.4692 69.9858 62.2209 69.6213L56.7598 61.5869L62.9331 58.6328Z" stroke="#07643C" stroke-miterlimit="10"/>
<path d="M104.55 43.6027H91.0679C90.8455 43.6027 90.6388 43.486 90.5231 43.2976L84.0129 32.5973C83.7703 32.1969 84.0275 31.6799 84.4948 31.634L96.9087 30.4014C97.1626 30.3767 97.4086 30.5068 97.5299 30.73L104.55 43.6027Z" stroke="#07643C" stroke-miterlimit="10"/>
<path d="M92.3429 30.8758V23.6668C92.3429 23.1991 92.8326 22.8918 93.255 23.0948L104.689 28.5644V43.6094" stroke="#07643C" stroke-miterlimit="10"/>
<path d="M116.673 30.8747V23.6656C116.673 23.198 116.183 22.8907 115.761 23.0937L104.326 28.5633V43.6094" stroke="#07643C" stroke-miterlimit="10"/>
<path d="M104.689 43.6027H118.172C118.394 43.6027 118.601 43.486 118.716 43.2976L125.227 32.5973C125.469 32.1969 125.212 31.6799 124.745 31.634L112.331 30.4014C112.077 30.3767 111.832 30.5068 111.71 30.73L104.689 43.6027Z" stroke="#07643C" stroke-miterlimit="10"/>
<path d="M104.473 28.5637L98.2993 25.6097L104.142 17.5595C104.401 17.2029 104.937 17.2107 105.185 17.5752L110.646 25.6097L104.473 28.5637Z" stroke="#07643C" stroke-miterlimit="10"/>
<path d="M104.689 43.6094H118.172C118.394 43.6094 118.601 43.726 118.716 43.9144L125.227 54.6147C125.469 55.0151 125.212 55.5321 124.745 55.5781L112.331 56.8106C112.077 56.8353 111.832 56.7063 111.71 56.482L104.689 43.6094Z" stroke="#07643C" stroke-miterlimit="10"/>
<path d="M117.037 56.343V63.552C117.037 64.0197 116.547 64.327 116.125 64.1262L104.689 58.6544V43.6094" stroke="#07643C" stroke-miterlimit="10"/>
<path d="M91.9092 56.3441V63.552C91.9092 64.0207 92.3989 64.328 92.8212 64.1262L104.257 58.6555V43.6094" stroke="#07643C" stroke-miterlimit="10"/>
<path d="M104.55 43.6094H91.0679C90.8455 43.6094 90.6388 43.726 90.5231 43.9144L84.0129 54.6147C83.7703 55.0151 84.0275 55.5321 84.4948 55.5781L96.9087 56.8106C97.1626 56.8353 97.4086 56.7063 97.5299 56.482L104.55 43.6094Z" stroke="#07643C" stroke-miterlimit="10"/>
<path d="M104.473 58.6328L110.646 61.5869L104.803 69.6381C104.544 69.9948 104.009 69.9858 103.76 69.6213L98.2993 61.5869L104.473 58.6328Z" stroke="#07643C" stroke-miterlimit="10"/>
<path d="M146.09 43.6027H132.607C132.385 43.6027 132.178 43.486 132.063 43.2976L125.552 32.5973C125.31 32.1969 125.567 31.6799 126.034 31.634L138.448 30.4014C138.702 30.3767 138.948 30.5068 139.069 30.73L146.09 43.6027Z" stroke="#07643C" stroke-miterlimit="10"/>
<path d="M133.882 30.8758V23.6668C133.882 23.1991 134.372 22.8918 134.794 23.0948L146.229 28.5644V43.6094" stroke="#07643C" stroke-miterlimit="10"/>
<path d="M159.009 30.8747V23.6656C159.009 23.198 158.519 22.8907 158.097 23.0937L146.662 28.5633V43.6094" stroke="#07643C" stroke-miterlimit="10"/>
<path d="M146.229 43.6027H159.711C159.933 43.6027 160.14 43.486 160.255 43.2976L166.766 32.5973C167.008 32.1969 166.751 31.6799 166.284 31.634L153.87 30.4014C153.616 30.3767 153.371 30.5068 153.249 30.73L146.229 43.6027Z" stroke="#07643C" stroke-miterlimit="10"/>
<path d="M146.012 28.5637L139.839 25.6097L145.682 17.5595C145.941 17.2029 146.476 17.2107 146.724 17.5752L152.185 25.6097L146.012 28.5637Z" stroke="#07643C" stroke-miterlimit="10"/>
<path d="M146.229 43.6094H159.711C159.933 43.6094 160.14 43.726 160.255 43.9144L166.766 54.6147C167.008 55.0151 166.751 55.5321 166.284 55.5781L153.87 56.8106C153.616 56.8353 153.371 56.7063 153.249 56.482L146.229 43.6094Z" stroke="#07643C" stroke-miterlimit="10"/>
<path d="M158.576 56.343V63.552C158.576 64.0197 158.086 64.327 157.664 64.1262L146.229 58.6544V43.6094" stroke="#07643C" stroke-miterlimit="10"/>
<path d="M134.245 56.3441V63.552C134.245 64.0207 134.735 64.328 135.157 64.1262L146.593 58.6555V43.6094" stroke="#07643C" stroke-miterlimit="10"/>
<path d="M146.09 43.6094H132.607C132.385 43.6094 132.178 43.726 132.063 43.9144L125.552 54.6147C125.31 55.0151 125.567 55.5321 126.034 55.5781L138.448 56.8106C138.702 56.8353 138.948 56.7063 139.069 56.482L146.09 43.6094Z" stroke="#07643C" stroke-miterlimit="10"/>
<path d="M146.012 58.6328L152.185 61.5869L146.342 69.6381C146.084 69.9948 145.548 69.9858 145.3 69.6213L139.839 61.5869L146.012 58.6328Z" stroke="#07643C" stroke-miterlimit="10"/>
<path d="M187.629 43.6027H174.147C173.925 43.6027 173.718 43.486 173.602 43.2976L167.092 32.5973C166.849 32.1969 167.107 31.6799 167.574 31.634L179.988 30.4014C180.242 30.3767 180.488 30.5068 180.609 30.73L187.629 43.6027Z" stroke="#07643C" stroke-miterlimit="10"/>
<path d="M187.629 43.6094H174.147C173.925 43.6094 173.718 43.726 173.602 43.9144L167.092 54.6147C166.849 55.0151 167.107 55.5321 167.574 55.5781L179.988 56.8106C180.242 56.8353 180.488 56.7063 180.609 56.482L187.629 43.6094Z" stroke="#07643C" stroke-miterlimit="10"/>
<path d="M-0.0954205 87.1914H-13.5776C-13.8 87.1914 -14.0067 87.0759 -14.1224 86.8863L-20.6326 76.1861C-20.8752 75.7857 -20.618 75.2698 -20.1507 75.2238L-7.73677 73.9913C-7.48292 73.9666 -7.23693 74.0956 -7.11563 74.3199L-0.0954205 87.1914Z" stroke="#07643C" stroke-miterlimit="10"/>
<path d="M-12.3031 74.4344V67.2254C-12.3031 66.7577 -11.8134 66.4504 -11.3911 66.6534L0.043457 72.123V87.168" stroke="#07643C" stroke-miterlimit="10"/>
<path d="M12.8232 74.4567V67.2476C12.8232 66.78 12.3335 66.4727 11.9112 66.6757L0.47667 72.1453V87.1914" stroke="#07643C" stroke-miterlimit="10"/>
<path d="M0.043457 87.1914H13.5256C13.748 87.1914 13.9547 87.0759 14.0704 86.8863L20.5806 76.1861C20.8233 75.7857 20.566 75.2698 20.0988 75.2238L7.68481 73.9913C7.43096 73.9666 7.18609 74.0956 7.06366 74.3199L0.043457 87.1914Z" stroke="#07643C" stroke-miterlimit="10"/>
<path d="M-0.173394 72.1508L-6.34668 69.1967L-0.503624 61.1455C-0.244157 60.7888 0.290501 60.7967 0.538736 61.1612L5.99989 69.1967L-0.173394 72.1508Z" stroke="#07643C" stroke-miterlimit="10"/>
<path d="M0.043457 87.168H13.5256C13.748 87.168 13.9547 87.2846 14.0704 87.4741L20.5806 98.1733C20.8233 98.5737 20.566 99.0907 20.0988 99.1367L7.68481 100.369C7.43096 100.394 7.18609 100.265 7.06366 100.041L0.043457 87.168Z" stroke="#07643C" stroke-miterlimit="10"/>
<path d="M-0.0954205 87.168H-13.5776C-13.8 87.168 -14.0067 87.2846 -14.1224 87.4741L-20.6326 98.1733C-20.8752 98.5737 -20.618 99.0907 -20.1507 99.1367L-7.73677 100.369C-7.48292 100.394 -7.23693 100.265 -7.11563 100.041L-0.0954205 87.168Z" stroke="#07643C" stroke-miterlimit="10"/>
<path d="M42.2405 87.1914H28.7584C28.536 87.1914 28.3293 87.0759 28.2136 86.8863L21.7033 76.1861C21.4607 75.7857 21.7179 75.2698 22.1852 75.2238L34.5992 73.9913C34.853 73.9666 35.099 74.0956 35.2203 74.3199L42.2405 87.1914Z" stroke="#07643C" stroke-miterlimit="10"/>
<path d="M29.2364 74.4344V67.2254C29.2364 66.7577 29.7262 66.4504 30.1485 66.6534L41.583 72.123V87.168" stroke="#07643C" stroke-miterlimit="10"/>
<path d="M54.3628 74.4567V67.2476C54.3628 66.78 53.8731 66.4727 53.4507 66.6757L42.0162 72.1453V87.1914" stroke="#07643C" stroke-miterlimit="10"/>
<path d="M41.583 87.1914H55.0652C55.2876 87.1914 55.4942 87.0759 55.6099 86.8863L62.1202 76.1861C62.3628 75.7857 62.1056 75.2698 61.6383 75.2238L49.2255 73.9913C48.9705 73.9666 48.7256 74.0956 48.6032 74.3199L41.583 87.1914Z" stroke="#07643C" stroke-miterlimit="10"/>
<path d="M42.1625 72.1508L35.9893 69.1967L41.8323 61.1455C42.0918 60.7888 42.6264 60.7967 42.8747 61.1612L48.3358 69.1967L42.1625 72.1508Z" stroke="#07643C" stroke-miterlimit="10"/>
<path d="M41.583 87.168H55.0652C55.2876 87.168 55.4942 87.2846 55.6099 87.4741L62.1202 98.1733C62.3628 98.5737 62.1056 99.0907 61.6383 99.1367L49.2255 100.369C48.9705 100.394 48.7256 100.265 48.6032 100.041L41.583 87.168Z" stroke="#07643C" stroke-miterlimit="10"/>
<path d="M42.2405 87.168H28.7584C28.536 87.168 28.3293 87.2846 28.2136 87.4741L21.7033 98.1733C21.4607 98.5737 21.7179 99.0907 22.1852 99.1367L34.5992 100.369C34.853 100.394 35.099 100.265 35.2203 100.041L42.2405 87.168Z" stroke="#07643C" stroke-miterlimit="10"/>
<path d="M83.7796 87.1914H70.2974C70.075 87.1914 69.8683 87.0759 69.7526 86.8863L63.2424 76.1861C62.9998 75.7857 63.257 75.2698 63.7243 75.2238L76.1371 73.9913C76.3921 73.9666 76.6369 74.0956 76.7594 74.3199L83.7796 87.1914Z" stroke="#07643C" stroke-miterlimit="10"/>
<path d="M71.5724 74.4344V67.2254C71.5724 66.7577 72.0621 66.4504 72.4844 66.6534L83.9189 72.123V87.168" stroke="#07643C" stroke-miterlimit="10"/>
<path d="M95.9023 74.4567V67.2476C95.9023 66.78 95.4126 66.4727 94.9903 66.6757L83.5558 72.1453V87.1914" stroke="#07643C" stroke-miterlimit="10"/>
<path d="M83.9189 87.1914H97.4011C97.6235 87.1914 97.8302 87.0759 97.9447 86.8863L104.456 76.1861C104.699 75.7857 104.442 75.2698 103.974 75.2238L91.5603 73.9913C91.3064 73.9666 91.0605 74.0956 90.9391 74.3199L83.9189 87.1914Z" stroke="#07643C" stroke-miterlimit="10"/>
<path d="M83.7021 72.1508L77.5288 69.1967L83.3719 61.1455C83.6302 60.7888 84.166 60.7967 84.4142 61.1612L89.8754 69.1967L83.7021 72.1508Z" stroke="#07643C" stroke-miterlimit="10"/>
<path d="M83.9189 87.168H97.4011C97.6235 87.168 97.8302 87.2846 97.9447 87.4741L104.456 98.1733C104.699 98.5737 104.442 99.0907 103.974 99.1367L91.5603 100.369C91.3064 100.394 91.0605 100.265 90.9391 100.041L83.9189 87.168Z" stroke="#07643C" stroke-miterlimit="10"/>
<path d="M83.7796 87.168H70.2974C70.075 87.168 69.8683 87.2846 69.7526 87.4741L63.2424 98.1733C62.9998 98.5737 63.257 99.0907 63.7243 99.1367L76.1371 100.369C76.3921 100.394 76.6369 100.265 76.7594 100.041L83.7796 87.168Z" stroke="#07643C" stroke-miterlimit="10"/>
<path d="M125.32 87.1914H111.837C111.615 87.1914 111.408 87.0759 111.293 86.8863L104.782 76.1861C104.54 75.7857 104.797 75.2698 105.264 75.2238L117.678 73.9913C117.932 73.9666 118.177 74.0956 118.299 74.3199L125.32 87.1914Z" stroke="#07643C" stroke-miterlimit="10"/>
<path d="M113.111 74.4344V67.2254C113.111 66.7577 113.601 66.4504 114.024 66.6534L125.458 72.123V87.168" stroke="#07643C" stroke-miterlimit="10"/>
<path d="M137.442 74.4567V67.2476C137.442 66.78 136.952 66.4727 136.53 66.6757L125.095 72.1453V87.1914" stroke="#07643C" stroke-miterlimit="10"/>
<path d="M125.458 87.1914H138.94C139.163 87.1914 139.369 87.0759 139.485 86.8863L145.995 76.1861C146.238 75.7857 145.981 75.2698 145.513 75.2238L133.099 73.9913C132.846 73.9666 132.6 74.0956 132.478 74.3199L125.458 87.1914Z" stroke="#07643C" stroke-miterlimit="10"/>
<path d="M125.242 72.1508L119.068 69.1967L124.911 61.1455C125.17 60.7888 125.706 60.7967 125.954 61.1612L131.415 69.1967L125.242 72.1508Z" stroke="#07643C" stroke-miterlimit="10"/>
<path d="M125.458 87.168H138.94C139.163 87.168 139.369 87.2846 139.485 87.4741L145.995 98.1733C146.238 98.5737 145.981 99.0907 145.513 99.1367L133.099 100.369C132.846 100.394 132.6 100.265 132.478 100.041L125.458 87.168Z" stroke="#07643C" stroke-miterlimit="10"/>
<path d="M125.32 87.168H111.837C111.615 87.168 111.408 87.2846 111.293 87.4741L104.782 98.1733C104.54 98.5737 104.797 99.0907 105.264 99.1367L117.678 100.369C117.932 100.394 118.177 100.265 118.299 100.041L125.32 87.168Z" stroke="#07643C" stroke-miterlimit="10"/>
<path d="M166.859 87.1914H153.377C153.154 87.1914 152.947 87.0759 152.832 86.8863L146.321 76.1861C146.079 75.7857 146.336 75.2698 146.803 75.2238L159.217 73.9913C159.471 73.9666 159.716 74.0956 159.838 74.3199L166.859 87.1914Z" stroke="#07643C" stroke-miterlimit="10"/>
<path d="M154.651 74.4344V67.2254C154.651 66.7577 155.141 66.4504 155.564 66.6534L166.998 72.123V87.168" stroke="#07643C" stroke-miterlimit="10"/>
<path d="M178.981 74.4567V67.2476C178.981 66.78 178.492 66.4727 178.069 66.6757L166.635 72.1453V87.1914" stroke="#07643C" stroke-miterlimit="10"/>
<path d="M166.998 87.1914H180.48C180.703 87.1914 180.909 87.0759 181.025 86.8863L187.535 76.1861C187.778 75.7857 187.521 75.2698 187.053 75.2238L174.639 73.9913C174.386 73.9666 174.14 74.0956 174.018 74.3199L166.998 87.1914Z" stroke="#07643C" stroke-miterlimit="10"/>
<path d="M166.781 72.1508L160.608 69.1967L166.451 61.1455C166.709 60.7888 167.245 60.7967 167.493 61.1612L172.954 69.1967L166.781 72.1508Z" stroke="#07643C" stroke-miterlimit="10"/>
<path d="M166.998 87.168H180.48C180.703 87.168 180.909 87.2846 181.025 87.4741L187.535 98.1733C187.778 98.5737 187.521 99.0907 187.053 99.1367L174.639 100.369C174.386 100.394 174.14 100.265 174.018 100.041L166.998 87.168Z" stroke="#07643C" stroke-miterlimit="10"/>
<path d="M166.859 87.168H153.377C153.154 87.168 152.947 87.2846 152.832 87.4741L146.321 98.1733C146.079 98.5737 146.336 99.0907 146.803 99.1367L159.217 100.369C159.471 100.394 159.716 100.265 159.838 100.041L166.859 87.168Z" stroke="#07643C" stroke-miterlimit="10"/>
</g>
<line x1="0.5" y1="87" x2="0.500004" y2="-2.18557e-08" stroke="#07643C"/>
</svg>
