<svg width="290" height="263" viewBox="0 0 290 263" fill="none" xmlns="http://www.w3.org/2000/svg">
<line x1="0.5" y1="263" x2="0.499988" y2="2.18557e-08" stroke="#772827"/>
<g clip-path="url(#clip0)">
<path d="M8.34312 -11.4321H10.0502C9.57893 -10.9747 8.8144 -10.9747 8.34312 -11.4321ZM46.3294 -11.4321H48.0371C47.5652 -10.9747 46.8013 -10.9747 46.3294 -11.4321ZM84.3163 -11.4321H86.0234C85.5521 -10.9747 84.7882 -10.9747 84.3163 -11.4321ZM122.303 -11.4321H124.01C123.539 -10.9747 122.774 -10.9747 122.303 -11.4321ZM160.289 -11.4321H161.997C161.526 -10.9747 160.761 -10.9747 160.289 -11.4321ZM198.276 -11.4321H199.983C199.512 -10.9747 198.748 -10.9747 198.276 -11.4321ZM236.263 -11.4321H237.97C237.499 -10.9747 236.734 -10.9747 236.263 -11.4321ZM274.249 -11.4321H275.957C275.485 -10.9747 274.721 -10.9747 274.249 -11.4321ZM10.0502 -11.4321L20.4165 -21.4778C20.8878 -21.9345 21.6523 -21.9345 22.1236 -21.4778L35.5081 -8.5064C35.9794 -8.04966 35.9794 -7.30871 35.5081 -6.85197L10.0502 17.8201C9.57893 18.2769 8.8144 18.2769 8.34312 17.8201L-17.1148 -6.85197C-17.5867 -7.30871 -17.5867 -8.04966 -17.1148 -8.5064L-3.73095 -21.4778C-3.25901 -21.9345 -2.49448 -21.9345 -2.02319 -21.4778L8.34312 -11.4321C8.8144 -10.9747 9.57893 -10.9747 10.0502 -11.4321ZM48.0371 -11.4321L58.4028 -21.4778C58.8747 -21.9345 59.6392 -21.9345 60.1105 -21.4778L73.495 -8.5064C73.9663 -8.04966 73.9663 -7.30871 73.495 -6.85197L48.0371 17.8201C47.5652 18.2769 46.8013 18.2769 46.3294 17.8201L20.8714 -6.85197C20.4008 -7.30871 20.4008 -8.04966 20.8714 -8.5064L34.256 -21.4778C34.7279 -21.9345 35.4918 -21.9345 35.9637 -21.4778L46.3294 -11.4321C46.8013 -10.9747 47.5652 -10.9747 48.0371 -11.4321ZM86.0234 -11.4321L96.3897 -21.4778C96.861 -21.9345 97.6255 -21.9345 98.0974 -21.4778L111.481 -8.5064C111.953 -8.04966 111.953 -7.30871 111.481 -6.85197L86.0234 17.8201C85.5521 18.2769 84.7882 18.2769 84.3163 17.8201L58.8584 -6.85197C58.3871 -7.30871 58.3871 -8.04966 58.8584 -8.5064L72.2429 -21.4778C72.7141 -21.9345 73.4787 -21.9345 73.95 -21.4778L84.3163 -11.4321C84.7882 -10.9747 85.5521 -10.9747 86.0234 -11.4321ZM124.01 -11.4321L134.377 -21.4778C134.848 -21.9345 135.612 -21.9345 136.084 -21.4778L149.468 -8.5064C149.939 -8.04966 149.939 -7.30871 149.468 -6.85197L124.01 17.8201C123.539 18.2769 122.774 18.2769 122.303 17.8201L96.8453 -6.85197C96.374 -7.30871 96.374 -8.04966 96.8453 -8.5064L110.23 -21.4778C110.701 -21.9345 111.466 -21.9345 111.937 -21.4778L122.303 -11.4321C122.774 -10.9747 123.539 -10.9747 124.01 -11.4321ZM161.997 -11.4321L172.363 -21.4778C172.835 -21.9345 173.599 -21.9345 174.071 -21.4778L187.455 -8.5064C187.926 -8.04966 187.926 -7.30871 187.455 -6.85197L161.997 17.8201C161.526 18.2769 160.761 18.2769 160.289 17.8201L134.831 -6.85197C134.36 -7.30871 134.36 -8.04966 134.831 -8.5064L148.216 -21.4778C148.688 -21.9345 149.452 -21.9345 149.924 -21.4778L160.289 -11.4321C160.761 -10.9747 161.526 -10.9747 161.997 -11.4321ZM199.983 -11.4321L210.35 -21.4778C210.821 -21.9345 211.586 -21.9345 212.057 -21.4778L225.441 -8.5064C225.913 -8.04966 225.913 -7.30871 225.441 -6.85197L199.983 17.8201C199.512 18.2769 198.748 18.2769 198.276 17.8201L172.818 -6.85197C172.347 -7.30871 172.347 -8.04966 172.818 -8.5064L186.203 -21.4778C186.674 -21.9345 187.439 -21.9345 187.91 -21.4778L198.276 -11.4321C198.748 -10.9747 199.512 -10.9747 199.983 -11.4321ZM237.97 -11.4321L248.337 -21.4778C248.808 -21.9345 249.572 -21.9345 250.044 -21.4778L263.428 -8.5064C263.9 -8.04966 263.9 -7.30871 263.428 -6.85197L237.97 17.8201C237.499 18.2769 236.734 18.2769 236.263 17.8201L210.805 -6.85197C210.333 -7.30871 210.333 -8.04966 210.805 -8.5064L224.189 -21.4778C224.661 -21.9345 225.426 -21.9345 225.897 -21.4778L236.263 -11.4321C236.734 -10.9747 237.499 -10.9747 237.97 -11.4321ZM275.957 -11.4321L286.323 -21.4778C286.795 -21.9345 287.559 -21.9345 288.031 -21.4778L301.414 -8.5064C301.886 -8.04966 301.886 -7.30871 301.414 -6.85197L275.957 17.8201C275.485 18.2769 274.721 18.2769 274.249 17.8201L248.792 -6.85197C248.32 -7.30871 248.32 -8.04966 248.792 -8.5064L262.176 -21.4778C262.648 -21.9345 263.412 -21.9345 263.884 -21.4778L274.249 -11.4321C274.721 -10.9747 275.485 -10.9747 275.957 -11.4321ZM10.0502 17.8201L20.4165 7.77444C20.8878 7.31707 21.6523 7.31707 22.1236 7.77444L35.5081 20.7451C35.9794 21.2025 35.9794 21.9435 35.5081 22.4002L10.0502 47.0723C9.57893 47.529 8.8144 47.529 8.34312 47.0723L-17.1148 22.4002C-17.5867 21.9435 -17.5867 21.2025 -17.1148 20.7451L-3.73095 7.77444C-3.25901 7.31707 -2.49448 7.31707 -2.02319 7.77444L8.34312 17.8201C8.8144 18.2769 9.57893 18.2769 10.0502 17.8201ZM48.0371 17.8201L58.4028 7.77444C58.8747 7.31707 59.6392 7.31707 60.1105 7.77444L73.495 20.7451C73.9663 21.2025 73.9663 21.9435 73.495 22.4002L48.0371 47.0723C47.5652 47.529 46.8013 47.529 46.3294 47.0723L20.8714 22.4002C20.4008 21.9435 20.4008 21.2025 20.8714 20.7451L34.256 7.77444C34.7279 7.31707 35.4918 7.31707 35.9637 7.77444L46.3294 17.8201C46.8013 18.2769 47.5652 18.2769 48.0371 17.8201ZM86.0234 17.8201L96.3897 7.77444C96.861 7.31707 97.6255 7.31707 98.0974 7.77444L111.481 20.7451C111.953 21.2025 111.953 21.9435 111.481 22.4002L86.0234 47.0723C85.5521 47.529 84.7882 47.529 84.3163 47.0723L58.8584 22.4002C58.3871 21.9435 58.3871 21.2025 58.8584 20.7451L72.2429 7.77444C72.7141 7.31707 73.4787 7.31707 73.95 7.77444L84.3163 17.8201C84.7882 18.2769 85.5521 18.2769 86.0234 17.8201ZM124.01 17.8201L134.377 7.77444C134.848 7.31707 135.612 7.31707 136.084 7.77444L149.468 20.7451C149.939 21.2025 149.939 21.9435 149.468 22.4002L124.01 47.0723C123.539 47.529 122.774 47.529 122.303 47.0723L96.8453 22.4002C96.374 21.9435 96.374 21.2025 96.8453 20.7451L110.23 7.77444C110.701 7.31707 111.466 7.31707 111.937 7.77444L122.303 17.8201C122.774 18.2769 123.539 18.2769 124.01 17.8201ZM161.997 17.8201L172.363 7.77444C172.835 7.31707 173.599 7.31707 174.071 7.77444L187.455 20.7451C187.926 21.2025 187.926 21.9435 187.455 22.4002L161.997 47.0723C161.526 47.529 160.761 47.529 160.289 47.0723L134.831 22.4002C134.36 21.9435 134.36 21.2025 134.831 20.7451L148.216 7.77444C148.688 7.31707 149.452 7.31707 149.924 7.77444L160.289 17.8201C160.761 18.2769 161.526 18.2769 161.997 17.8201ZM199.983 17.8201L210.35 7.77444C210.821 7.31707 211.586 7.31707 212.057 7.77444L225.441 20.7451C225.913 21.2025 225.913 21.9435 225.441 22.4002L199.983 47.0723C199.512 47.529 198.748 47.529 198.276 47.0723L172.818 22.4002C172.347 21.9435 172.347 21.2025 172.818 20.7451L186.203 7.77444C186.674 7.31707 187.439 7.31707 187.91 7.77444L198.276 17.8201C198.748 18.2769 199.512 18.2769 199.983 17.8201ZM237.97 17.8201L248.337 7.77444C248.808 7.31707 249.572 7.31707 250.044 7.77444L263.428 20.7451C263.9 21.2025 263.9 21.9435 263.428 22.4002L237.97 47.0723C237.499 47.529 236.734 47.529 236.263 47.0723L210.805 22.4002C210.333 21.9435 210.333 21.2025 210.805 20.7451L224.189 7.77444C224.661 7.31707 225.426 7.31707 225.897 7.77444L236.263 17.8201C236.734 18.2769 237.499 18.2769 237.97 17.8201ZM275.957 17.8201L286.323 7.77444C286.795 7.31707 287.559 7.31707 288.031 7.77444L301.414 20.7451C301.886 21.2025 301.886 21.9435 301.414 22.4002L275.957 47.0723C275.485 47.529 274.721 47.529 274.249 47.0723L248.792 22.4002C248.32 21.9435 248.32 21.2025 248.792 20.7451L262.176 7.77444C262.648 7.31707 263.412 7.31707 263.884 7.77444L274.249 17.8201C274.721 18.2769 275.485 18.2769 275.957 17.8201ZM10.0502 47.0723L20.4165 37.026C20.8878 36.5692 21.6523 36.5692 22.1236 37.026L35.5081 49.9973C35.9794 50.4541 35.9794 51.195 35.5081 51.6524L10.0502 76.3238C9.57893 76.7806 8.8144 76.7806 8.34312 76.3238L-17.1148 51.6524C-17.5867 51.195 -17.5867 50.4541 -17.1148 49.9973L-3.73095 37.026C-3.25901 36.5692 -2.49448 36.5692 -2.02319 37.026L8.34312 47.0723C8.8144 47.529 9.57893 47.529 10.0502 47.0723ZM48.0371 47.0723L58.4028 37.026C58.8747 36.5692 59.6392 36.5692 60.1105 37.026L73.495 49.9973C73.9663 50.4541 73.9663 51.195 73.495 51.6524L48.0371 76.3238C47.5652 76.7806 46.8013 76.7806 46.3294 76.3238L20.8714 51.6524C20.4008 51.195 20.4008 50.4541 20.8714 49.9973L34.256 37.026C34.7279 36.5692 35.4918 36.5692 35.9637 37.026L46.3294 47.0723C46.8013 47.529 47.5652 47.529 48.0371 47.0723ZM86.0234 47.0723L96.3897 37.026C96.861 36.5692 97.6255 36.5692 98.0974 37.026L111.481 49.9973C111.953 50.4541 111.953 51.195 111.481 51.6524L86.0234 76.3238C85.5521 76.7806 84.7882 76.7806 84.3163 76.3238L58.8584 51.6524C58.3871 51.195 58.3871 50.4541 58.8584 49.9973L72.2429 37.026C72.7141 36.5692 73.4787 36.5692 73.95 37.026L84.3163 47.0723C84.7882 47.529 85.5521 47.529 86.0234 47.0723ZM124.01 47.0723L134.377 37.026C134.848 36.5692 135.612 36.5692 136.084 37.026L149.468 49.9973C149.939 50.4541 149.939 51.195 149.468 51.6524L124.01 76.3238C123.539 76.7806 122.774 76.7806 122.303 76.3238L96.8453 51.6524C96.374 51.195 96.374 50.4541 96.8453 49.9973L110.23 37.026C110.701 36.5692 111.466 36.5692 111.937 37.026L122.303 47.0723C122.774 47.529 123.539 47.529 124.01 47.0723ZM161.997 47.0723L172.363 37.026C172.835 36.5692 173.599 36.5692 174.071 37.026L187.455 49.9973C187.926 50.4541 187.926 51.195 187.455 51.6524L161.997 76.3238C161.526 76.7806 160.761 76.7806 160.289 76.3238L134.831 51.6524C134.36 51.195 134.36 50.4541 134.831 49.9973L148.216 37.026C148.688 36.5692 149.452 36.5692 149.924 37.026L160.289 47.0723C160.761 47.529 161.526 47.529 161.997 47.0723ZM199.983 47.0723L210.35 37.026C210.821 36.5692 211.586 36.5692 212.057 37.026L225.441 49.9973C225.913 50.4541 225.913 51.195 225.441 51.6524L199.983 76.3238C199.512 76.7806 198.748 76.7806 198.276 76.3238L172.818 51.6524C172.347 51.195 172.347 50.4541 172.818 49.9973L186.203 37.026C186.674 36.5692 187.439 36.5692 187.91 37.026L198.276 47.0723C198.748 47.529 199.512 47.529 199.983 47.0723ZM237.97 47.0723L248.337 37.026C248.808 36.5692 249.572 36.5692 250.044 37.026L263.428 49.9973C263.9 50.4541 263.9 51.195 263.428 51.6524L237.97 76.3238C237.499 76.7806 236.734 76.7806 236.263 76.3238L210.805 51.6524C210.333 51.195 210.333 50.4541 210.805 49.9973L224.189 37.026C224.661 36.5692 225.426 36.5692 225.897 37.026L236.263 47.0723C236.734 47.529 237.499 47.529 237.97 47.0723ZM275.957 47.0723L286.323 37.026C286.795 36.5692 287.559 36.5692 288.031 37.026L301.414 49.9973C301.886 50.4541 301.886 51.195 301.414 51.6524L275.957 76.3238C275.485 76.7806 274.721 76.7806 274.249 76.3238L248.792 51.6524C248.32 51.195 248.32 50.4541 248.792 49.9973L262.176 37.026C262.648 36.5692 263.412 36.5692 263.884 37.026L274.249 47.0723C274.721 47.529 275.485 47.529 275.957 47.0723ZM10.0502 76.3238L20.4165 66.2781C20.8878 65.8214 21.6523 65.8214 22.1236 66.2781L35.5081 79.2495C35.9794 79.7062 35.9794 80.4472 35.5081 80.9039L10.0502 105.576C9.57893 106.033 8.8144 106.033 8.34312 105.576L-17.1148 80.9039C-17.5867 80.4472 -17.5867 79.7062 -17.1148 79.2495L-3.73095 66.2781C-3.25901 65.8214 -2.49448 65.8214 -2.02319 66.2781L8.34312 76.3238C8.8144 76.7806 9.57893 76.7806 10.0502 76.3238ZM48.0371 76.3238L58.4028 66.2781C58.8747 65.8214 59.6392 65.8214 60.1105 66.2781L73.495 79.2495C73.9663 79.7062 73.9663 80.4472 73.495 80.9039L48.0371 105.576C47.5652 106.033 46.8013 106.033 46.3294 105.576L20.8714 80.9039C20.4008 80.4472 20.4008 79.7062 20.8714 79.2495L34.256 66.2781C34.7279 65.8214 35.4918 65.8214 35.9637 66.2781L46.3294 76.3238C46.8013 76.7806 47.5652 76.7806 48.0371 76.3238ZM86.0234 76.3238L96.3897 66.2781C96.861 65.8214 97.6255 65.8214 98.0974 66.2781L111.481 79.2495C111.953 79.7062 111.953 80.4472 111.481 80.9039L86.0234 105.576C85.5521 106.033 84.7882 106.033 84.3163 105.576L58.8584 80.9039C58.3871 80.4472 58.3871 79.7062 58.8584 79.2495L72.2429 66.2781C72.7141 65.8214 73.4787 65.8214 73.95 66.2781L84.3163 76.3238C84.7882 76.7806 85.5521 76.7806 86.0234 76.3238ZM124.01 76.3238L134.377 66.2781C134.848 65.8214 135.612 65.8214 136.084 66.2781L149.468 79.2495C149.939 79.7062 149.939 80.4472 149.468 80.9039L124.01 105.576C123.539 106.033 122.774 106.033 122.303 105.576L96.8453 80.9039C96.374 80.4472 96.374 79.7062 96.8453 79.2495L110.23 66.2781C110.701 65.8214 111.466 65.8214 111.937 66.2781L122.303 76.3238C122.774 76.7806 123.539 76.7806 124.01 76.3238ZM161.997 76.3238L172.363 66.2781C172.835 65.8214 173.599 65.8214 174.071 66.2781L187.455 79.2495C187.926 79.7062 187.926 80.4472 187.455 80.9039L161.997 105.576C161.526 106.033 160.761 106.033 160.289 105.576L134.831 80.9039C134.36 80.4472 134.36 79.7062 134.831 79.2495L148.216 66.2781C148.688 65.8214 149.452 65.8214 149.924 66.2781L160.289 76.3238C160.761 76.7806 161.526 76.7806 161.997 76.3238ZM199.983 76.3238L210.35 66.2781C210.821 65.8214 211.586 65.8214 212.057 66.2781L225.441 79.2495C225.913 79.7062 225.913 80.4472 225.441 80.9039L199.983 105.576C199.512 106.033 198.748 106.033 198.276 105.576L172.818 80.9039C172.347 80.4472 172.347 79.7062 172.818 79.2495L186.203 66.2781C186.674 65.8214 187.439 65.8214 187.91 66.2781L198.276 76.3238C198.748 76.7806 199.512 76.7806 199.983 76.3238ZM237.97 76.3238L248.337 66.2781C248.808 65.8214 249.572 65.8214 250.044 66.2781L263.428 79.2495C263.9 79.7062 263.9 80.4472 263.428 80.9039L237.97 105.576C237.499 106.033 236.734 106.033 236.263 105.576L210.805 80.9039C210.333 80.4472 210.333 79.7062 210.805 79.2495L224.189 66.2781C224.661 65.8214 225.426 65.8214 225.897 66.2781L236.263 76.3238C236.734 76.7806 237.499 76.7806 237.97 76.3238ZM275.957 76.3238L286.323 66.2781C286.795 65.8214 287.559 65.8214 288.031 66.2781L301.414 79.2495C301.886 79.7062 301.886 80.4472 301.414 80.9039L275.957 105.576C275.485 106.033 274.721 106.033 274.249 105.576L248.792 80.9039C248.32 80.4472 248.32 79.7062 248.792 79.2495L262.176 66.2781C262.648 65.8214 263.412 65.8214 263.884 66.2781L274.249 76.3238C274.721 76.7806 275.485 76.7806 275.957 76.3238ZM10.0502 105.576L20.4165 95.5303C20.8878 95.0729 21.6523 95.0729 22.1236 95.5303L35.5081 108.501C35.9794 108.958 35.9794 109.699 35.5081 110.156L10.0502 134.828C9.57893 135.285 8.8144 135.285 8.34312 134.828L-17.1148 110.156C-17.5867 109.699 -17.5867 108.958 -17.1148 108.501L-3.73095 95.5303C-3.25901 95.0729 -2.49448 95.0729 -2.02319 95.5303L8.34312 105.576C8.8144 106.033 9.57893 106.033 10.0502 105.576ZM48.0371 105.576L58.4028 95.5303C58.8747 95.0729 59.6392 95.0729 60.1105 95.5303L73.495 108.501C73.9663 108.958 73.9663 109.699 73.495 110.156L48.0371 134.828C47.5652 135.285 46.8013 135.285 46.3294 134.828L20.8714 110.156C20.4008 109.699 20.4008 108.958 20.8714 108.501L34.256 95.5303C34.7279 95.0729 35.4918 95.0729 35.9637 95.5303L46.3294 105.576C46.8013 106.033 47.5652 106.033 48.0371 105.576ZM86.0234 105.576L96.3897 95.5303C96.861 95.0729 97.6255 95.0729 98.0974 95.5303L111.481 108.501C111.953 108.958 111.953 109.699 111.481 110.156L86.0234 134.828C85.5521 135.285 84.7882 135.285 84.3163 134.828L58.8584 110.156C58.3871 109.699 58.3871 108.958 58.8584 108.501L72.2429 95.5303C72.7141 95.0729 73.4787 95.0729 73.95 95.5303L84.3163 105.576C84.7882 106.033 85.5521 106.033 86.0234 105.576ZM124.01 105.576L134.377 95.5303C134.848 95.0729 135.612 95.0729 136.084 95.5303L149.468 108.501C149.939 108.958 149.939 109.699 149.468 110.156L124.01 134.828C123.539 135.285 122.774 135.285 122.303 134.828L96.8453 110.156C96.374 109.699 96.374 108.958 96.8453 108.501L110.23 95.5303C110.701 95.0729 111.466 95.0729 111.937 95.5303L122.303 105.576C122.774 106.033 123.539 106.033 124.01 105.576ZM161.997 105.576L172.363 95.5303C172.835 95.0729 173.599 95.0729 174.071 95.5303L187.455 108.501C187.926 108.958 187.926 109.699 187.455 110.156L161.997 134.828C161.526 135.285 160.761 135.285 160.289 134.828L134.831 110.156C134.36 109.699 134.36 108.958 134.831 108.501L148.216 95.5303C148.688 95.0729 149.452 95.0729 149.924 95.5303L160.289 105.576C160.761 106.033 161.526 106.033 161.997 105.576ZM199.983 105.576L210.35 95.5303C210.821 95.0729 211.586 95.0729 212.057 95.5303L225.441 108.501C225.913 108.958 225.913 109.699 225.441 110.156L199.983 134.828C199.512 135.285 198.748 135.285 198.276 134.828L172.818 110.156C172.347 109.699 172.347 108.958 172.818 108.501L186.203 95.5303C186.674 95.0729 187.439 95.0729 187.91 95.5303L198.276 105.576C198.748 106.033 199.512 106.033 199.983 105.576ZM237.97 105.576L248.337 95.5303C248.808 95.0729 249.572 95.0729 250.044 95.5303L263.428 108.501C263.9 108.958 263.9 109.699 263.428 110.156L237.97 134.828C237.499 135.285 236.734 135.285 236.263 134.828L210.805 110.156C210.333 109.699 210.333 108.958 210.805 108.501L224.189 95.5303C224.661 95.0729 225.426 95.0729 225.897 95.5303L236.263 105.576C236.734 106.033 237.499 106.033 237.97 105.576ZM275.957 105.576L286.323 95.5303C286.795 95.0729 287.559 95.0729 288.031 95.5303L301.414 108.501C301.886 108.958 301.886 109.699 301.414 110.156L275.957 134.828C275.485 135.285 274.721 135.285 274.249 134.828L248.792 110.156C248.32 109.699 248.32 108.958 248.792 108.501L262.176 95.5303C262.648 95.0729 263.412 95.0729 263.884 95.5303L274.249 105.576C274.721 106.033 275.485 106.033 275.957 105.576ZM10.0502 134.828L20.4165 124.782C20.8878 124.325 21.6523 124.325 22.1236 124.782L35.5081 137.753C35.9794 138.21 35.9794 138.951 35.5081 139.408L10.0502 164.08C9.57893 164.536 8.8144 164.536 8.34312 164.08L-17.1148 139.408C-17.5867 138.951 -17.5867 138.21 -17.1148 137.753L-3.73095 124.782C-3.25901 124.325 -2.49448 124.325 -2.02319 124.782L8.34312 134.828C8.8144 135.285 9.57893 135.285 10.0502 134.828ZM48.0371 134.828L58.4028 124.782C58.8747 124.325 59.6392 124.325 60.1105 124.782L73.495 137.753C73.9663 138.21 73.9663 138.951 73.495 139.408L48.0371 164.08C47.5652 164.536 46.8013 164.536 46.3294 164.08L20.8714 139.408C20.4008 138.951 20.4008 138.21 20.8714 137.753L34.256 124.782C34.7279 124.325 35.4918 124.325 35.9637 124.782L46.3294 134.828C46.8013 135.285 47.5652 135.285 48.0371 134.828ZM86.0234 134.828L96.3897 124.782C96.861 124.325 97.6255 124.325 98.0974 124.782L111.481 137.753C111.953 138.21 111.953 138.951 111.481 139.408L86.0234 164.08C85.5521 164.536 84.7882 164.536 84.3163 164.08L58.8584 139.408C58.3871 138.951 58.3871 138.21 58.8584 137.753L72.2429 124.782C72.7141 124.325 73.4787 124.325 73.95 124.782L84.3163 134.828C84.7882 135.285 85.5521 135.285 86.0234 134.828ZM124.01 134.828L134.377 124.782C134.848 124.325 135.612 124.325 136.084 124.782L149.468 137.753C149.939 138.21 149.939 138.951 149.468 139.408L124.01 164.08C123.539 164.536 122.774 164.536 122.303 164.08L96.8453 139.408C96.374 138.951 96.374 138.21 96.8453 137.753L110.23 124.782C110.701 124.325 111.466 124.325 111.937 124.782L122.303 134.828C122.774 135.285 123.539 135.285 124.01 134.828ZM161.997 134.828L172.363 124.782C172.835 124.325 173.599 124.325 174.071 124.782L187.455 137.753C187.926 138.21 187.926 138.951 187.455 139.408L161.997 164.08C161.526 164.536 160.761 164.536 160.289 164.08L134.831 139.408C134.36 138.951 134.36 138.21 134.831 137.753L148.216 124.782C148.688 124.325 149.452 124.325 149.924 124.782L160.289 134.828C160.761 135.285 161.526 135.285 161.997 134.828ZM199.983 134.828L210.35 124.782C210.821 124.325 211.586 124.325 212.057 124.782L225.441 137.753C225.913 138.21 225.913 138.951 225.441 139.408L199.983 164.08C199.512 164.536 198.748 164.536 198.276 164.08L172.818 139.408C172.347 138.951 172.347 138.21 172.818 137.753L186.203 124.782C186.674 124.325 187.439 124.325 187.91 124.782L198.276 134.828C198.748 135.285 199.512 135.285 199.983 134.828ZM237.97 134.828L248.337 124.782C248.808 124.325 249.572 124.325 250.044 124.782L263.428 137.753C263.9 138.21 263.9 138.951 263.428 139.408L237.97 164.08C237.499 164.536 236.734 164.536 236.263 164.08L210.805 139.408C210.333 138.951 210.333 138.21 210.805 137.753L224.189 124.782C224.661 124.325 225.426 124.325 225.897 124.782L236.263 134.828C236.734 135.285 237.499 135.285 237.97 134.828ZM275.957 134.828L286.323 124.782C286.795 124.325 287.559 124.325 288.031 124.782L301.414 137.753C301.886 138.21 301.886 138.951 301.414 139.408L275.957 164.08C275.485 164.536 274.721 164.536 274.249 164.08L248.792 139.408C248.32 138.951 248.32 138.21 248.792 137.753L262.176 124.782C262.648 124.325 263.412 124.325 263.884 124.782L274.249 134.828C274.721 135.285 275.485 135.285 275.957 134.828ZM10.0502 164.08L20.4165 154.034C20.8878 153.577 21.6523 153.577 22.1236 154.034L35.5081 167.005C35.9794 167.462 35.9794 168.203 35.5081 168.66L10.0502 193.332C9.57893 193.789 8.8144 193.789 8.34312 193.332L-17.1148 168.66C-17.5867 168.203 -17.5867 167.462 -17.1148 167.005L-3.73095 154.034C-3.25901 153.577 -2.49448 153.577 -2.02319 154.034L8.34312 164.08C8.8144 164.536 9.57893 164.536 10.0502 164.08ZM48.0371 164.08L58.4028 154.034C58.8747 153.577 59.6392 153.577 60.1105 154.034L73.495 167.005C73.9663 167.462 73.9663 168.203 73.495 168.66L48.0371 193.332C47.5652 193.789 46.8013 193.789 46.3294 193.332L20.8714 168.66C20.4008 168.203 20.4008 167.462 20.8714 167.005L34.256 154.034C34.7279 153.577 35.4918 153.577 35.9637 154.034L46.3294 164.08C46.8013 164.536 47.5652 164.536 48.0371 164.08ZM86.0234 164.08L96.3897 154.034C96.861 153.577 97.6255 153.577 98.0974 154.034L111.481 167.005C111.953 167.462 111.953 168.203 111.481 168.66L86.0234 193.332C85.5521 193.789 84.7882 193.789 84.3163 193.332L58.8584 168.66C58.3871 168.203 58.3871 167.462 58.8584 167.005L72.2429 154.034C72.7141 153.577 73.4787 153.577 73.95 154.034L84.3163 164.08C84.7882 164.536 85.5521 164.536 86.0234 164.08ZM124.01 164.08L134.377 154.034C134.848 153.577 135.612 153.577 136.084 154.034L149.468 167.005C149.939 167.462 149.939 168.203 149.468 168.66L124.01 193.332C123.539 193.789 122.774 193.789 122.303 193.332L96.8453 168.66C96.374 168.203 96.374 167.462 96.8453 167.005L110.23 154.034C110.701 153.577 111.466 153.577 111.937 154.034L122.303 164.08C122.774 164.536 123.539 164.536 124.01 164.08ZM161.997 164.08L172.363 154.034C172.835 153.577 173.599 153.577 174.071 154.034L187.455 167.005C187.926 167.462 187.926 168.203 187.455 168.66L161.997 193.332C161.526 193.789 160.761 193.789 160.289 193.332L134.831 168.66C134.36 168.203 134.36 167.462 134.831 167.005L148.216 154.034C148.688 153.577 149.452 153.577 149.924 154.034L160.289 164.08C160.761 164.536 161.526 164.536 161.997 164.08ZM199.983 164.08L210.35 154.034C210.821 153.577 211.586 153.577 212.057 154.034L225.441 167.005C225.913 167.462 225.913 168.203 225.441 168.66L199.983 193.332C199.512 193.789 198.748 193.789 198.276 193.332L172.818 168.66C172.347 168.203 172.347 167.462 172.818 167.005L186.203 154.034C186.674 153.577 187.439 153.577 187.91 154.034L198.276 164.08C198.748 164.536 199.512 164.536 199.983 164.08ZM237.97 164.08L248.337 154.034C248.808 153.577 249.572 153.577 250.044 154.034L263.428 167.005C263.9 167.462 263.9 168.203 263.428 168.66L237.97 193.332C237.499 193.789 236.734 193.789 236.263 193.332L210.805 168.66C210.333 168.203 210.333 167.462 210.805 167.005L224.189 154.034C224.661 153.577 225.426 153.577 225.897 154.034L236.263 164.08C236.734 164.536 237.499 164.536 237.97 164.08ZM275.957 164.08L286.323 154.034C286.795 153.577 287.559 153.577 288.031 154.034L301.414 167.005C301.886 167.462 301.886 168.203 301.414 168.66L275.957 193.332C275.485 193.789 274.721 193.789 274.249 193.332L248.792 168.66C248.32 168.203 248.32 167.462 248.792 167.005L262.176 154.034C262.648 153.577 263.412 153.577 263.884 154.034L274.249 164.08C274.721 164.536 275.485 164.536 275.957 164.08ZM10.0502 193.332L20.4165 183.286C20.8878 182.829 21.6523 182.829 22.1236 183.286L35.5081 196.257C35.9794 196.714 35.9794 197.455 35.5081 197.912L10.0502 222.583C9.57893 223.041 8.8144 223.041 8.34312 222.583L-17.1148 197.912C-17.5867 197.455 -17.5867 196.714 -17.1148 196.257L-3.73095 183.286C-3.25901 182.829 -2.49448 182.829 -2.02319 183.286L8.34312 193.332C8.8144 193.789 9.57893 193.789 10.0502 193.332ZM48.0371 193.332L58.4028 183.286C58.8747 182.829 59.6392 182.829 60.1105 183.286L73.495 196.257C73.9663 196.714 73.9663 197.455 73.495 197.912L48.0371 222.583C47.5652 223.041 46.8013 223.041 46.3294 222.583L20.8714 197.912C20.4008 197.455 20.4008 196.714 20.8714 196.257L34.256 183.286C34.7279 182.829 35.4918 182.829 35.9637 183.286L46.3294 193.332C46.8013 193.789 47.5652 193.789 48.0371 193.332ZM86.0234 193.332L96.3897 183.286C96.861 182.829 97.6255 182.829 98.0974 183.286L111.481 196.257C111.953 196.714 111.953 197.455 111.481 197.912L86.0234 222.583C85.5521 223.041 84.7882 223.041 84.3163 222.583L58.8584 197.912C58.3871 197.455 58.3871 196.714 58.8584 196.257L72.2429 183.286C72.7141 182.829 73.4787 182.829 73.95 183.286L84.3163 193.332C84.7882 193.789 85.5521 193.789 86.0234 193.332ZM124.01 193.332L134.377 183.286C134.848 182.829 135.612 182.829 136.084 183.286L149.468 196.257C149.939 196.714 149.939 197.455 149.468 197.912L124.01 222.583C123.539 223.041 122.774 223.041 122.303 222.583L96.8453 197.912C96.374 197.455 96.374 196.714 96.8453 196.257L110.23 183.286C110.701 182.829 111.466 182.829 111.937 183.286L122.303 193.332C122.774 193.789 123.539 193.789 124.01 193.332ZM161.997 193.332L172.363 183.286C172.835 182.829 173.599 182.829 174.071 183.286L187.455 196.257C187.926 196.714 187.926 197.455 187.455 197.912L161.997 222.583C161.526 223.041 160.761 223.041 160.289 222.583L134.831 197.912C134.36 197.455 134.36 196.714 134.831 196.257L148.216 183.286C148.688 182.829 149.452 182.829 149.924 183.286L160.289 193.332C160.761 193.789 161.526 193.789 161.997 193.332ZM199.983 193.332L210.35 183.286C210.821 182.829 211.586 182.829 212.057 183.286L225.441 196.257C225.913 196.714 225.913 197.455 225.441 197.912L199.983 222.583C199.512 223.041 198.748 223.041 198.276 222.583L172.818 197.912C172.347 197.455 172.347 196.714 172.818 196.257L186.203 183.286C186.674 182.829 187.439 182.829 187.91 183.286L198.276 193.332C198.748 193.789 199.512 193.789 199.983 193.332ZM237.97 193.332L248.337 183.286C248.808 182.829 249.572 182.829 250.044 183.286L263.428 196.257C263.9 196.714 263.9 197.455 263.428 197.912L237.97 222.583C237.499 223.041 236.734 223.041 236.263 222.583L210.805 197.912C210.333 197.455 210.333 196.714 210.805 196.257L224.189 183.286C224.661 182.829 225.426 182.829 225.897 183.286L236.263 193.332C236.734 193.789 237.499 193.789 237.97 193.332ZM275.957 193.332L286.323 183.286C286.795 182.829 287.559 182.829 288.031 183.286L301.414 196.257C301.886 196.714 301.886 197.455 301.414 197.912L275.957 222.583C275.485 223.041 274.721 223.041 274.249 222.583L248.792 197.912C248.32 197.455 248.32 196.714 248.792 196.257L262.176 183.286C262.648 182.829 263.412 182.829 263.884 183.286L274.249 193.332C274.721 193.789 275.485 193.789 275.957 193.332ZM10.0502 222.583L20.4165 212.538C20.8878 212.081 21.6523 212.081 22.1236 212.538L35.5081 225.509C35.9794 225.966 35.9794 226.707 35.5081 227.164L10.0502 251.836C9.57893 252.292 8.8144 252.292 8.34312 251.836L-17.1148 227.164C-17.5867 226.707 -17.5867 225.966 -17.1148 225.509L-3.73095 212.538C-3.25901 212.081 -2.49448 212.081 -2.02319 212.538L8.34312 222.583C8.8144 223.041 9.57893 223.041 10.0502 222.583ZM48.0371 222.583L58.4028 212.538C58.8747 212.081 59.6392 212.081 60.1105 212.538L73.495 225.509C73.9663 225.966 73.9663 226.707 73.495 227.164L48.0371 251.836C47.5652 252.292 46.8013 252.292 46.3294 251.836L20.8714 227.164C20.4008 226.707 20.4008 225.966 20.8714 225.509L34.256 212.538C34.7279 212.081 35.4918 212.081 35.9637 212.538L46.3294 222.583C46.8013 223.041 47.5652 223.041 48.0371 222.583ZM86.0234 222.583L96.3897 212.538C96.861 212.081 97.6255 212.081 98.0974 212.538L111.481 225.509C111.953 225.966 111.953 226.707 111.481 227.164L86.0234 251.836C85.5521 252.292 84.7882 252.292 84.3163 251.836L58.8584 227.164C58.3871 226.707 58.3871 225.966 58.8584 225.509L72.2429 212.538C72.7141 212.081 73.4787 212.081 73.95 212.538L84.3163 222.583C84.7882 223.041 85.5521 223.041 86.0234 222.583ZM124.01 222.583L134.377 212.538C134.848 212.081 135.612 212.081 136.084 212.538L149.468 225.509C149.939 225.966 149.939 226.707 149.468 227.164L124.01 251.836C123.539 252.292 122.774 252.292 122.303 251.836L96.8453 227.164C96.374 226.707 96.374 225.966 96.8453 225.509L110.23 212.538C110.701 212.081 111.466 212.081 111.937 212.538L122.303 222.583C122.774 223.041 123.539 223.041 124.01 222.583ZM161.997 222.583L172.363 212.538C172.835 212.081 173.599 212.081 174.071 212.538L187.455 225.509C187.926 225.966 187.926 226.707 187.455 227.164L161.997 251.836C161.526 252.292 160.761 252.292 160.289 251.836L134.831 227.164C134.36 226.707 134.36 225.966 134.831 225.509L148.216 212.538C148.688 212.081 149.452 212.081 149.924 212.538L160.289 222.583C160.761 223.041 161.526 223.041 161.997 222.583ZM199.983 222.583L210.35 212.538C210.821 212.081 211.586 212.081 212.057 212.538L225.441 225.509C225.913 225.966 225.913 226.707 225.441 227.164L199.983 251.836C199.512 252.292 198.748 252.292 198.276 251.836L172.818 227.164C172.347 226.707 172.347 225.966 172.818 225.509L186.203 212.538C186.674 212.081 187.439 212.081 187.91 212.538L198.276 222.583C198.748 223.041 199.512 223.041 199.983 222.583ZM237.97 222.583L248.337 212.538C248.808 212.081 249.572 212.081 250.044 212.538L263.428 225.509C263.9 225.966 263.9 226.707 263.428 227.164L237.97 251.836C237.499 252.292 236.734 252.292 236.263 251.836L210.805 227.164C210.333 226.707 210.333 225.966 210.805 225.509L224.189 212.538C224.661 212.081 225.426 212.081 225.897 212.538L236.263 222.583C236.734 223.041 237.499 223.041 237.97 222.583ZM275.957 222.583L286.323 212.538C286.795 212.081 287.559 212.081 288.031 212.538L301.414 225.509C301.886 225.966 301.886 226.707 301.414 227.164L275.957 251.836C275.485 252.292 274.721 252.292 274.249 251.836L248.792 227.164C248.32 226.707 248.32 225.966 248.792 225.509L262.176 212.538C262.648 212.081 263.412 212.081 263.884 212.538L274.249 222.583C274.721 223.041 275.485 223.041 275.957 222.583ZM10.0502 251.836L20.4165 241.79C20.8878 241.333 21.6523 241.333 22.1236 241.79L35.5081 254.761C35.9794 255.218 35.9794 255.958 35.5081 256.416L10.0502 281.088C9.57893 281.545 8.8144 281.545 8.34312 281.088L-17.1148 256.416C-17.5867 255.958 -17.5867 255.218 -17.1148 254.761L-3.73095 241.79C-3.25901 241.333 -2.49448 241.333 -2.02319 241.79L8.34312 251.836C8.8144 252.292 9.57893 252.292 10.0502 251.836ZM48.0371 251.836L58.4028 241.79C58.8747 241.333 59.6392 241.333 60.1105 241.79L73.495 254.761C73.9663 255.218 73.9663 255.958 73.495 256.416L48.0371 281.088C47.5652 281.545 46.8013 281.545 46.3294 281.088L20.8714 256.416C20.4008 255.958 20.4008 255.218 20.8714 254.761L34.256 241.79C34.7279 241.333 35.4918 241.333 35.9637 241.79L46.3294 251.836C46.8013 252.292 47.5652 252.292 48.0371 251.836ZM86.0234 251.836L96.3897 241.79C96.861 241.333 97.6255 241.333 98.0974 241.79L111.481 254.761C111.953 255.218 111.953 255.958 111.481 256.416L86.0234 281.088C85.5521 281.545 84.7882 281.545 84.3163 281.088L58.8584 256.416C58.3871 255.958 58.3871 255.218 58.8584 254.761L72.2429 241.79C72.7141 241.333 73.4787 241.333 73.95 241.79L84.3163 251.836C84.7882 252.292 85.5521 252.292 86.0234 251.836ZM124.01 251.836L134.377 241.79C134.848 241.333 135.612 241.333 136.084 241.79L149.468 254.761C149.939 255.218 149.939 255.958 149.468 256.416L124.01 281.088C123.539 281.545 122.774 281.545 122.303 281.088L96.8453 256.416C96.374 255.958 96.374 255.218 96.8453 254.761L110.23 241.79C110.701 241.333 111.466 241.333 111.937 241.79L122.303 251.836C122.774 252.292 123.539 252.292 124.01 251.836ZM161.997 251.836L172.363 241.79C172.835 241.333 173.599 241.333 174.071 241.79L187.455 254.761C187.926 255.218 187.926 255.958 187.455 256.416L161.997 281.088C161.526 281.545 160.761 281.545 160.289 281.088L134.831 256.416C134.36 255.958 134.36 255.218 134.831 254.761L148.216 241.79C148.688 241.333 149.452 241.333 149.924 241.79L160.289 251.836C160.761 252.292 161.526 252.292 161.997 251.836ZM199.983 251.836L210.35 241.79C210.821 241.333 211.586 241.333 212.057 241.79L225.441 254.761C225.913 255.218 225.913 255.958 225.441 256.416L199.983 281.088C199.512 281.545 198.748 281.545 198.276 281.088L172.818 256.416C172.347 255.958 172.347 255.218 172.818 254.761L186.203 241.79C186.674 241.333 187.439 241.333 187.91 241.79L198.276 251.836C198.748 252.292 199.512 252.292 199.983 251.836ZM237.97 251.836L248.337 241.79C248.808 241.333 249.572 241.333 250.044 241.79L263.428 254.761C263.9 255.218 263.9 255.958 263.428 256.416L237.97 281.088C237.499 281.545 236.734 281.545 236.263 281.088L210.805 256.416C210.333 255.958 210.333 255.218 210.805 254.761L224.189 241.79C224.661 241.333 225.426 241.333 225.897 241.79L236.263 251.836C236.734 252.292 237.499 252.292 237.97 251.836ZM275.957 251.836L286.323 241.79C286.795 241.333 287.559 241.333 288.031 241.79L301.414 254.761C301.886 255.218 301.886 255.958 301.414 256.416L275.957 281.088C275.485 281.545 274.721 281.545 274.249 281.088L248.792 256.416C248.32 255.958 248.32 255.218 248.792 254.761L262.176 241.79C262.648 241.333 263.412 241.333 263.884 241.79L274.249 251.836C274.721 252.292 275.485 252.292 275.957 251.836ZM10.0502 281.088L20.4165 271.041C20.8878 270.585 21.6523 270.585 22.1236 271.041L35.5081 284.013C35.9794 284.47 35.9794 285.21 35.5081 285.667H-17.1148C-17.5867 285.21 -17.5867 284.47 -17.1148 284.013L-3.73095 271.041C-3.25901 270.585 -2.49448 270.585 -2.02319 271.041L8.34312 281.088C8.8144 281.545 9.57893 281.545 10.0502 281.088ZM48.0371 281.088L58.4028 271.041C58.8747 270.585 59.6392 270.585 60.1105 271.041L73.495 284.013C73.9663 284.47 73.9663 285.21 73.495 285.667H20.8714C20.4008 285.21 20.4008 284.47 20.8714 284.013L34.256 271.041C34.7279 270.585 35.4918 270.585 35.9637 271.041L46.3294 281.088C46.8013 281.545 47.5652 281.545 48.0371 281.088ZM86.0234 281.088L96.3897 271.041C96.861 270.585 97.6255 270.585 98.0974 271.041L111.481 284.013C111.953 284.47 111.953 285.21 111.481 285.667H58.8584C58.3871 285.21 58.3871 284.47 58.8584 284.013L72.2429 271.041C72.7141 270.585 73.4787 270.585 73.95 271.041L84.3163 281.088C84.7882 281.545 85.5521 281.545 86.0234 281.088ZM124.01 281.088L134.377 271.041C134.848 270.585 135.612 270.585 136.084 271.041L149.468 284.013C149.939 284.47 149.939 285.21 149.468 285.667H96.8453C96.374 285.21 96.374 284.47 96.8453 284.013L110.23 271.041C110.701 270.585 111.466 270.585 111.937 271.041L122.303 281.088C122.774 281.545 123.539 281.545 124.01 281.088ZM161.997 281.088L172.363 271.041C172.835 270.585 173.599 270.585 174.071 271.041L187.455 284.013C187.926 284.47 187.926 285.21 187.455 285.667H134.831C134.36 285.21 134.36 284.47 134.831 284.013L148.216 271.041C148.688 270.585 149.452 270.585 149.924 271.041L160.289 281.088C160.761 281.545 161.526 281.545 161.997 281.088ZM199.983 281.088L210.35 271.041C210.821 270.585 211.586 270.585 212.057 271.041L225.441 284.013C225.913 284.47 225.913 285.21 225.441 285.667H172.818C172.347 285.21 172.347 284.47 172.818 284.013L186.203 271.041C186.674 270.585 187.439 270.585 187.91 271.041L198.276 281.088C198.748 281.545 199.512 281.545 199.983 281.088ZM237.97 281.088L248.337 271.041C248.808 270.585 249.572 270.585 250.044 271.041L263.428 284.013C263.9 284.47 263.9 285.21 263.428 285.667H210.805C210.333 285.21 210.333 284.47 210.805 284.013L224.189 271.041C224.661 270.585 225.426 270.585 225.897 271.041L236.263 281.088C236.734 281.545 237.499 281.545 237.97 281.088ZM275.957 281.088L286.323 271.041C286.795 270.585 287.559 270.585 288.031 271.041L301.414 284.013C301.886 284.47 301.886 285.21 301.414 285.667H248.792C248.32 285.21 248.32 284.47 248.792 284.013L262.176 271.041C262.648 270.585 263.412 270.585 263.884 271.041L274.249 281.088C274.721 281.545 275.485 281.545 275.957 281.088Z" stroke="#772827" stroke-miterlimit="10"/>
</g>
<g clip-path="url(#clip1)">
<path d="M274.343 -11.4321H276.05C275.579 -10.9747 274.814 -10.9747 274.343 -11.4321ZM312.329 -11.4321H314.037C313.565 -10.9747 312.801 -10.9747 312.329 -11.4321ZM350.316 -11.4321H352.023C351.552 -10.9747 350.788 -10.9747 350.316 -11.4321ZM388.303 -11.4321H390.01C389.539 -10.9747 388.774 -10.9747 388.303 -11.4321ZM426.289 -11.4321H427.997C427.526 -10.9747 426.761 -10.9747 426.289 -11.4321ZM464.276 -11.4321H465.983C465.512 -10.9747 464.748 -10.9747 464.276 -11.4321ZM502.263 -11.4321H503.97C503.499 -10.9747 502.734 -10.9747 502.263 -11.4321ZM540.249 -11.4321H541.957C541.485 -10.9747 540.721 -10.9747 540.249 -11.4321ZM276.05 -11.4321L286.417 -21.4778C286.888 -21.9345 287.652 -21.9345 288.124 -21.4778L301.508 -8.5064C301.979 -8.04966 301.979 -7.30871 301.508 -6.85197L276.05 17.8201C275.579 18.2769 274.814 18.2769 274.343 17.8201L248.885 -6.85197C248.413 -7.30871 248.413 -8.04966 248.885 -8.5064L262.269 -21.4778C262.741 -21.9345 263.506 -21.9345 263.977 -21.4778L274.343 -11.4321C274.814 -10.9747 275.579 -10.9747 276.05 -11.4321ZM314.037 -11.4321L324.403 -21.4778C324.875 -21.9345 325.639 -21.9345 326.111 -21.4778L339.495 -8.5064C339.966 -8.04966 339.966 -7.30871 339.495 -6.85197L314.037 17.8201C313.565 18.2769 312.801 18.2769 312.329 17.8201L286.871 -6.85197C286.401 -7.30871 286.401 -8.04966 286.871 -8.5064L300.256 -21.4778C300.728 -21.9345 301.492 -21.9345 301.964 -21.4778L312.329 -11.4321C312.801 -10.9747 313.565 -10.9747 314.037 -11.4321ZM352.023 -11.4321L362.39 -21.4778C362.861 -21.9345 363.625 -21.9345 364.097 -21.4778L377.481 -8.5064C377.953 -8.04966 377.953 -7.30871 377.481 -6.85197L352.023 17.8201C351.552 18.2769 350.788 18.2769 350.316 17.8201L324.858 -6.85197C324.387 -7.30871 324.387 -8.04966 324.858 -8.5064L338.243 -21.4778C338.714 -21.9345 339.479 -21.9345 339.95 -21.4778L350.316 -11.4321C350.788 -10.9747 351.552 -10.9747 352.023 -11.4321ZM390.01 -11.4321L400.377 -21.4778C400.848 -21.9345 401.612 -21.9345 402.084 -21.4778L415.468 -8.5064C415.939 -8.04966 415.939 -7.30871 415.468 -6.85197L390.01 17.8201C389.539 18.2769 388.774 18.2769 388.303 17.8201L362.845 -6.85197C362.374 -7.30871 362.374 -8.04966 362.845 -8.5064L376.23 -21.4778C376.701 -21.9345 377.466 -21.9345 377.937 -21.4778L388.303 -11.4321C388.774 -10.9747 389.539 -10.9747 390.01 -11.4321ZM427.997 -11.4321L438.363 -21.4778C438.835 -21.9345 439.599 -21.9345 440.071 -21.4778L453.455 -8.5064C453.926 -8.04966 453.926 -7.30871 453.455 -6.85197L427.997 17.8201C427.526 18.2769 426.761 18.2769 426.289 17.8201L400.831 -6.85197C400.36 -7.30871 400.36 -8.04966 400.831 -8.5064L414.216 -21.4778C414.688 -21.9345 415.452 -21.9345 415.924 -21.4778L426.289 -11.4321C426.761 -10.9747 427.526 -10.9747 427.997 -11.4321ZM465.983 -11.4321L476.35 -21.4778C476.821 -21.9345 477.586 -21.9345 478.057 -21.4778L491.441 -8.5064C491.913 -8.04966 491.913 -7.30871 491.441 -6.85197L465.983 17.8201C465.512 18.2769 464.748 18.2769 464.276 17.8201L438.818 -6.85197C438.347 -7.30871 438.347 -8.04966 438.818 -8.5064L452.203 -21.4778C452.674 -21.9345 453.439 -21.9345 453.91 -21.4778L464.276 -11.4321C464.748 -10.9747 465.512 -10.9747 465.983 -11.4321ZM503.97 -11.4321L514.337 -21.4778C514.808 -21.9345 515.572 -21.9345 516.044 -21.4778L529.428 -8.5064C529.9 -8.04966 529.9 -7.30871 529.428 -6.85197L503.97 17.8201C503.499 18.2769 502.734 18.2769 502.263 17.8201L476.805 -6.85197C476.333 -7.30871 476.333 -8.04966 476.805 -8.5064L490.189 -21.4778C490.661 -21.9345 491.426 -21.9345 491.897 -21.4778L502.263 -11.4321C502.734 -10.9747 503.499 -10.9747 503.97 -11.4321ZM541.957 -11.4321L552.323 -21.4778C552.795 -21.9345 553.559 -21.9345 554.031 -21.4778L567.414 -8.5064C567.886 -8.04966 567.886 -7.30871 567.414 -6.85197L541.957 17.8201C541.485 18.2769 540.721 18.2769 540.249 17.8201L514.792 -6.85197C514.32 -7.30871 514.32 -8.04966 514.792 -8.5064L528.176 -21.4778C528.648 -21.9345 529.412 -21.9345 529.884 -21.4778L540.249 -11.4321C540.721 -10.9747 541.485 -10.9747 541.957 -11.4321ZM276.05 17.8201L286.417 7.77444C286.888 7.31707 287.652 7.31707 288.124 7.77444L301.508 20.7451C301.979 21.2025 301.979 21.9435 301.508 22.4002L276.05 47.0723C275.579 47.529 274.814 47.529 274.343 47.0723L248.885 22.4002C248.413 21.9435 248.413 21.2025 248.885 20.7451L262.269 7.77444C262.741 7.31707 263.506 7.31707 263.977 7.77444L274.343 17.8201C274.814 18.2769 275.579 18.2769 276.05 17.8201ZM314.037 17.8201L324.403 7.77444C324.875 7.31707 325.639 7.31707 326.111 7.77444L339.495 20.7451C339.966 21.2025 339.966 21.9435 339.495 22.4002L314.037 47.0723C313.565 47.529 312.801 47.529 312.329 47.0723L286.871 22.4002C286.401 21.9435 286.401 21.2025 286.871 20.7451L300.256 7.77444C300.728 7.31707 301.492 7.31707 301.964 7.77444L312.329 17.8201C312.801 18.2769 313.565 18.2769 314.037 17.8201ZM352.023 17.8201L362.39 7.77444C362.861 7.31707 363.625 7.31707 364.097 7.77444L377.481 20.7451C377.953 21.2025 377.953 21.9435 377.481 22.4002L352.023 47.0723C351.552 47.529 350.788 47.529 350.316 47.0723L324.858 22.4002C324.387 21.9435 324.387 21.2025 324.858 20.7451L338.243 7.77444C338.714 7.31707 339.479 7.31707 339.95 7.77444L350.316 17.8201C350.788 18.2769 351.552 18.2769 352.023 17.8201ZM390.01 17.8201L400.377 7.77444C400.848 7.31707 401.612 7.31707 402.084 7.77444L415.468 20.7451C415.939 21.2025 415.939 21.9435 415.468 22.4002L390.01 47.0723C389.539 47.529 388.774 47.529 388.303 47.0723L362.845 22.4002C362.374 21.9435 362.374 21.2025 362.845 20.7451L376.23 7.77444C376.701 7.31707 377.466 7.31707 377.937 7.77444L388.303 17.8201C388.774 18.2769 389.539 18.2769 390.01 17.8201ZM427.997 17.8201L438.363 7.77444C438.835 7.31707 439.599 7.31707 440.071 7.77444L453.455 20.7451C453.926 21.2025 453.926 21.9435 453.455 22.4002L427.997 47.0723C427.526 47.529 426.761 47.529 426.289 47.0723L400.831 22.4002C400.36 21.9435 400.36 21.2025 400.831 20.7451L414.216 7.77444C414.688 7.31707 415.452 7.31707 415.924 7.77444L426.289 17.8201C426.761 18.2769 427.526 18.2769 427.997 17.8201ZM465.983 17.8201L476.35 7.77444C476.821 7.31707 477.586 7.31707 478.057 7.77444L491.441 20.7451C491.913 21.2025 491.913 21.9435 491.441 22.4002L465.983 47.0723C465.512 47.529 464.748 47.529 464.276 47.0723L438.818 22.4002C438.347 21.9435 438.347 21.2025 438.818 20.7451L452.203 7.77444C452.674 7.31707 453.439 7.31707 453.91 7.77444L464.276 17.8201C464.748 18.2769 465.512 18.2769 465.983 17.8201ZM503.97 17.8201L514.337 7.77444C514.808 7.31707 515.572 7.31707 516.044 7.77444L529.428 20.7451C529.9 21.2025 529.9 21.9435 529.428 22.4002L503.97 47.0723C503.499 47.529 502.734 47.529 502.263 47.0723L476.805 22.4002C476.333 21.9435 476.333 21.2025 476.805 20.7451L490.189 7.77444C490.661 7.31707 491.426 7.31707 491.897 7.77444L502.263 17.8201C502.734 18.2769 503.499 18.2769 503.97 17.8201ZM541.957 17.8201L552.323 7.77444C552.795 7.31707 553.559 7.31707 554.031 7.77444L567.414 20.7451C567.886 21.2025 567.886 21.9435 567.414 22.4002L541.957 47.0723C541.485 47.529 540.721 47.529 540.249 47.0723L514.792 22.4002C514.32 21.9435 514.32 21.2025 514.792 20.7451L528.176 7.77444C528.648 7.31707 529.412 7.31707 529.884 7.77444L540.249 17.8201C540.721 18.2769 541.485 18.2769 541.957 17.8201ZM276.05 47.0723L286.417 37.026C286.888 36.5692 287.652 36.5692 288.124 37.026L301.508 49.9973C301.979 50.4541 301.979 51.195 301.508 51.6524L276.05 76.3238C275.579 76.7806 274.814 76.7806 274.343 76.3238L248.885 51.6524C248.413 51.195 248.413 50.4541 248.885 49.9973L262.269 37.026C262.741 36.5692 263.506 36.5692 263.977 37.026L274.343 47.0723C274.814 47.529 275.579 47.529 276.05 47.0723ZM314.037 47.0723L324.403 37.026C324.875 36.5692 325.639 36.5692 326.111 37.026L339.495 49.9973C339.966 50.4541 339.966 51.195 339.495 51.6524L314.037 76.3238C313.565 76.7806 312.801 76.7806 312.329 76.3238L286.871 51.6524C286.401 51.195 286.401 50.4541 286.871 49.9973L300.256 37.026C300.728 36.5692 301.492 36.5692 301.964 37.026L312.329 47.0723C312.801 47.529 313.565 47.529 314.037 47.0723ZM352.023 47.0723L362.39 37.026C362.861 36.5692 363.625 36.5692 364.097 37.026L377.481 49.9973C377.953 50.4541 377.953 51.195 377.481 51.6524L352.023 76.3238C351.552 76.7806 350.788 76.7806 350.316 76.3238L324.858 51.6524C324.387 51.195 324.387 50.4541 324.858 49.9973L338.243 37.026C338.714 36.5692 339.479 36.5692 339.95 37.026L350.316 47.0723C350.788 47.529 351.552 47.529 352.023 47.0723ZM390.01 47.0723L400.377 37.026C400.848 36.5692 401.612 36.5692 402.084 37.026L415.468 49.9973C415.939 50.4541 415.939 51.195 415.468 51.6524L390.01 76.3238C389.539 76.7806 388.774 76.7806 388.303 76.3238L362.845 51.6524C362.374 51.195 362.374 50.4541 362.845 49.9973L376.23 37.026C376.701 36.5692 377.466 36.5692 377.937 37.026L388.303 47.0723C388.774 47.529 389.539 47.529 390.01 47.0723ZM427.997 47.0723L438.363 37.026C438.835 36.5692 439.599 36.5692 440.071 37.026L453.455 49.9973C453.926 50.4541 453.926 51.195 453.455 51.6524L427.997 76.3238C427.526 76.7806 426.761 76.7806 426.289 76.3238L400.831 51.6524C400.36 51.195 400.36 50.4541 400.831 49.9973L414.216 37.026C414.688 36.5692 415.452 36.5692 415.924 37.026L426.289 47.0723C426.761 47.529 427.526 47.529 427.997 47.0723ZM465.983 47.0723L476.35 37.026C476.821 36.5692 477.586 36.5692 478.057 37.026L491.441 49.9973C491.913 50.4541 491.913 51.195 491.441 51.6524L465.983 76.3238C465.512 76.7806 464.748 76.7806 464.276 76.3238L438.818 51.6524C438.347 51.195 438.347 50.4541 438.818 49.9973L452.203 37.026C452.674 36.5692 453.439 36.5692 453.91 37.026L464.276 47.0723C464.748 47.529 465.512 47.529 465.983 47.0723ZM503.97 47.0723L514.337 37.026C514.808 36.5692 515.572 36.5692 516.044 37.026L529.428 49.9973C529.9 50.4541 529.9 51.195 529.428 51.6524L503.97 76.3238C503.499 76.7806 502.734 76.7806 502.263 76.3238L476.805 51.6524C476.333 51.195 476.333 50.4541 476.805 49.9973L490.189 37.026C490.661 36.5692 491.426 36.5692 491.897 37.026L502.263 47.0723C502.734 47.529 503.499 47.529 503.97 47.0723ZM541.957 47.0723L552.323 37.026C552.795 36.5692 553.559 36.5692 554.031 37.026L567.414 49.9973C567.886 50.4541 567.886 51.195 567.414 51.6524L541.957 76.3238C541.485 76.7806 540.721 76.7806 540.249 76.3238L514.792 51.6524C514.32 51.195 514.32 50.4541 514.792 49.9973L528.176 37.026C528.648 36.5692 529.412 36.5692 529.884 37.026L540.249 47.0723C540.721 47.529 541.485 47.529 541.957 47.0723ZM276.05 76.3238L286.417 66.2781C286.888 65.8214 287.652 65.8214 288.124 66.2781L301.508 79.2495C301.979 79.7062 301.979 80.4472 301.508 80.9039L276.05 105.576C275.579 106.033 274.814 106.033 274.343 105.576L248.885 80.9039C248.413 80.4472 248.413 79.7062 248.885 79.2495L262.269 66.2781C262.741 65.8214 263.506 65.8214 263.977 66.2781L274.343 76.3238C274.814 76.7806 275.579 76.7806 276.05 76.3238ZM314.037 76.3238L324.403 66.2781C324.875 65.8214 325.639 65.8214 326.111 66.2781L339.495 79.2495C339.966 79.7062 339.966 80.4472 339.495 80.9039L314.037 105.576C313.565 106.033 312.801 106.033 312.329 105.576L286.871 80.9039C286.401 80.4472 286.401 79.7062 286.871 79.2495L300.256 66.2781C300.728 65.8214 301.492 65.8214 301.964 66.2781L312.329 76.3238C312.801 76.7806 313.565 76.7806 314.037 76.3238ZM352.023 76.3238L362.39 66.2781C362.861 65.8214 363.625 65.8214 364.097 66.2781L377.481 79.2495C377.953 79.7062 377.953 80.4472 377.481 80.9039L352.023 105.576C351.552 106.033 350.788 106.033 350.316 105.576L324.858 80.9039C324.387 80.4472 324.387 79.7062 324.858 79.2495L338.243 66.2781C338.714 65.8214 339.479 65.8214 339.95 66.2781L350.316 76.3238C350.788 76.7806 351.552 76.7806 352.023 76.3238ZM390.01 76.3238L400.377 66.2781C400.848 65.8214 401.612 65.8214 402.084 66.2781L415.468 79.2495C415.939 79.7062 415.939 80.4472 415.468 80.9039L390.01 105.576C389.539 106.033 388.774 106.033 388.303 105.576L362.845 80.9039C362.374 80.4472 362.374 79.7062 362.845 79.2495L376.23 66.2781C376.701 65.8214 377.466 65.8214 377.937 66.2781L388.303 76.3238C388.774 76.7806 389.539 76.7806 390.01 76.3238ZM427.997 76.3238L438.363 66.2781C438.835 65.8214 439.599 65.8214 440.071 66.2781L453.455 79.2495C453.926 79.7062 453.926 80.4472 453.455 80.9039L427.997 105.576C427.526 106.033 426.761 106.033 426.289 105.576L400.831 80.9039C400.36 80.4472 400.36 79.7062 400.831 79.2495L414.216 66.2781C414.688 65.8214 415.452 65.8214 415.924 66.2781L426.289 76.3238C426.761 76.7806 427.526 76.7806 427.997 76.3238ZM465.983 76.3238L476.35 66.2781C476.821 65.8214 477.586 65.8214 478.057 66.2781L491.441 79.2495C491.913 79.7062 491.913 80.4472 491.441 80.9039L465.983 105.576C465.512 106.033 464.748 106.033 464.276 105.576L438.818 80.9039C438.347 80.4472 438.347 79.7062 438.818 79.2495L452.203 66.2781C452.674 65.8214 453.439 65.8214 453.91 66.2781L464.276 76.3238C464.748 76.7806 465.512 76.7806 465.983 76.3238ZM503.97 76.3238L514.337 66.2781C514.808 65.8214 515.572 65.8214 516.044 66.2781L529.428 79.2495C529.9 79.7062 529.9 80.4472 529.428 80.9039L503.97 105.576C503.499 106.033 502.734 106.033 502.263 105.576L476.805 80.9039C476.333 80.4472 476.333 79.7062 476.805 79.2495L490.189 66.2781C490.661 65.8214 491.426 65.8214 491.897 66.2781L502.263 76.3238C502.734 76.7806 503.499 76.7806 503.97 76.3238ZM541.957 76.3238L552.323 66.2781C552.795 65.8214 553.559 65.8214 554.031 66.2781L567.414 79.2495C567.886 79.7062 567.886 80.4472 567.414 80.9039L541.957 105.576C541.485 106.033 540.721 106.033 540.249 105.576L514.792 80.9039C514.32 80.4472 514.32 79.7062 514.792 79.2495L528.176 66.2781C528.648 65.8214 529.412 65.8214 529.884 66.2781L540.249 76.3238C540.721 76.7806 541.485 76.7806 541.957 76.3238ZM276.05 105.576L286.417 95.5303C286.888 95.0729 287.652 95.0729 288.124 95.5303L301.508 108.501C301.979 108.958 301.979 109.699 301.508 110.156L276.05 134.828C275.579 135.285 274.814 135.285 274.343 134.828L248.885 110.156C248.413 109.699 248.413 108.958 248.885 108.501L262.269 95.5303C262.741 95.0729 263.506 95.0729 263.977 95.5303L274.343 105.576C274.814 106.033 275.579 106.033 276.05 105.576ZM314.037 105.576L324.403 95.5303C324.875 95.0729 325.639 95.0729 326.111 95.5303L339.495 108.501C339.966 108.958 339.966 109.699 339.495 110.156L314.037 134.828C313.565 135.285 312.801 135.285 312.329 134.828L286.871 110.156C286.401 109.699 286.401 108.958 286.871 108.501L300.256 95.5303C300.728 95.0729 301.492 95.0729 301.964 95.5303L312.329 105.576C312.801 106.033 313.565 106.033 314.037 105.576ZM352.023 105.576L362.39 95.5303C362.861 95.0729 363.625 95.0729 364.097 95.5303L377.481 108.501C377.953 108.958 377.953 109.699 377.481 110.156L352.023 134.828C351.552 135.285 350.788 135.285 350.316 134.828L324.858 110.156C324.387 109.699 324.387 108.958 324.858 108.501L338.243 95.5303C338.714 95.0729 339.479 95.0729 339.95 95.5303L350.316 105.576C350.788 106.033 351.552 106.033 352.023 105.576ZM390.01 105.576L400.377 95.5303C400.848 95.0729 401.612 95.0729 402.084 95.5303L415.468 108.501C415.939 108.958 415.939 109.699 415.468 110.156L390.01 134.828C389.539 135.285 388.774 135.285 388.303 134.828L362.845 110.156C362.374 109.699 362.374 108.958 362.845 108.501L376.23 95.5303C376.701 95.0729 377.466 95.0729 377.937 95.5303L388.303 105.576C388.774 106.033 389.539 106.033 390.01 105.576ZM427.997 105.576L438.363 95.5303C438.835 95.0729 439.599 95.0729 440.071 95.5303L453.455 108.501C453.926 108.958 453.926 109.699 453.455 110.156L427.997 134.828C427.526 135.285 426.761 135.285 426.289 134.828L400.831 110.156C400.36 109.699 400.36 108.958 400.831 108.501L414.216 95.5303C414.688 95.0729 415.452 95.0729 415.924 95.5303L426.289 105.576C426.761 106.033 427.526 106.033 427.997 105.576ZM465.983 105.576L476.35 95.5303C476.821 95.0729 477.586 95.0729 478.057 95.5303L491.441 108.501C491.913 108.958 491.913 109.699 491.441 110.156L465.983 134.828C465.512 135.285 464.748 135.285 464.276 134.828L438.818 110.156C438.347 109.699 438.347 108.958 438.818 108.501L452.203 95.5303C452.674 95.0729 453.439 95.0729 453.91 95.5303L464.276 105.576C464.748 106.033 465.512 106.033 465.983 105.576ZM503.97 105.576L514.337 95.5303C514.808 95.0729 515.572 95.0729 516.044 95.5303L529.428 108.501C529.9 108.958 529.9 109.699 529.428 110.156L503.97 134.828C503.499 135.285 502.734 135.285 502.263 134.828L476.805 110.156C476.333 109.699 476.333 108.958 476.805 108.501L490.189 95.5303C490.661 95.0729 491.426 95.0729 491.897 95.5303L502.263 105.576C502.734 106.033 503.499 106.033 503.97 105.576ZM541.957 105.576L552.323 95.5303C552.795 95.0729 553.559 95.0729 554.031 95.5303L567.414 108.501C567.886 108.958 567.886 109.699 567.414 110.156L541.957 134.828C541.485 135.285 540.721 135.285 540.249 134.828L514.792 110.156C514.32 109.699 514.32 108.958 514.792 108.501L528.176 95.5303C528.648 95.0729 529.412 95.0729 529.884 95.5303L540.249 105.576C540.721 106.033 541.485 106.033 541.957 105.576ZM276.05 134.828L286.417 124.782C286.888 124.325 287.652 124.325 288.124 124.782L301.508 137.753C301.979 138.21 301.979 138.951 301.508 139.408L276.05 164.08C275.579 164.536 274.814 164.536 274.343 164.08L248.885 139.408C248.413 138.951 248.413 138.21 248.885 137.753L262.269 124.782C262.741 124.325 263.506 124.325 263.977 124.782L274.343 134.828C274.814 135.285 275.579 135.285 276.05 134.828ZM314.037 134.828L324.403 124.782C324.875 124.325 325.639 124.325 326.111 124.782L339.495 137.753C339.966 138.21 339.966 138.951 339.495 139.408L314.037 164.08C313.565 164.536 312.801 164.536 312.329 164.08L286.871 139.408C286.401 138.951 286.401 138.21 286.871 137.753L300.256 124.782C300.728 124.325 301.492 124.325 301.964 124.782L312.329 134.828C312.801 135.285 313.565 135.285 314.037 134.828ZM352.023 134.828L362.39 124.782C362.861 124.325 363.625 124.325 364.097 124.782L377.481 137.753C377.953 138.21 377.953 138.951 377.481 139.408L352.023 164.08C351.552 164.536 350.788 164.536 350.316 164.08L324.858 139.408C324.387 138.951 324.387 138.21 324.858 137.753L338.243 124.782C338.714 124.325 339.479 124.325 339.95 124.782L350.316 134.828C350.788 135.285 351.552 135.285 352.023 134.828ZM390.01 134.828L400.377 124.782C400.848 124.325 401.612 124.325 402.084 124.782L415.468 137.753C415.939 138.21 415.939 138.951 415.468 139.408L390.01 164.08C389.539 164.536 388.774 164.536 388.303 164.08L362.845 139.408C362.374 138.951 362.374 138.21 362.845 137.753L376.23 124.782C376.701 124.325 377.466 124.325 377.937 124.782L388.303 134.828C388.774 135.285 389.539 135.285 390.01 134.828ZM427.997 134.828L438.363 124.782C438.835 124.325 439.599 124.325 440.071 124.782L453.455 137.753C453.926 138.21 453.926 138.951 453.455 139.408L427.997 164.08C427.526 164.536 426.761 164.536 426.289 164.08L400.831 139.408C400.36 138.951 400.36 138.21 400.831 137.753L414.216 124.782C414.688 124.325 415.452 124.325 415.924 124.782L426.289 134.828C426.761 135.285 427.526 135.285 427.997 134.828ZM465.983 134.828L476.35 124.782C476.821 124.325 477.586 124.325 478.057 124.782L491.441 137.753C491.913 138.21 491.913 138.951 491.441 139.408L465.983 164.08C465.512 164.536 464.748 164.536 464.276 164.08L438.818 139.408C438.347 138.951 438.347 138.21 438.818 137.753L452.203 124.782C452.674 124.325 453.439 124.325 453.91 124.782L464.276 134.828C464.748 135.285 465.512 135.285 465.983 134.828ZM503.97 134.828L514.337 124.782C514.808 124.325 515.572 124.325 516.044 124.782L529.428 137.753C529.9 138.21 529.9 138.951 529.428 139.408L503.97 164.08C503.499 164.536 502.734 164.536 502.263 164.08L476.805 139.408C476.333 138.951 476.333 138.21 476.805 137.753L490.189 124.782C490.661 124.325 491.426 124.325 491.897 124.782L502.263 134.828C502.734 135.285 503.499 135.285 503.97 134.828ZM541.957 134.828L552.323 124.782C552.795 124.325 553.559 124.325 554.031 124.782L567.414 137.753C567.886 138.21 567.886 138.951 567.414 139.408L541.957 164.08C541.485 164.536 540.721 164.536 540.249 164.08L514.792 139.408C514.32 138.951 514.32 138.21 514.792 137.753L528.176 124.782C528.648 124.325 529.412 124.325 529.884 124.782L540.249 134.828C540.721 135.285 541.485 135.285 541.957 134.828ZM276.05 164.08L286.417 154.034C286.888 153.577 287.652 153.577 288.124 154.034L301.508 167.005C301.979 167.462 301.979 168.203 301.508 168.66L276.05 193.332C275.579 193.789 274.814 193.789 274.343 193.332L248.885 168.66C248.413 168.203 248.413 167.462 248.885 167.005L262.269 154.034C262.741 153.577 263.506 153.577 263.977 154.034L274.343 164.08C274.814 164.536 275.579 164.536 276.05 164.08ZM314.037 164.08L324.403 154.034C324.875 153.577 325.639 153.577 326.111 154.034L339.495 167.005C339.966 167.462 339.966 168.203 339.495 168.66L314.037 193.332C313.565 193.789 312.801 193.789 312.329 193.332L286.871 168.66C286.401 168.203 286.401 167.462 286.871 167.005L300.256 154.034C300.728 153.577 301.492 153.577 301.964 154.034L312.329 164.08C312.801 164.536 313.565 164.536 314.037 164.08ZM352.023 164.08L362.39 154.034C362.861 153.577 363.625 153.577 364.097 154.034L377.481 167.005C377.953 167.462 377.953 168.203 377.481 168.66L352.023 193.332C351.552 193.789 350.788 193.789 350.316 193.332L324.858 168.66C324.387 168.203 324.387 167.462 324.858 167.005L338.243 154.034C338.714 153.577 339.479 153.577 339.95 154.034L350.316 164.08C350.788 164.536 351.552 164.536 352.023 164.08ZM390.01 164.08L400.377 154.034C400.848 153.577 401.612 153.577 402.084 154.034L415.468 167.005C415.939 167.462 415.939 168.203 415.468 168.66L390.01 193.332C389.539 193.789 388.774 193.789 388.303 193.332L362.845 168.66C362.374 168.203 362.374 167.462 362.845 167.005L376.23 154.034C376.701 153.577 377.466 153.577 377.937 154.034L388.303 164.08C388.774 164.536 389.539 164.536 390.01 164.08ZM427.997 164.08L438.363 154.034C438.835 153.577 439.599 153.577 440.071 154.034L453.455 167.005C453.926 167.462 453.926 168.203 453.455 168.66L427.997 193.332C427.526 193.789 426.761 193.789 426.289 193.332L400.831 168.66C400.36 168.203 400.36 167.462 400.831 167.005L414.216 154.034C414.688 153.577 415.452 153.577 415.924 154.034L426.289 164.08C426.761 164.536 427.526 164.536 427.997 164.08ZM465.983 164.08L476.35 154.034C476.821 153.577 477.586 153.577 478.057 154.034L491.441 167.005C491.913 167.462 491.913 168.203 491.441 168.66L465.983 193.332C465.512 193.789 464.748 193.789 464.276 193.332L438.818 168.66C438.347 168.203 438.347 167.462 438.818 167.005L452.203 154.034C452.674 153.577 453.439 153.577 453.91 154.034L464.276 164.08C464.748 164.536 465.512 164.536 465.983 164.08ZM503.97 164.08L514.337 154.034C514.808 153.577 515.572 153.577 516.044 154.034L529.428 167.005C529.9 167.462 529.9 168.203 529.428 168.66L503.97 193.332C503.499 193.789 502.734 193.789 502.263 193.332L476.805 168.66C476.333 168.203 476.333 167.462 476.805 167.005L490.189 154.034C490.661 153.577 491.426 153.577 491.897 154.034L502.263 164.08C502.734 164.536 503.499 164.536 503.97 164.08ZM541.957 164.08L552.323 154.034C552.795 153.577 553.559 153.577 554.031 154.034L567.414 167.005C567.886 167.462 567.886 168.203 567.414 168.66L541.957 193.332C541.485 193.789 540.721 193.789 540.249 193.332L514.792 168.66C514.32 168.203 514.32 167.462 514.792 167.005L528.176 154.034C528.648 153.577 529.412 153.577 529.884 154.034L540.249 164.08C540.721 164.536 541.485 164.536 541.957 164.08ZM276.05 193.332L286.417 183.286C286.888 182.829 287.652 182.829 288.124 183.286L301.508 196.257C301.979 196.714 301.979 197.455 301.508 197.912L276.05 222.583C275.579 223.041 274.814 223.041 274.343 222.583L248.885 197.912C248.413 197.455 248.413 196.714 248.885 196.257L262.269 183.286C262.741 182.829 263.506 182.829 263.977 183.286L274.343 193.332C274.814 193.789 275.579 193.789 276.05 193.332ZM314.037 193.332L324.403 183.286C324.875 182.829 325.639 182.829 326.111 183.286L339.495 196.257C339.966 196.714 339.966 197.455 339.495 197.912L314.037 222.583C313.565 223.041 312.801 223.041 312.329 222.583L286.871 197.912C286.401 197.455 286.401 196.714 286.871 196.257L300.256 183.286C300.728 182.829 301.492 182.829 301.964 183.286L312.329 193.332C312.801 193.789 313.565 193.789 314.037 193.332ZM352.023 193.332L362.39 183.286C362.861 182.829 363.625 182.829 364.097 183.286L377.481 196.257C377.953 196.714 377.953 197.455 377.481 197.912L352.023 222.583C351.552 223.041 350.788 223.041 350.316 222.583L324.858 197.912C324.387 197.455 324.387 196.714 324.858 196.257L338.243 183.286C338.714 182.829 339.479 182.829 339.95 183.286L350.316 193.332C350.788 193.789 351.552 193.789 352.023 193.332ZM390.01 193.332L400.377 183.286C400.848 182.829 401.612 182.829 402.084 183.286L415.468 196.257C415.939 196.714 415.939 197.455 415.468 197.912L390.01 222.583C389.539 223.041 388.774 223.041 388.303 222.583L362.845 197.912C362.374 197.455 362.374 196.714 362.845 196.257L376.23 183.286C376.701 182.829 377.466 182.829 377.937 183.286L388.303 193.332C388.774 193.789 389.539 193.789 390.01 193.332ZM427.997 193.332L438.363 183.286C438.835 182.829 439.599 182.829 440.071 183.286L453.455 196.257C453.926 196.714 453.926 197.455 453.455 197.912L427.997 222.583C427.526 223.041 426.761 223.041 426.289 222.583L400.831 197.912C400.36 197.455 400.36 196.714 400.831 196.257L414.216 183.286C414.688 182.829 415.452 182.829 415.924 183.286L426.289 193.332C426.761 193.789 427.526 193.789 427.997 193.332ZM465.983 193.332L476.35 183.286C476.821 182.829 477.586 182.829 478.057 183.286L491.441 196.257C491.913 196.714 491.913 197.455 491.441 197.912L465.983 222.583C465.512 223.041 464.748 223.041 464.276 222.583L438.818 197.912C438.347 197.455 438.347 196.714 438.818 196.257L452.203 183.286C452.674 182.829 453.439 182.829 453.91 183.286L464.276 193.332C464.748 193.789 465.512 193.789 465.983 193.332ZM503.97 193.332L514.337 183.286C514.808 182.829 515.572 182.829 516.044 183.286L529.428 196.257C529.9 196.714 529.9 197.455 529.428 197.912L503.97 222.583C503.499 223.041 502.734 223.041 502.263 222.583L476.805 197.912C476.333 197.455 476.333 196.714 476.805 196.257L490.189 183.286C490.661 182.829 491.426 182.829 491.897 183.286L502.263 193.332C502.734 193.789 503.499 193.789 503.97 193.332ZM541.957 193.332L552.323 183.286C552.795 182.829 553.559 182.829 554.031 183.286L567.414 196.257C567.886 196.714 567.886 197.455 567.414 197.912L541.957 222.583C541.485 223.041 540.721 223.041 540.249 222.583L514.792 197.912C514.32 197.455 514.32 196.714 514.792 196.257L528.176 183.286C528.648 182.829 529.412 182.829 529.884 183.286L540.249 193.332C540.721 193.789 541.485 193.789 541.957 193.332ZM276.05 222.583L286.417 212.538C286.888 212.081 287.652 212.081 288.124 212.538L301.508 225.509C301.979 225.966 301.979 226.707 301.508 227.164L276.05 251.836C275.579 252.292 274.814 252.292 274.343 251.836L248.885 227.164C248.413 226.707 248.413 225.966 248.885 225.509L262.269 212.538C262.741 212.081 263.506 212.081 263.977 212.538L274.343 222.583C274.814 223.041 275.579 223.041 276.05 222.583ZM314.037 222.583L324.403 212.538C324.875 212.081 325.639 212.081 326.111 212.538L339.495 225.509C339.966 225.966 339.966 226.707 339.495 227.164L314.037 251.836C313.565 252.292 312.801 252.292 312.329 251.836L286.871 227.164C286.401 226.707 286.401 225.966 286.871 225.509L300.256 212.538C300.728 212.081 301.492 212.081 301.964 212.538L312.329 222.583C312.801 223.041 313.565 223.041 314.037 222.583ZM352.023 222.583L362.39 212.538C362.861 212.081 363.625 212.081 364.097 212.538L377.481 225.509C377.953 225.966 377.953 226.707 377.481 227.164L352.023 251.836C351.552 252.292 350.788 252.292 350.316 251.836L324.858 227.164C324.387 226.707 324.387 225.966 324.858 225.509L338.243 212.538C338.714 212.081 339.479 212.081 339.95 212.538L350.316 222.583C350.788 223.041 351.552 223.041 352.023 222.583ZM390.01 222.583L400.377 212.538C400.848 212.081 401.612 212.081 402.084 212.538L415.468 225.509C415.939 225.966 415.939 226.707 415.468 227.164L390.01 251.836C389.539 252.292 388.774 252.292 388.303 251.836L362.845 227.164C362.374 226.707 362.374 225.966 362.845 225.509L376.23 212.538C376.701 212.081 377.466 212.081 377.937 212.538L388.303 222.583C388.774 223.041 389.539 223.041 390.01 222.583ZM427.997 222.583L438.363 212.538C438.835 212.081 439.599 212.081 440.071 212.538L453.455 225.509C453.926 225.966 453.926 226.707 453.455 227.164L427.997 251.836C427.526 252.292 426.761 252.292 426.289 251.836L400.831 227.164C400.36 226.707 400.36 225.966 400.831 225.509L414.216 212.538C414.688 212.081 415.452 212.081 415.924 212.538L426.289 222.583C426.761 223.041 427.526 223.041 427.997 222.583ZM465.983 222.583L476.35 212.538C476.821 212.081 477.586 212.081 478.057 212.538L491.441 225.509C491.913 225.966 491.913 226.707 491.441 227.164L465.983 251.836C465.512 252.292 464.748 252.292 464.276 251.836L438.818 227.164C438.347 226.707 438.347 225.966 438.818 225.509L452.203 212.538C452.674 212.081 453.439 212.081 453.91 212.538L464.276 222.583C464.748 223.041 465.512 223.041 465.983 222.583ZM503.97 222.583L514.337 212.538C514.808 212.081 515.572 212.081 516.044 212.538L529.428 225.509C529.9 225.966 529.9 226.707 529.428 227.164L503.97 251.836C503.499 252.292 502.734 252.292 502.263 251.836L476.805 227.164C476.333 226.707 476.333 225.966 476.805 225.509L490.189 212.538C490.661 212.081 491.426 212.081 491.897 212.538L502.263 222.583C502.734 223.041 503.499 223.041 503.97 222.583ZM541.957 222.583L552.323 212.538C552.795 212.081 553.559 212.081 554.031 212.538L567.414 225.509C567.886 225.966 567.886 226.707 567.414 227.164L541.957 251.836C541.485 252.292 540.721 252.292 540.249 251.836L514.792 227.164C514.32 226.707 514.32 225.966 514.792 225.509L528.176 212.538C528.648 212.081 529.412 212.081 529.884 212.538L540.249 222.583C540.721 223.041 541.485 223.041 541.957 222.583ZM276.05 251.836L286.417 241.79C286.888 241.333 287.652 241.333 288.124 241.79L301.508 254.761C301.979 255.218 301.979 255.958 301.508 256.416L276.05 281.088C275.579 281.545 274.814 281.545 274.343 281.088L248.885 256.416C248.413 255.958 248.413 255.218 248.885 254.761L262.269 241.79C262.741 241.333 263.506 241.333 263.977 241.79L274.343 251.836C274.814 252.292 275.579 252.292 276.05 251.836ZM314.037 251.836L324.403 241.79C324.875 241.333 325.639 241.333 326.111 241.79L339.495 254.761C339.966 255.218 339.966 255.958 339.495 256.416L314.037 281.088C313.565 281.545 312.801 281.545 312.329 281.088L286.871 256.416C286.401 255.958 286.401 255.218 286.871 254.761L300.256 241.79C300.728 241.333 301.492 241.333 301.964 241.79L312.329 251.836C312.801 252.292 313.565 252.292 314.037 251.836ZM352.023 251.836L362.39 241.79C362.861 241.333 363.625 241.333 364.097 241.79L377.481 254.761C377.953 255.218 377.953 255.958 377.481 256.416L352.023 281.088C351.552 281.545 350.788 281.545 350.316 281.088L324.858 256.416C324.387 255.958 324.387 255.218 324.858 254.761L338.243 241.79C338.714 241.333 339.479 241.333 339.95 241.79L350.316 251.836C350.788 252.292 351.552 252.292 352.023 251.836ZM390.01 251.836L400.377 241.79C400.848 241.333 401.612 241.333 402.084 241.79L415.468 254.761C415.939 255.218 415.939 255.958 415.468 256.416L390.01 281.088C389.539 281.545 388.774 281.545 388.303 281.088L362.845 256.416C362.374 255.958 362.374 255.218 362.845 254.761L376.23 241.79C376.701 241.333 377.466 241.333 377.937 241.79L388.303 251.836C388.774 252.292 389.539 252.292 390.01 251.836ZM427.997 251.836L438.363 241.79C438.835 241.333 439.599 241.333 440.071 241.79L453.455 254.761C453.926 255.218 453.926 255.958 453.455 256.416L427.997 281.088C427.526 281.545 426.761 281.545 426.289 281.088L400.831 256.416C400.36 255.958 400.36 255.218 400.831 254.761L414.216 241.79C414.688 241.333 415.452 241.333 415.924 241.79L426.289 251.836C426.761 252.292 427.526 252.292 427.997 251.836ZM465.983 251.836L476.35 241.79C476.821 241.333 477.586 241.333 478.057 241.79L491.441 254.761C491.913 255.218 491.913 255.958 491.441 256.416L465.983 281.088C465.512 281.545 464.748 281.545 464.276 281.088L438.818 256.416C438.347 255.958 438.347 255.218 438.818 254.761L452.203 241.79C452.674 241.333 453.439 241.333 453.91 241.79L464.276 251.836C464.748 252.292 465.512 252.292 465.983 251.836ZM503.97 251.836L514.337 241.79C514.808 241.333 515.572 241.333 516.044 241.79L529.428 254.761C529.9 255.218 529.9 255.958 529.428 256.416L503.97 281.088C503.499 281.545 502.734 281.545 502.263 281.088L476.805 256.416C476.333 255.958 476.333 255.218 476.805 254.761L490.189 241.79C490.661 241.333 491.426 241.333 491.897 241.79L502.263 251.836C502.734 252.292 503.499 252.292 503.97 251.836ZM541.957 251.836L552.323 241.79C552.795 241.333 553.559 241.333 554.031 241.79L567.414 254.761C567.886 255.218 567.886 255.958 567.414 256.416L541.957 281.088C541.485 281.545 540.721 281.545 540.249 281.088L514.792 256.416C514.32 255.958 514.32 255.218 514.792 254.761L528.176 241.79C528.648 241.333 529.412 241.333 529.884 241.79L540.249 251.836C540.721 252.292 541.485 252.292 541.957 251.836ZM276.05 281.088L286.417 271.041C286.888 270.585 287.652 270.585 288.124 271.041L301.508 284.013C301.979 284.47 301.979 285.21 301.508 285.667H248.885C248.413 285.21 248.413 284.47 248.885 284.013L262.269 271.041C262.741 270.585 263.506 270.585 263.977 271.041L274.343 281.088C274.814 281.545 275.579 281.545 276.05 281.088ZM314.037 281.088L324.403 271.041C324.875 270.585 325.639 270.585 326.111 271.041L339.495 284.013C339.966 284.47 339.966 285.21 339.495 285.667H286.871C286.401 285.21 286.401 284.47 286.871 284.013L300.256 271.041C300.728 270.585 301.492 270.585 301.964 271.041L312.329 281.088C312.801 281.545 313.565 281.545 314.037 281.088ZM352.023 281.088L362.39 271.041C362.861 270.585 363.625 270.585 364.097 271.041L377.481 284.013C377.953 284.47 377.953 285.21 377.481 285.667H324.858C324.387 285.21 324.387 284.47 324.858 284.013L338.243 271.041C338.714 270.585 339.479 270.585 339.95 271.041L350.316 281.088C350.788 281.545 351.552 281.545 352.023 281.088ZM390.01 281.088L400.377 271.041C400.848 270.585 401.612 270.585 402.084 271.041L415.468 284.013C415.939 284.47 415.939 285.21 415.468 285.667H362.845C362.374 285.21 362.374 284.47 362.845 284.013L376.23 271.041C376.701 270.585 377.466 270.585 377.937 271.041L388.303 281.088C388.774 281.545 389.539 281.545 390.01 281.088ZM427.997 281.088L438.363 271.041C438.835 270.585 439.599 270.585 440.071 271.041L453.455 284.013C453.926 284.47 453.926 285.21 453.455 285.667H400.831C400.36 285.21 400.36 284.47 400.831 284.013L414.216 271.041C414.688 270.585 415.452 270.585 415.924 271.041L426.289 281.088C426.761 281.545 427.526 281.545 427.997 281.088ZM465.983 281.088L476.35 271.041C476.821 270.585 477.586 270.585 478.057 271.041L491.441 284.013C491.913 284.47 491.913 285.21 491.441 285.667H438.818C438.347 285.21 438.347 284.47 438.818 284.013L452.203 271.041C452.674 270.585 453.439 270.585 453.91 271.041L464.276 281.088C464.748 281.545 465.512 281.545 465.983 281.088ZM503.97 281.088L514.337 271.041C514.808 270.585 515.572 270.585 516.044 271.041L529.428 284.013C529.9 284.47 529.9 285.21 529.428 285.667H476.805C476.333 285.21 476.333 284.47 476.805 284.013L490.189 271.041C490.661 270.585 491.426 270.585 491.897 271.041L502.263 281.088C502.734 281.545 503.499 281.545 503.97 281.088ZM541.957 281.088L552.323 271.041C552.795 270.585 553.559 270.585 554.031 271.041L567.414 284.013C567.886 284.47 567.886 285.21 567.414 285.667H514.792C514.32 285.21 514.32 284.47 514.792 284.013L528.176 271.041C528.648 270.585 529.412 270.585 529.884 271.041L540.249 281.088C540.721 281.545 541.485 281.545 541.957 281.088Z" stroke="#772827" stroke-miterlimit="10"/>
</g>
<defs>
<clipPath id="clip0">
<rect width="266" height="263" fill="white"/>
</clipPath>
<clipPath id="clip1">
<rect width="24" height="263" fill="white" transform="translate(266)"/>
</clipPath>
</defs>
</svg>
